<svg viewBox="0 0 50 50" xmlns="http://www.w3.org/2000/svg"><g fill-rule="nonzero" fill="none"><path d="M49.9375 25.9826389c0-4.1722222-2.5875-7.8208333-6.48125-9.2402778a13.8750038 13.8750038 0 00.2604167-2.675C43.7166667 6.3104167 37.40625 0 29.6486111 0c-4.53125 0-8.7472222 2.1736111-11.3958333 5.8347222-1.3072234-1.0152416-2.915676-1.565566-4.5708334-1.5638889-4.1166666 0-7.4666666 3.35-7.4666666 7.4673611 0 .9097223.1625 1.7805556.4666666 2.6020834C2.8111111 15.7375.15 19.4708333.15 23.6166667c0 4.1944444 2.6 7.8590277 6.5104167 9.2680555a14.272917 14.272917 0 00-.2569445 2.6736111c0 7.7395834 6.2965278 14.0347279 14.0347222 14.0347279 4.5205317.004056 8.7638753-2.1785454 11.3895834-5.858339 1.3033627 1.0298891 2.9152396 1.5914777 4.5763889 1.5944445 4.1180555 0 7.4673611-3.3486111 7.4673611-7.4659723 0-.9097222-.1618056-1.7819444-.4666667-2.6041666 3.8708333-1.3951389 6.5319445-5.1298611 6.5319445-9.2763889" fill="#FFF"/><path d="M19.7236111 21.3590278l10.8944445 4.9666666 10.9916666-9.63125c.1589546-.7952186.2380512-1.6043305.236146-2.4152777 0-6.776389-5.511146-12.2895834-12.2875349-12.2895834C25.5059656 1.9899245 21.7145522 3.9890428 19.425 7.332639l-1.8277778 9.4854167 2.1263889 4.5409722z" fill="#FFD10C"/><path d="M8.4472222 32.8958333c-.1605837.8072292-.2410668 1.6283425-.2402835 2.4513889 0 6.79375 5.5277835 12.3215324 12.322228 12.3215324 4.0789862.0035207 7.8935932-2.018273 10.1805555-5.3958379L32.525 32.8201389l-2.4215278-4.6277778-10.9375-4.9847222-10.71875 9.6875v.0006944z" fill="#23BAB0"/><path d="M8.3784722 14.0416667l7.4652778 1.7638889 1.6361111-8.488889c-1.0273668-.7828237-2.2833748-1.2066166-3.575-1.2062502-3.2444444 0-5.8833333 2.6395836-5.8833333 5.884028 0 .7166667.1201389 1.4034723.3569444 2.0479167" fill="#EF5197"/><path d="M7.7298611 15.8201389C4.3944444 16.9256944 2.075 20.1236111 2.075 23.6402778c0 3.4243055 2.1180556 6.4826389 5.2972222 7.6930555l10.475-9.4680555-1.9236111-4.1090278-8.19375-1.9361111z" fill="#17A7E0"/><path d="M32.625 42.2729167c1.0194024.7860259 2.2696958 1.2136936 3.5569444 1.2166666 3.2444445 0 5.8833858-2.6388889 5.8833858-5.8833333.0028881-.6979134-.1179646-1.390818-.3569969-2.0465278l-7.4597222-1.7458333L32.625 42.2729167z" fill="#92C740"/><path d="M34.1430556 31.8583333l8.2125 1.9208334c3.3368055-1.1027778 5.65625-4.3013889 5.65625-7.8194445 0-3.41875-2.1236112-6.4729166-5.3083334-7.6798611l-10.7416666 9.4097222 2.18125 4.16875z" fill="#0A79A0"/></g></svg>