<svg viewBox="0 0 50 50" xmlns="http://www.w3.org/2000/svg"><g fill="none" fill-rule="evenodd"><path d="M18.0392606 34.8051056l.0056338-.0052817c-2.5197183-2.5415493-4.0739437-6.0411971-4.0595071-9.890845.0140845-3.8566902 1.5943662-7.3443662 4.1362676-9.8640845l-.0070422-.0070423c2.1528169-2.1371479 2.165845-5.6132042.0288732-7.7625-2.1369718-2.1528169-5.6133803-2.165845-7.7661972-.0288732-4.5355634 4.4982394-7.3514084 10.7294014-7.3771126 17.6216549-.0257043 6.8926056 2.7443661 13.140493 7.2461267 17.6725352 2.1369718 2.1528169 5.6133803 2.165493 7.7658451.0288733 2.153169-2.1334508 2.1658451-5.6098592.0288732-7.7626761l-.0017605-.0017606z" fill="#FFD961"/><path d="M18.1145775 15.0391901l.0052817.0056338c2.5415493-2.5198239 6.0411971-4.0740493 9.890845-4.0596126 3.8566902.0140845 7.3447183 1.5943662 9.8640845 4.1363732l.0070423-.0070422c2.136831 2.1528169 5.6128873 2.165845 7.7625352.0288732 2.1524648-2.1370775 2.165493-5.613486.0285211-7.7663028C41.1746479 2.8415493 34.9441549.0257042 28.0515493 0c-6.8926056-.0257042-13.140493 2.7443662-17.6725352 7.2461268-2.152817 2.1369718-2.165493 5.6133802-.0285211 7.7659507 2.1330985 2.153169 5.609507 2.165845 7.7623239.0288732l.0017606-.0017606z" fill="#3CB4E7"/><path d="M37.8067606 34.8790493l-.0052817-.0056338c-2.5419014 2.5197183-6.0415493 4.0739437-9.8908451 4.0598591-3.8566901-.0144366-7.3447183-1.5947183-9.8640845-4.1362676l-.0070423.0066902c-2.1369718-2.1528169-5.6133802-2.165493-7.762676-.0288733-2.152817 2.1369719-2.165493 5.6133803-.0288732 7.7661972 4.4985915 4.5355634 10.7292253 7.3517606 17.6218309 7.3771127 6.8926057.0257042 13.1400705-2.7440141 17.6721127-7.2461268 2.153169-2.1369718 2.1658451-5.6133802.0288732-7.765845-2.1334507-2.1528169-5.609507-2.1658451-7.7622535-.0288733l-.0017605.0017606z" fill="#EE5D69"/><path d="M18.1145775 15.0379577c-2.1528169 2.1369719-5.6288733 2.1239437-7.7658451-.0288732-2.137324-2.1527465-2.1239437-5.6288028.0285211-7.7622535 2.153169-2.1369719 5.6292254-2.1242958 7.7661972.0288732 2.1369718 2.1492958 2.1239437 5.6253521-.0288732 7.7622535" fill="#328CC6"/><path d="M18.0122887 42.5694718c-2.1528169 2.1366197-5.6288732 2.1239437-7.765845-.0288732-2.1369719-2.1496479-2.1239437-5.6257042.0288732-7.7626761 2.1528169-2.1366197 5.6288732-2.1239436 7.7658451.0288733 2.1369718 2.1528169 2.1239436 5.6292253-.0288733 7.762676" fill="#D5475F"/></g></svg>