<svg viewBox="0 0 50 50" xmlns="http://www.w3.org/2000/svg"><g fill="#E535AB" fill-rule="nonzero"><path d="M7.1412748 38.094388l-1.8336224-1.0586734L25.7349485 1.655638l1.8336224 1.0586735z"/><path d="M4.8877551 34.2091837h40.8545918v2.1173469H4.8877551z"/><path d="M26.1311096 47.1971563L5.6961606 35.3986868l1.0586735-1.8336225 20.434949 11.7984695zM43.8829471 16.4472829L23.4479981 4.6488134l1.0586736-1.8336224 20.4349489 11.7984695z"/><path d="M6.7604972 16.4392218l-1.0586735-1.8336225L26.1367726 2.80713l1.0586735 1.8336224z"/><path d="M43.5061743 38.09477L23.0788783 2.7146936 24.9125006 1.65602l20.427296 35.3800764zM6.5076531 13.2015306H8.625v23.5969388H6.5076531z"/><path d="M42.0178571 13.2015306h2.1173469v23.5969388h-2.1173469z"/><path d="M25.7706497 46.3009057l-.9247449-1.6016581 17.7728827-10.2614797.9247449 1.6016582z"/><path d="M46.9413265 37.4872449c-1.2244898 2.130102-3.9540816 2.8571429-6.0841836 1.6326531C38.7270408 37.8954082 38 35.1658163 39.2244898 33.0357143c1.2244898-2.1301021 3.9540816-2.8571429 6.0841837-1.6326531 2.1428571 1.2372449 2.8698979 3.9540817 1.632653 6.0841837M11.4056122 16.9642857c-1.2244898 2.1301021-3.9540816 2.8571429-6.0841836 1.6326531-2.130102-1.2244898-2.8571429-3.9540817-1.632653-6.0841837 1.2244897-2.130102 3.9540815-2.8571429 6.0841836-1.6326531 2.130102 1.2372449 2.8571428 3.9540817 1.632653 6.0841837M3.7015306 37.4872449c-1.2244898-2.130102-.497449-4.8469388 1.632653-6.0841837 2.1301021-1.2244898 4.8469388-.497449 6.0841838 1.6326531 1.2244897 2.130102.497449 4.8469388-1.6326531 6.0841837-2.1428572 1.2244898-4.8596939.4974489-6.0841837-1.6326531M39.2372449 16.9642857c-1.2244898-2.130102-.497449-4.8469388 1.6326531-6.0841837C43 9.6556122 45.7168367 10.3826531 46.9540816 12.5127551c1.2244898 2.130102.497449 4.8469388-1.632653 6.0841837-2.1301021 1.2244898-4.8596939.497449-6.0841837-1.6326531M25.3214286 49.9744898c-2.4617347 0-4.4515306-1.9897959-4.4515306-4.4515306s1.9897959-4.4515306 4.4515306-4.4515306 4.4515306 1.9897959 4.4515306 4.4515306c0 2.4489796-1.9897959 4.4515306-4.4515306 4.4515306M25.3214286 8.9285714c-2.4617347 0-4.4515306-1.9897959-4.4515306-4.4515306S22.8596939.0255102 25.3214286.0255102s4.4515306 1.989796 4.4515306 4.4515306c0 2.4617347-1.9897959 4.4515306-4.4515306 4.4515306"/></g></svg>