<svg viewBox="0 0 50 50" xmlns="http://www.w3.org/2000/svg"><g fill-rule="nonzero" fill="none"><path fill="#F7DF1E" d="M0 0h50v50H0z"/><path d="M32.6 37c1 1.7 2.3 3 4.6 3 2 0 3.2-1 3.2-2.4 0-1.6-1.3-2.2-3.4-3.1l-1.2-.5c-3.4-1.5-5.6-3.3-5.6-7.1 0-3.5 2.7-6.2 6.9-6.2 3 0 5 1 6.6 3.8l-3.6 2.3c-.8-1.4-1.7-2-3-2-1.4 0-2.3.9-2.3 2 0 1.4.9 2 2.9 2.9l1.2.5c4 1.7 6.2 3.4 6.2 7.3 0 4.3-3.3 6.6-7.8 6.6-4.3 0-7.2-2-8.5-4.8l3.8-2.2zm-16.6.5c.7 1.3 1.4 2.4 3 2.4s2.5-.6 2.5-3V21h4.7V37c0 4.9-2.8 7-7 7-3.7 0-6-1.9-7-4.2l3.8-2.3z" fill="#000"/></g></svg>