<svg viewBox="0 0 50 50" xmlns="http://www.w3.org/2000/svg"><path d="M29.3502888.0479988c-.3604263 0-.6951075.0775458-1.0040478.1809346.6564901.439412 1.0169184 1.0209922 1.1971375 1.6801102.0129084.090466.0386175.1550888.051506.2455518.0129083.0775458.025729.1550888.025729.2326342.051514 1.1373018-.2960717 1.2794646-.5406434 1.9515086-.3733028.8659058-.2703267 1.7964266.1802112 2.5460158.0386195.0904636.0901075.193855.1544741.2843236-.4891594-3.2697518 2.2269303-3.7608608 2.7289482-4.781848.0386175-.8917522-.6951076-1.4862526-1.2743646-1.8998184-.5535139-.3360208-1.0555458-.4394124-1.5189502-.4394124zm4.0934323.7366636c-.0515099.2972494-.0128884.219706-.0257231.3747946-.0128884.103389-.0128884.2326314-.0257251.3360204-.0257251.1033918-.0515139.2067808-.0901115.3101772-.0257232.103389-.0643606.2067806-.1029761.3101694-.051514.1033966-.0901076.1938602-.1415977.2972516-.0386155.051717-.0643605.103389-.102978.1550886-.0257251.0387714-.05151.077543-.0772331.1163144-.0643606.090471-.1287271.1809346-.1930857.2584774-.077239.0775458-.1415996.1680092-.2317111.2326342v.01294c-.0772331.06462-.1544681.142163-.2445717.2067806-.2703227.2067804-.579257.3618688-.8624542.5557288-.0901016.0646176-.1802152.1163174-.2574462.19386-.0901056.0646176-.1673427.1292352-.2445737.2067806-.0901116.077543-.1544721.1550884-.2317092.2455568-.0643606.0775456-.1415936.1680096-.1930817.2584804-.0643665.0904634-.1287251.1809322-.1802191.271398-.051508.1033888-.0901056.1938598-.1415956.297249-.0386156.1033888-.0772371.1938602-.1029781.2972488-.0386175.1163172-.0643626.2197088-.0901076.3231028-.0128884.0517166-.0128884.116312-.0257251.168009-.0129083.0517168-.0129083.103389-.0257231.1550886 0 .1033888-.0128884.219706-.0128884.323095 0 .0775454 0 .1550882.0128884.2326338 0 .1033892.0128885.2067784.0386156.3230952.0128884.1033888.0386135.2067804.0643665.310177.0386175.1033888.0643625.2067804.1029761.3101694.0257291.0646252.0643605.1292426.0901115.1809346l-2.9606613-1.150228c-.5020279-.142163-.9911753-.271398-1.4932032-.3877152-.2703187-.0646174-.5406374-.1292396-.8109602-.1938598-.7723486-.155086-1.5575597-.2713982-2.3427808-.348941-.0257231 0-.0386156-.012942-.0643606-.012942-.7723506-.0775428-1.5318187-.1163144-2.3041633-.1163144-.5663905 0-1.1327809.0258262-1.6862951.0646176-.7852187.0517168-1.5704386.1550884-2.355652.2843234-.193088.0258288-.3861756.064625-.5792639.1033968-.3990436.0775378-.7852133.1680088-1.1585143.2584772-.1930877.0517168-.3861757.1033916-.5792636.1550838-.1930817.0775426-.3732948.168014-.5535143.2455568a16274.2283057 16274.2283057 0 00-.4247871.19386c-.0257249.012942-.0515099.012942-.0643605.0258288-.1287271.0646174-.2445797.1163094-.3604265.1809342-.0386178.012942-.064367.0258264-.0901098.0387718-.1415956.0646178-.2831908.1421606-.399044.2067804-.0901096.0387716-.1802132.0904686-.257448.1292426-.038618.0258262-.0901102.0517144-.115853.0646176-.1158524.0646176-.2317052.1292348-.3346835.19386-.1158528.0646174-.2188311.129235-.3089406.1938526-.0901032.064625-.1802126.116317-.2574482.1809344-.0128964.012942-.0257249.012942-.0386178.025829-.0772348.0517166-.1673384.1163142-.2445733.1809392 0 0-.0128944.01294-.0257251.0258284-.0643605.0517168-.1287274.1033894-.1930878.1550814-.0257247.012942-.0515102.0387714-.0772351.0517166-.0643605.0517172-.128721.1163172-.1930818.168014-.0128945.0258286-.0386174.0387716-.0515102.051717-.077235.077543-.1544703.1421604-.2317054.219706-.0128944 0-.0128944.012942-.0257249.0258262-.077235.06462-.1544699.1421632-.231705.2197086-.0128944.012942-.0128944.025826-.025725.025826-.0643606.0646178-.1287212.1292426-.1930879.2067804-.0257245.0258286-.0643606.0517172-.0901034.077543-.0643605.0775456-.1415958.1550886-.2188307.2326342-.0128944.0258264-.0386175.0387716-.0515103.0646174-.1029785.1033966-.193088.2067856-.2960662.310177-.0128944.012942-.0257247.0258256-.0386173.0387716-.2059623.2197058-.4247934.4394118-.6564928.6332704-.231705.20678-.4762793.40064-.7208588.56865-.2574486.18094-.5020223.336022-.7723452.49111-.2574486.142158-.5277713.271402-.8109626.38772-.270323.116314-.5535141.219708-.836706.31017-.5406455.116314-1.09416.336022-1.5704392.374794-.102978 0-.2188308.02583-.3218091.03877-.1158522.025828-.2188305.051718-.3218086.077548-.1029783.038768-.2059624.077542-.3089408.116312-.1029783.038772-.2059564.09047-.3089347.142166-.0901096.064616-.1930875.116314-.2831974.180932-.090104.064618-.1802136.14216-.2574488.219706-.0901034.064624-.180213.15509-.2574482.23263-.0772353.090474-.1544701.168016-.2188308.258478-.0643606.10339-.1415958.193862-.193088.297254-.0643605.09047-.128721.193858-.1802132.297244-.0515103.116322-.102978.21971-.1415958.336028-.0386175.10339-.077235.219704-.1158526.336022-.0257247.103388-.0515102.20678-.0643605.310166 0 .01296-.0128922.025832-.0128922.038774-.025725.116322-.025725.271412-.0386177.348958-.0128922.090464-.0257246.168004-.0257246.258476 0 .051716 0 .11631.0128923.168006.0128922.090472.0257245.168014.0515102.245564.0257247.077532.0515103.155078.0901036.232624v.01294c.0386175.07755.0901097.15509.1415958.232634.0515102.077544.1029841.155088.1673447.232634.0643605.064618.1415958.142156.2188307.206778.0772353.077544.1544706.142162.244574.20678.3089404.271406.3861755.361876.7852203.568654.06436.038774.128727.064622.2059621.103394.0128945 0 .025725.01294.0386174.01294 0 .025826 0 .038774.0128944.064626.0128924.103392.0386173.206778.0643606.310172.0257246.116316.0643667.21971.1029842.310174.0386175.077546.0643606.155086.1029783.232634.0128924.02583.0257251.051716.0386175.064618.0515102.103388.1029781.193864.1544642.284324.0643667.090466.128727.180932.1930874.271406.064361.07754.1415962.168008.2188311.24555.0772353.077546.1544705.142166.2445803.219704 0 0 .0128944.01296.0257245.01296.0772354.064624.1544701.129244.2317056.180932.0901035.064622.1802131.116314.283191.168014.0901098.051716.193088.10339.2960661.142164.0772353.038772.1673387.064622.2574486.090468.0128945.01296.0257247.01296.0515104.025832.0515102.01296.1158462.025824.1673384.038768-.0386173.69789-.0515103 1.357008.0515106 1.589644.1158466.258476.6822353-.529882 1.2486243-1.434554-.0772349.89175-.1287273 1.93858 0 2.248762.1415954.32309.9139406-.684974 1.5833074-1.79643 9.1265462-2.119514 17.4550159 4.2132 18.3303366 13.156546-.1673426-1.395784-1.8793745-2.171216-2.6645876-1.977354-.3861773.956366-1.0426693 2.184136-2.0982052 2.946648.0901056-.85298.051506-1.731802-.1287231-2.584784-.2831972 1.189002-.8367132 2.300464-1.5961893 3.25683-1.2228798.090464-2.4457627-.504038-3.0893864-1.395782-.0515104-.038776-.0643608-.116318-.1029783-.168012-.0386179-.090476-.0772349-.180934-.1029783-.271406-.0386173-.090464-.0643603-.180934-.0772348-.271398-.0128945-.090472-.0128945-.180938-.0128945-.284326v-.193856c.0128945-.090476.0386176-.180942.0643608-.27141.0257247-.090464.05151-.180934.0901096-.271402.0515103-.090462.0901035-.180932.1544703-.271396.2188307-.620356.2188307-1.124384-.1802132-1.421632-.0772352-.051716-.1544703-.090472-.2445799-.129244-.0515107-.01294-.1158529-.038772-.1673386-.051714-.0386177-.01294-.0643606-.025832-.1029783-.038774-.0901097-.025828-.1802195-.051718-.2703231-.064618-.0901096-.025826-.1802131-.038772-.2703227-.038772-.0901038-.01296-.1930882-.025828-.2831916-.025828-.0643604 0-.1287271.01294-.1930879.01294-.1029779 0-.1930874.01296-.2831914.038772-.0901096.01296-.180213.025826-.2703225.051712-.090104.02583-.1802138.051718-.2703233.090476-.0901034.03877-.1673389.077542-.257448.116314-.0772291.038774-.1544646.090464-.2445739.129236-2.9992771 1.964434-1.210007 6.565348.8367059 7.896512-.7723456.142162-1.5575591.31018-1.7763902.478184-.0128944.01294-.0257247.02583-.0257247.02583.5535143.336018 1.1327721.620346 1.7377721.865898.8238376.271404 1.6991606.516958 2.0853361.620352v.01294c1.0684111.219708 2.1496972.297252 3.2438523.232634 5.7024881-.400642 10.3751793-4.756006 11.224761-10.494222.0257251.116318.05151.219704.0772351.336024.0386195.232624.0901035.47818.1158466.723734v.01296c.0257251.116316.0386175.23263.0515099.33602v.051718c.0129084.116314.0257271.232632.0257271.33602.0128885.142164.0257251.284324.0257251.426494v.20678c0 .064624.0128885.14216.0128885.206784 0 .077546-.0128885.155084-.0128885.232628v.180934c0 .090472-.0129083.168012-.0129083.25848 0 .051712 0 .103392-.0128885.168012 0 .090472-.0128884.180932-.0128884.284324-.0129084.038772-.0129084.077544-.0129084.116318-.0128884.103392-.0257251.19386-.0386195.297252 0 .038774 0 .077542-.0128885.116318-.0129083.129234-.0386155.245554-.051504.374788v.0259c-.0257251.116314-.0515139.245552-.077241.361866v.038774c-.0257211.116312-.0515099.232632-.0772311.348942 0 .01296-.0128884.038774-.0128884.051712-.0257291.11632-.051514.232634-.0901036.348956v.038768c-.0386175.129234-.077237.245552-.1029841.361868-.0128884.01294-.0128884.025828-.0128884.025828a11855.928733 11855.928733 0 00-.1158466.387716c-.05151.129242-.0901076.245556-.1415956.374796-.051508.12924-.0901116.25848-.1415996.374792-.051512.129244-.1029821.24556-.1544682.374794h-.0129083c-.051514.116314-.1029861.245558-.1673506.361876-.0128885.038766-.0257211.064618-.0386136.09046-.0128884.01296-.0128884.025828-.0257251.038776-.8367052 1.693028-2.0724641 3.179278-3.6171494 4.342434-.1029781.064618-.2059601.142164-.3089362.219704-.0257271.02583-.0643666.038776-.0901096.064618-.0901096.06462-.1802151.129236-.2831892.193862l.0386155.077544h.0128884c.1802112-.025826.3604263-.051716.5406415-.077544h.0128884c.3346853-.051716.6693686-.116316 1.0040538-.180934.0901016-.01296.1930877-.03877.2831893-.064624.0643605-.01296.1158525-.025826.1802131-.038772.0901096-.01296.1802151-.038772.2703267-.051714.0772311-.025828.1544681-.038776.2317012-.06462 1.287241-.310178 2.5358705-.73667 3.732998-1.240698-2.0467092 2.804486-4.7885398 5.066174-7.9937729 6.552424 1.4803327-.103392 2.9606594-.348944 4.389498-.762508 5.1875896-1.537954 9.5513386-5.04033 12.1644402-9.75756-.5277689 2.985428-1.7120318 5.828688-3.4626792 8.310082 1.2486235-.827138 2.3942689-1.783506 3.4369362-2.869114 2.8834223-3.024194 4.7756733-6.862592 5.4192889-10.98533.4376653 2.04198.5663904 4.148586.3733027 6.229332 9.2938925-13.014384.7723447-26.506952-2.7933147-30.0610282-.0129084-.0258266-.0257251-.0387716-.0257251-.0646178-.0129084.01294-.0129084.01294-.0129084.0258288 0-.012942 0-.012942-.0128884-.0258288 0 .1550884-.0128885.3101696-.0257251.4652582-.0386195.29725-.0772331.5815758-.1287271.8659058-.0643586.284324-.1415956.568644-.2188327.852976-.0901036.271398-.1930777.555724-.3089342.82713-.1158526.258474-.2445777.529878-.3861733.78836-.1415976.245556-.2960658.504032-.4634044.73666-.1673427.24556-.3475578.478186-.5277749.697888-.1930897.232636-.3990419.43942-.605004.646202-.1287211.116316-.2445717.219706-.3733028.323092-.1029761.090472-.1930817.168018-.2960657.258478-.2317012.180936-.4634044.348948-.7208506.504038-.2445777.155084-.5020199.310172-.7594701.439414-.2703228.129238-.5406455.245552-.8109642.36187-.2703227.103386-.5535139.193856-.8367151.271402-.2831893.07754-.579253.142162-.8624482.193856-.2960618.051716-.5921295.077542-.8753227.103394-.2059602.01294-.4119164.02583-.6178785.02583-.2960678 0-.5921275-.02583-.8753227-.051716-.2960638-.025828-.5921335-.064628-.8753247-.129246-.2960658-.051716-.579263-.129242-.8624562-.219702h-.0128885c.2831933-.025828.5663885-.05172.8495857-.103394.2960598-.051716.579253-.116312.8624502-.193862.2831912-.077542.5663845-.168012.8367052-.2714.2831912-.103392.5535159-.232626.8109661-.361872.2703187-.129242.5148964-.2714.7723426-.426488.2445737-.16801.4891514-.336018.7208546-.516958.2317052-.180932.4505319-.374788.656498-.581572.2188307-.193864.4119144-.413568.605002-.633276.1930817-.232624.3732988-.465256.5406415-.697888.025727-.038774.0515119-.090464.077239-.129238.1287191-.206784.2574402-.413566.3732908-.620352.1415996-.258478.2703267-.516958.3861753-.788354.1158546-.271404.2188347-.54281.3089423-.827132.0901035-.271406.1544661-.555728.2188306-.8400516.051512-.2972516.1029761-.581582.1287231-.8659056.0257251-.2972488.051508-.5945006.051508-.8788238 0-.2067856-.0129084-.413566-.0257211-.6203466-.0257271-.2972492-.0643645-.58158-.1029801-.8659038-.0515119-.2972514-.1158506-.5815746-.1930896-.8659058-.0901016-.2713982-.1802132-.5557268-.2831893-.8271246-.102986-.2714056-.2317032-.5428084-.3604342-.8012886-.1415956-.2584776-.2831893-.5169552-.4376574-.7625072-.1673406-.245552-.3346873-.4781834-.5149004-.7108174-.1930817-.2197062-.3861693-.439412-.5921335-.659118-.1029761-.1033894-.2188306-.2197064-.3346812-.3230952-.579257-.45234-1.184263-.8788318-1.789263-1.2665464-.0901056-.0517148-.1673406-.0904684-.2574502-.1292424-.4247928-.2713984-.8238366-.4135662-1.2228785-.5428732h-.0000219z" fill="#E0234E" fill-rule="evenodd"/></svg>