<svg viewBox="0 0 50 50" xmlns="http://www.w3.org/2000/svg"><g fill-rule="nonzero" fill="none"><path d="M44.8717949 21.5128205L30.7692308 5.0602565v11.8833332c2.6538461 3 6.1884615 6.9128206 8.9743589 9.6974359C44.275641 31.1730769 50 30.4871795 50 30.4871795l-5.1282051-8.974359zm-26.923077 16.5461539c-1.6897435-.2602565-4.6525641-1.0897436-6.4102564-3.7256411-1.2820512-2.5641025-1.2820512-5.1282051-1.2820512-5.1282051s0-3.8461538-3.8461539-3.8461538c0 0 2.5641026 5.1282051 0 5.1282051-1.2820513 0-2.5641025-1.2820513-2.5641025-7.6923077 0 0-2.5641026 1.2820513-2.5641026 5.1282051 0 3.7128205 4.801282 11.0038462 16.6666666 16.1179487v-5.9820512zm0-22.6717949c-.1025641-.0974359-.1987179-.1884616-.3038461-.2897436h-2.2602564v-2.5641026h-2.5641026V9.9692308h-2.5641025v-2.55c-.0038462-.0038462-.0076924-.0089744-.0128206-.0141026h-2.551282v-2.475641C2.5641026 4.8461539 0 1 0 1s0 7.6923077 2.5641026 10.2564103l15.3846153 15.3846153V15.3871795z" fill="#9FA8DA"/><path d="M32.0512821 42.025641c0 4.248718-3.4448718 7.6923077-7.6923077 7.6923077-4.2474359 0-7.6923077-3.4435897-7.6923077-7.6923077V8.6923077C16.6666667 4.4435897 20.1115385 1 24.3589744 1c4.2474359 0 7.6923077 3.4435897 7.6923077 7.6923077V42.025641z" fill="#FF3D00"/><path fill="#FFF" d="M23.0769231 36.8974359h2.5641025v7.6923077h-2.5641025z"/><path fill="#FFF" d="M20.5128205 39.4615385h7.6923077v2.5641025h-7.6923077z"/><path d="M24.3589744 7.4102564c-1.4161148 0-2.5641026 1.1479878-2.5641026 2.5641026 0 1.4161147 1.1479878 2.5641025 2.5641026 2.5641025 1.4161147 0 2.5641025-1.1479878 2.5641025-2.5641025 0-1.4161148-1.1479878-2.5641026-2.5641025-2.5641026z" fill="#DD2C00"/><path d="M31.5435897 5.9641026c.323077.848718.5076924 1.7666666.5076924 2.728205v5.8294873c.7743589.8794872 1.6423076 1.8564102 2.5641025 2.8833333V9.5461538l-3.0717949-3.5820512zM14.1025641 22.7948718l2.5641026 2.5641026v-7.9128206l-2.5641026-2.5615384v7.9102564zm2.5641026 19.2307692v-4.2397436c-.798718-.2153846-1.6923077-.55-2.5641026-1.0653846v5.3051282c0 .0551282.0076923.1102564.0089744.1653846.8589743.4641026 1.751282.9217949 2.7076923 1.3628206-.1-.4948718-.1525641-1.0051283-.1525641-1.5282052z" fill="#7986CB"/><path d="M48.5448718 27.9410256c-1.6-.1-4.5230769-.6474359-6.9884615-3.1128205-2.1038462-2.1038461-4.6679488-4.8910256-6.9410257-7.4230769v3.874359c1.7461539 1.9102564 3.5512821 3.8192307 5.1282051 5.3615384 4.7551282 4.6474359 10.1461539 3.8564103 10.1858975 3.8538462.0025641 0 .0038461-.0012821.0051282-.0012821C49.9769231 30.4897436 50 30.4871795 50 30.4871795l-1.4551282-2.5461539zM14.1025641 12.5333333h-1.2820513V9.9794872c-.0038461-.0025641-.0076923-.0064103-.0102564-.0102564h-2.5538461v-2.55c-.0038462-.0038462-.0076924-.0089744-.0128206-.0141026h-2.551282v-2.475641C2.5641026 4.8461539 0 1 0 1s.0025641 1.7679487.2858974 3.8884615c1.448718 1.125641 3.5410257 2.2692308 6.3038462 2.5435898l1.8423077 1.7858974 5.6705128 5.6666667v-2.3512821z" fill="#C5CAE9"/></g></svg>