<svg viewBox="0 0 50 50" xmlns="http://www.w3.org/2000/svg"><g transform="translate(3)" fill="none" fill-rule="evenodd"><path d="M0 31.4c.2 5.1 10 9.2 22 9.2 12.2 0 22-4.2 22-9.4v9.4c0 5.2-9.8 9.4-22 9.4S0 45.8 0 40.6v-9.4zm44-1.7c0 5.2-9.8 9.4-22 9.4S0 34.9 0 29.7v-9.4.2c.2 5 10 9.2 22 9.2 12.2 0 22-4.2 22-9.4zM0 9.4C0 4.2 9.8 0 22 0s22 4.2 22 9.4v9.3c0 5.2-9.8 9.4-22 9.4S0 24 0 18.7z" fill="#999" fill-rule="nonzero"/><path d="M6.3 16C2.4 14.1 0 12 0 9.3v31.2c0 2.6 2.4 4.9 6.3 6.6V15.9z" fill="#000" fill-rule="nonzero" opacity=".1"/><ellipse fill="#CCC" cx="22" cy="9.5" rx="22" ry="9.5"/></g></svg>