<svg viewBox="0 0 50 50" xmlns="http://www.w3.org/2000/svg" xmlns:xlink="http://www.w3.org/1999/xlink"><defs><path id="a" d="M5.0082873 0L9.980663 8.839779l-4.9723757 8.839779L.0359116 8.839779z"/><path id="c" d="M5.0082873 0L9.980663 8.839779l-4.9723757 8.839779L.0359116 8.839779z"/><path id="e" d="M5.0082873 0L9.980663 8.839779l-4.9723757 8.839779L.0359116 8.839779z"/><path id="g" d="M5.0082873 0L9.980663 8.839779l-4.9723757 8.839779L.0359116 8.839779z"/><radialGradient cx="33.8983333%" cy="1.0101563%" fx="33.8983333%" fy="1.0101563%" r="124.6125%" gradientTransform="matrix(.71111 0 0 1 .0979285 0)" id="i"><stop stop-color="#FFF" stop-opacity=".1" offset="0%"/><stop stop-color="#FFF" stop-opacity="0" offset="100%"/></radialGradient></defs><g fill="none" fill-rule="evenodd"><path fill="#3F51B5" fill-rule="nonzero" d="M39.8149171 7l4.9723757 8.839779-4.9723757 8.839779-4.9723757-8.839779"/><path fill="#536DFE" fill-rule="nonzero" d="M19.9254144 7H9.980663L.0359116 24.679558l4.9723757 8.839779"/><path fill="#3F51B5" fill-rule="nonzero" d="M9.980663 24.679558l4.9723757 8.839779-4.9723757 8.839779-4.9723757-8.839779"/><path fill="#FFF" fill-rule="nonzero" opacity=".2" d="M39.7292818 7.1546961l4.9889502 8.8093923.0690608-.1243094L39.8149171 7"/><path fill="#3E2723" fill-rule="nonzero" opacity=".25" d="M34.8425414 15.839779l4.9723757 8.839779.0773481-.1353591-4.961326-8.859116"/><path fill="#7986CB" fill-rule="nonzero" d="M44.7872928 15.839779l4.9723757 8.839779-9.9447514 17.679558h-9.9447514"/><path fill="#FF4081" fill-rule="nonzero" d="M39.8149171 7h-9.9447514L9.980663 42.359116h9.9447514"/><path d="M19.9254144 42.359116H9.980663l.218232-.1381215h9.6685083l19.7320442-35.082873.1077348-.0690607L39.8149171 7M5.0082873 33.519337L.0359116 24.679558h.1381215l4.8535912 8.5607735 14.6823205-26.10221.1077348-.0690607L19.9254144 7" fill="#3E2723" fill-rule="nonzero" opacity=".25"/><path d="M29.8701657 7h9.9447514l-.2154696.1381215h-9.6685083L10.198895 42.2209945l-.218232.1381215M9.980663 7h9.9447514l-.2154696.1381215h-9.6685083L.1740331 24.679558H.0359116" fill="#FFF" fill-rule="nonzero" opacity=".2"/><path fill="#3E2723" fill-rule="nonzero" opacity=".25" d="M39.8149171 42.359116h-9.9447514l.2182321-.1381215h9.6685083L49.621547 24.679558h.1381215"/><path d="M44.7872928 15.839779l4.9723757 8.839779h-.1381215l-4.8508288-8.5607735-14.6823204 26.10221-.1077348.0690607-.1104973.0690608M9.8950277 24.8342541l4.9889502 8.8093923.0690608-.1243094-4.9723757-8.839779" fill="#FFF" fill-rule="nonzero" opacity=".2"/><path fill="#3E2723" fill-rule="nonzero" opacity=".25" d="M5.0082873 33.519337l4.9723757 8.839779.0718232-.1243094-4.9558011-8.8701657"/><g transform="translate(34.80663 7)"><mask id="b" fill="#fff"><use xlink:href="#a"/></mask><g mask="url(#b)"><path fill="#FF4081" fill-rule="nonzero" d="M5.0082873 4e-7h-9.9447514l-19.8895027 35.359116h9.9447513"/></g></g><g transform="translate(34.80663 7)"><mask id="d" fill="#fff"><use xlink:href="#c"/></mask><g mask="url(#d)"><path fill="#7986CB" fill-rule="nonzero" d="M9.9806632 8.8397794l4.9723757 8.839779-9.9447514 17.679558h-9.9447513"/></g></g><g transform="translate(4.972376 24.679558)"><mask id="f" fill="#fff"><use xlink:href="#e"/></mask><g mask="url(#f)"><path fill="#3B78E7" fill-rule="nonzero" d="M14.9530387-17.6795576H5.0082874L-4.936464 4e-7l4.9723757 8.839779"/></g></g><g transform="translate(4.972376 24.679558)"><mask id="h" fill="#fff"><use xlink:href="#g"/></mask><g mask="url(#h)"><path fill="#FF4081" fill-rule="nonzero" d="M34.8425413-17.6795576h-9.9447514L5.0082872 17.6795584h9.9447513"/></g></g><path fill="#000" fill-rule="nonzero" opacity=".5" d="M9.980663 42.359116l4.9723757-8.839779 4.9723757 8.839779"/><path d="M29.8701657 42.359116l4.9723757-8.839779 4.9723757 8.839779m-24.8618784-8.839779l4.9723757-8.839779 4.9723757 8.839779" fill="#000" fill-rule="nonzero" opacity=".3"/><path fill="#000" fill-rule="nonzero" opacity=".1" d="M.0359116 24.679558l4.9723757-8.839779 4.9723757 8.839779"/><path fill="#FFF" fill-rule="nonzero" opacity=".1" d="M5.0082873 15.839779L9.980663 7l4.9723757 8.839779"/><path d="M34.8425414 33.519337l4.9723757-8.839779 4.9723757 8.839779m-24.8618784-8.839779l4.9723757-8.839779 4.9723756 8.839779" fill="#000" fill-rule="nonzero" opacity=".1"/><path d="M39.8149171 24.679558l4.9723757-8.839779 4.9723757 8.839779m-24.8618784-8.839779L29.8701657 7l4.9723757 8.839779" fill="#FFF" fill-rule="nonzero" opacity=".1"/><path fill="#000" fill-rule="nonzero" opacity=".2" d="M34.8425414 15.839779L39.8149171 7l4.9723757 8.839779"/><path fill="#FFF" fill-rule="nonzero" opacity=".2" d="M39.8149171 7l-4.9723757 8.839779L29.8701657 7"/><path d="M29.8701657 24.679558l-4.9723756 8.839779-4.9723757-8.839779m-9.9447514 0l-4.9723757 8.839779-4.9723757-8.839779" fill="#000" fill-rule="nonzero" opacity=".2"/><path fill="#FFF" fill-rule="nonzero" opacity=".2" d="M19.9254144 7l-4.9723757 8.839779L9.980663 7"/><path fill="#000" fill-rule="nonzero" opacity=".4" d="M24.8977901 33.519337l-4.9723757 8.839779-4.9723757-8.839779"/><path d="M44.7872928 33.519337l-4.9723757 8.839779-4.9723757-8.839779m-19.8895027 0L9.980663 42.359116l-4.9723757-8.839779" fill="#000" fill-rule="nonzero" opacity=".2"/><path fill="url(#i)" fill-rule="nonzero" d="M19.9254144 0H9.980663L.0359116 17.679558 9.980663 35.359116h9.9447514l14.917127-26.519337 4.9723757 8.839779-9.9447514 17.679558h9.9447514l9.9447514-17.679558L39.8149171 0h-9.9447514l-14.917127 26.519337-4.9723757-8.839779" transform="translate(0 7)"/></g></svg>