<svg viewBox="0 0 50 50" xmlns="http://www.w3.org/2000/svg"><g fill-rule="nonzero" fill="none"><path d="M41 29l-.8 1c-.8 1-2.2 1.5-3.7 1.5-1.2 0-2.2-.3-3-1l-.3-.2-.2-.1h-4.5v5.4l.2.3.2.2c2.1 1.9 4.6 2.8 8 2.8a12 12 0 007.7-3.2l.4-.4 1-1h-5V29z" fill="#FF910D"/><path d="M46.4 17.3l-.8-.7.1 4.6-5 .2.7.7c.8.8 1.2 1.9 1.3 3.2 0 .8-.1 1.5-.4 2.2V32.8h4.8l.3-.2.3-.4V32h.1v-.1l.1-.1c1.3-1.9 1.9-4 2-6.3-.2-3.2-1.3-6.1-3.5-8.2z" fill="#E67228"/><path d="M36.2 12c-2 0-4 .7-5.8 2a13.7 13.7 0 00-2 1.5l-.2.1v.1H28l-1.6 1.8h5v4.3l1.5-1.2.2-.2.8-.5c.9-.5 1.7-.8 2.4-.7 1 0 1.9.2 2.6.6l4.8-.2h.5L44 15l-.1-.1C41.9 13 39 12 36.2 12z" fill="#C83F22"/><path d="M9.8 30l-.7-1v5.3H4l.8 1 .5.3A12 12 0 0013 39c3.5 0 6-1 8-2.8l.3-.2.3-.3v-5.4H17l-.2.1-.2.2c-1 .7-2 1-3 1-1.6 0-3-.5-3.8-1.5z" fill="#5ED0DB"/><path d="M4.4 16.6l-.8.7A11.4 11.4 0 002 31.7v.1h.1v.2h.2v.2l.4.4.2.2h4.8v-5.3c-.3-.7-.4-1.4-.4-2.2 0-1.3.5-2.4 1.3-3.2l.7-.7-5-.2v-4.6z" fill="#29B1E6"/><path d="M13.9 12C10.8 12 8 13 6 15L6 15l-.1 4.2v.4l5.1.2h.1c.7-.4 1.5-.6 2.6-.6.7 0 1.5.2 2.4.7a7.2 7.2 0 011 .6v.1l1.5 1.2V17.5h5l-1.6-1.7v-.1l-.2-.1a10.7 10.7 0 00-2-1.7 10.5 10.5 0 00-5.8-1.9z" fill="#168AD9"/><path d="M19.7 18.5v5l7.5 10.2v-5h5.2l-.7-.8-.2-.2-.3-.4-.5-.7-.8-1-1-1.2-.9-1.2-1.2-1.6-2.2-2.7-.1-.2-4.8-.2z" fill="#FFCB4F"/><path d="M30 24v-5l-4.7.2-1.5 2-1 1.3-.5.6-1.3 1.7-1 1.3-1 1.1-.5.7-.3.4-.1.2-.7.7H22.6v5L30.1 24z" fill="#5EDABF"/></g></svg>