<svg viewBox="0 0 50 50" xmlns="http://www.w3.org/2000/svg"><path d="M46.6 12.8A25.2 25.2 0 0025 0 25.2 25.2 0 003.4 12.8C1 16.7 0 21 0 25.6A25.3 25.3 0 0017 50c.7 0 1.1 0 1.4-.3.3-.2.4-.6.4-1a803.4 803.4 0 000-4.8l-.8.2-1.8.1c-.7 0-1.5 0-2.2-.2a5 5 0 01-2.2-1 4.2 4.2 0 01-1.4-2L10 40l-1-1.7a4 4 0 00-1.4-1.2l-.2-.2a2.4 2.4 0 01-.8-.9c0-.1 0-.2.2-.3a2 2 0 011-.2l.6.1c.4 0 1 .4 1.6.8.6.4 1.2 1 1.6 1.7.5 1 1 1.6 1.8 2.1.7.5 1.4.7 2.1.7a9 9 0 001.9-.1l1.4-.5c.2-1.5.8-2.7 1.6-3.5-1.2-.1-2.3-.3-3.3-.6-1-.2-2-.7-3-1.3a8.8 8.8 0 01-4.4-5.7 17 17 0 01-.7-5c0-2.7 1-5 2.6-6.9-.8-2-.7-4.3.2-6.8.7-.2 1.6 0 2.8.5a19.4 19.4 0 014.1 2.1 22.6 22.6 0 0112.6 0l1.2-.8c.8-.5 1.8-1 3-1.4 1.1-.5 2-.6 2.6-.4a9 9 0 01.3 6.8 9.9 9.9 0 012.6 6.9c0 1.9-.3 3.6-.7 5-.5 1.5-1 2.6-1.7 3.5-.7.9-1.6 1.6-2.7 2.2-1 .6-2 1-3 1.3-1 .3-2.1.5-3.4.6 1.2 1 1.7 2.6 1.7 4.8v7c0 .4.2.7.4 1 .3.3.7.4 1.3.2a25.3 25.3 0 0017-24.3c.1-4.6-1-9-3.3-12.8z" fill="#000" fill-rule="evenodd"/></svg>