<svg viewBox="0 0 50 50" xmlns="http://www.w3.org/2000/svg" xmlns:xlink="http://www.w3.org/1999/xlink"><defs><path d="M40.3470077 23.0945946L26.8991313 36.5419884l13.4478764 13.4507722H24.9773166l-5.7644788-5.7644787-7.6858108-7.6862935L24.9777992 23.094112h15.3692085v.0004826zM24.9773166.0390926L.0004826 25.0159267l7.6862935 7.6862935L40.3470077.0390927H24.9773166z" id="a"/><path d="M40.3470077 23.0945946L26.8991313 36.5419884l13.4478764 13.4507722H24.9773166l-5.7644788-5.7644787-7.6858108-7.6862935L24.9777992 23.094112h15.3692085v.0004826zM24.9773166.0390926L.0004826 25.0159267l7.6862935 7.6862935L40.3470077.0390927H24.9773166z" id="c"/><path d="M40.3470077 23.0945946L26.8991313 36.5419884l13.4478764 13.4507722H24.9773166l-5.7644788-5.7644787-7.6858108-7.6862935L24.9777992 23.094112h15.3692085v.0004826zM24.9773166.0390926L.0004826 25.0159267l7.6862935 7.6862935L40.3470077.0390927H24.9773166z" id="e"/><path d="M40.3470077 23.0945946L26.8991313 36.5419884l13.4478764 13.4507722H24.9773166l-5.7644788-5.7644787-7.6858108-7.6862935L24.9777992 23.094112h15.3692085v.0004826zM24.9773166.0390926L.0004826 25.0159267l7.6862935 7.6862935L40.3470077.0390927H24.9773166z" id="g"/><path d="M40.3470077 23.0945946L26.8991313 36.5419884l13.4478764 13.4507722H24.9773166l-5.7644788-5.7644787-7.6858108-7.6862935L24.9777992 23.094112h15.3692085v.0004826zM24.9773166.0390926L.0004826 25.0159267l7.6862935 7.6862935L40.3470077.0390927H24.9773166z" id="j"/><radialGradient cx="2.8144304%" cy="6.8181834%" fx="2.8144304%" fy="6.8181834%" r="151.476498%" gradientTransform="matrix(1 0 0 .80768 0 .0131128)" id="l"><stop stop-color="#FFF" stop-opacity=".1" offset="0%"/><stop stop-color="#FFF" stop-opacity="0" offset="100%"/></radialGradient><linearGradient x1="19.6683038%" y1="81.4985638%" x2="69.8851617%" y2="47.6493017%" id="h"><stop stop-color="#1A237E" stop-opacity=".4" offset="0%"/><stop stop-color="#1A237E" stop-opacity="0" offset="100%"/></linearGradient></defs><g fill="none" fill-rule="evenodd"><g transform="translate(5)"><mask id="b" fill="#fff"><use xlink:href="#a"/></mask><g mask="url(#b)"><path fill="#54C5F8" fill-rule="nonzero" d="M40.3470076 23.0945948H24.9773165L11.5299227 36.5448844l7.6829151 7.6833977z"/></g></g><g transform="translate(5)"><mask id="d" fill="#fff"><use xlink:href="#c"/></mask><path fill="#54C5F8" fill-rule="nonzero" mask="url(#d)" d="M7.686776 32.7022201L.0004827 25.0159266 24.9773166.0390926h15.3696911z"/></g><g transform="translate(5)"><mask id="f" fill="#fff"><use xlink:href="#e"/></mask><path fill="#01579B" fill-rule="nonzero" mask="url(#f)" d="M19.2128378 44.2282819l5.7644788 5.7644787h15.3696911L26.8991313 36.5448842z"/></g><g transform="translate(5)"><mask id="i" fill="#fff"><use xlink:href="#g"/></mask><path fill="url(#h)" fill-rule="nonzero" mask="url(#i)" d="M19.2128378 44.2282819l11.3986487-3.9454634-3.7123552-3.7379343z"/></g><g transform="translate(5)"><mask id="k" fill="#fff"><use xlink:href="#j"/></mask><path fill="#29B6F6" fill-rule="nonzero" mask="url(#k)" transform="rotate(-45 19.213054 36.543348)" d="M13.7792262 31.1095197h10.8676564v10.8676564H13.7792262z"/></g><path d="M40.3470077 23.0945946L26.8991313 36.5419884l13.4478764 13.4507722H24.9773166l-5.7644788-5.7644787-7.6858108-7.6862935L24.9777992 23.094112h15.3692085v.0004826zM24.9773166.0390926L.0004826 25.0159267l7.6862935 7.6862935L40.3470077.0390927H24.9773166z" fill="url(#l)" fill-rule="nonzero" transform="translate(5)"/></g></svg>