<svg viewBox="0 0 50 50" xmlns="http://www.w3.org/2000/svg"><g fill="none" fill-rule="evenodd"><path d="M14.1390728 20.8278146c0 .6125828.0662252 1.1092715.1821193 1.4735099.1324503.3642384.2980132.7615894.5298013 1.192053.0827814.1324503.115894.2649006.115894.3807947 0 .1655629-.0993377.3311258-.3145695.4966887l-1.0430464.6953643c-.1490066.0993377-.2980132.1490066-.4304636.1490066-.1655629 0-.3311258-.0827815-.4966887-.2317881-.2317881-.2483444-.4304636-.513245-.5960265-.7781457-.1655629-.2814569-.3311258-.5960265-.513245-.9768212-1.2913907 1.5231788-2.9139073 2.2847682-4.8675497 2.2847682-1.3907285 0-2.5-.397351-3.3112583-1.1920529-.8112582-.794702-1.2251655-1.8543047-1.2251655-3.178808 0-1.4072848.4966887-2.5496689 1.5066225-3.410596 1.0099338-.8609272 2.3509934-1.2913907 4.0562914-1.2913907.5629139 0 1.142384.0496688 1.7549669.1324503.6125827.0827814 1.2417218.2152318 1.9039735.3642384v-1.2086093c0-1.2582781-.2649007-2.1357616-.7781457-2.6490066-.5298013-.513245-1.423841-.7615894-2.6986755-.7615894-.5794702 0-1.1754967.0662252-1.7880795.2152318s-1.2086093.3311258-1.7880795.5629139c-.2649006.115894-.4635761.1821192-.5794702.2152318-.115894.0331126-.1986755.0496689-.2649006.0496689-.2317881 0-.3476821-.165563-.3476821-.513245v-.8112584c0-.2649006.0331125-.4635761.115894-.5794702.0827815-.115894.231788-.231788.4635762-.347682.5794702-.2980133 1.2748344-.5463577 2.0860927-.7450332.8112583-.2152318 1.6721854-.3145695 2.5827814-.3145695 1.9701987 0 3.4105961.4470198 4.3377484 1.3410596.910596.8940397 1.3741722 2.2516556 1.3741722 4.0728477v5.3642384h.0331125zm-6.7218543 2.5165563c.5463577 0 1.1092716-.0993378 1.705298-.2980133.5960265-.1986755 1.1258279-.5629139 1.5728477-1.0596026.2649007-.3145696.4635762-.6622517.5629139-1.0596027.0993378-.397351.165563-.8774834.165563-1.4403973v-.6953643c-.4801325-.115894-.9933775-.2152318-1.5231789-.281457-.5298013-.066225-1.0430463-.0993377-1.5562913-.0993377-1.1092716 0-1.9205298.2152318-2.4668875.6622517-.5463576.4470199-.8112582 1.0761589-.8112582 1.9039735 0 .7781457.1986755 1.3576159.6125828 1.7549669.397351.4139073.9768211.6125828 1.7384105.6125828zm13.294702 1.7880794c-.2980132 0-.4966887-.0496688-.629139-.1655629-.1324504-.0993377-.2483444-.3311258-.3476822-.6456953l-3.8907284-12.7980133c-.0993378-.3311258-.1490067-.5463576-.1490067-.6622516 0-.2649007.1324504-.4139073.397351-.4139073h1.6225166c.3145695 0 .5298013.0496688.6456954.1655629.1324503.0993377.231788.3311258.3311258.6456954l2.7814569 10.9602648 2.5827815-10.9602648c.0827814-.3311259.1821192-.5463577.3145695-.6456954.1324504-.0993378.3642384-.165563.6622517-.165563h1.3245033c.3145695 0 .5298013.049669.6622516.165563.1324504.0993377.2483444.3311258.3145696.6456954l2.615894 11.0927152 2.8642384-11.0927152c.0993378-.3311259.2152318-.5463577.3311259-.6456954.1324503-.0993378.3476821-.165563.6456953-.165563h1.5397351c.2649007 0 .4139073.1324504.4139073.4139074 0 .0827814-.0165563.1655629-.0331126.2649006-.0165563.0993378-.0496688.231788-.115894.4139073l-3.9900662 12.7980132c-.0993378.3311259-.2152318.5463577-.3476822.6456954-.1324503.0993378-.3476821.1655629-.629139.1655629H29.205298c-.3145695 0-.5298013-.0496689-.6622516-.1655629-.1324504-.115894-.2483444-.3311258-.3145696-.6622516l-2.5662251-10.678808-2.5496689 10.6622517c-.0827815.3311258-.1821192.5463576-.3145696.6622516-.1324503.1158941-.3642384.1655629-.6622516.1655629h-1.4238411zm21.2748345.4470199c-.8609272 0-1.7218543-.0993377-2.5496689-.2980132-.8278146-.1986755-1.4735099-.4139073-1.9039735-.6622517-.2649007-.1490066-.4470199-.3145695-.5132451-.4635762-.0662251-.1490066-.0993377-.3145695-.0993377-.4635761v-.8443709c0-.3476821.1324503-.513245.3807947-.513245.0993378 0 .1986755.0165563.2980132.0496689.0993378.0331125.2483444.0993377.4139073.1655629.5629139.2483443 1.1754967.4470198 1.8211921.5794702.6622516.1324503 1.307947.1986755 1.9701987.1986755 1.0430463 0 1.8543046-.1821192 2.4172185-.5463576.5629139-.3642385.8609272-.8940398.8609272-1.5728477 0-.4635762-.1490067-.8443709-.4470199-1.1589404-.2980133-.3145696-.8609272-.5960265-1.6721854-.8609272l-2.4006623-.745033c-1.2086093-.3807948-2.102649-.9437087-2.6490066-1.6887418-.5463576-.7284768-.8278146-1.5397351-.8278146-2.4006623 0-.6953642.1490066-1.307947.4470199-1.8377483.2980132-.5298013.6953642-.9933775 1.192053-1.3576159.4966887-.3807947 1.0596026-.6622517 1.7218543-.8609272.6622516-.1986755 1.3576159-.281457 2.0860927-.281457.3642384 0 .7450331.0165564 1.1092715.0662253.3807947.0496688.7284768.115894 1.0761589.1821192.3311259.0827814.6456954.1655629.9437087.2649006.2980132.0993378.5298013.1986755.6953642.2980133.2317881.1324503.397351.2649006.4966887.4139073.0993378.1324503.1490067.3145695.1490067.5463576v.7781457c0 .347682-.1324504.5298013-.3807947.5298013-.1324504 0-.3476822-.0662252-.6291391-.1986755-.9437086-.4304636-2.0033113-.6456954-3.178808-.6456954-.9437086 0-1.6887417.1490067-2.2019867.4635762-.5132451.3145695-.7781457.794702-.7781457 1.47351 0 .463576.1655629.860927.4966887 1.1754966.3311259.3145696.9437086.629139 1.8211921.910596l2.3509934.7450332c1.1920529.3807947 2.0529801.910596 2.5662251 1.589404.5132451.6788079.7615894 1.4569536.7615894 2.3178807 0 .7119205-.1490066 1.3576159-.4304635 1.9205298-.2980133.5629139-.6953643 1.0596027-1.2086093 1.4569537-.5132451.4139072-1.1258278.7119205-1.8377484.9271523-.7450331.2317881-1.5231788.3476821-2.3675496.3476821z" fill="#252F3E" fill-rule="nonzero"/><g fill="#F90"><path d="M45.115894 33.6258275c-5.4470198 4.0231788-13.3609271 6.1589404-20.1655629 6.1589404-9.5364238 0-18.129139-3.5264901-24.6192053-9.3874173-.513245-.4635761-.0496688-1.0927152.562914-.7284768 7.0198675 4.0728477 15.6788079 6.5397351 24.6357615 6.5397351 6.0430464 0 12.6821192-1.2582781 18.7913908-3.8410596.910596-.4139073 1.6887417.5960265.7947019 1.2582782z"/><path d="M47.384106 31.043046c-.6953643-.8940397-4.602649-.4304636-6.3741722-.2152318-.5298013.0662252-.6125828-.397351-.1324504-.7450331 3.1125828-2.1854305 8.2284769-1.5562914 8.8245034-.8278146.5960264.7450331-.165563 5.8609272-3.0794702 8.3112583-.4470199.3807947-.8774835.1821192-.678808-.3145695.6622517-1.6390729 2.1357616-5.3311259 1.4403974-6.2086093z"/></g></g></svg>