<svg viewBox="0 0 50 50" xmlns="http://www.w3.org/2000/svg"><g fill="#7CB342" fill-rule="nonzero"><path d="M8.4 32.4c0 1.5-1.2 2.7-2.7 2.7A2.7 2.7 0 0 1 3 32.4V20.3c0-1.5 1.2-2.7 2.7-2.7 1.5 0 2.7 1.2 2.7 2.7v12.1zM46.2 32.4c0 1.5-1.2 2.7-2.7 2.7a2.7 2.7 0 0 1-2.7-2.7V20.3c0-1.5 1.3-2.7 2.7-2.7 1.5 0 2.7 1.2 2.7 2.7v12.1zM22 47.3c0 1.5-1.3 2.7-2.8 2.7a2.7 2.7 0 0 1-2.7-2.7V35.1c0-1.5 1.2-2.7 2.7-2.7 1.5 0 2.7 1.2 2.7 2.7v12.2zM32.7 47.3c0 1.5-1.2 2.7-2.7 2.7a2.7 2.7 0 0 1-2.7-2.7V35.1c0-1.5 1.2-2.7 2.7-2.7 1.5 0 2.7 1.2 2.7 2.7v12.2z"/><path d="M11.1 17.6v20.2c0 1.5 1.2 2.7 2.7 2.7h21.6c1.5 0 2.7-1.2 2.7-2.7V17.6h-27zM24.6 4c-8 0-13 5-13.5 10.9h27C37.7 8.9 32.7 4 24.6 4zm-5.4 7.6c-.8 0-1.3-.5-1.3-1.3s.5-1.4 1.3-1.4 1.4.6 1.4 1.4c0 .6-.6 1.3-1.4 1.3zm10.8 0c-.8 0-1.3-.5-1.3-1.3s.5-1.4 1.3-1.4 1.4.6 1.4 1.4c0 .6-.6 1.3-1.4 1.3z"/><path d="M30.4 7.4a2 2 0 0 1-.8-.2c-.7-.4-.8-1.3-.4-2L31.5 2c.4-.7 1.2-.8 2-.4.6.4.7 1.2.3 1.9l-2.3 3.4c-.1.4-.5.6-1 .6zM18.3 6.9c-.4 0-1-.3-1.1-.7l-1.8-2.8c-.4-.7-.2-1.5.4-2 .7-.3 1.5-.2 2 .5l1.7 2.8c.4.7.3 1.5-.4 2a2 2 0 0 1-.8.2z"/></g></svg>