<svg viewBox="0 0 50 50" xmlns="http://www.w3.org/2000/svg"><path d="M25.1453287 49.9074394c-.6877162 0-1.3295848-.183564-1.9256055-.5044982l-6.0980969-3.6221454c-.916955-.5043252-.4584775-.6877162-.183391-.7794117 1.2378893-.4126298 1.467128-.5043253 2.750865-1.2380623.1377163-.0916955.3211073-.0458478.4584776.0458478l4.6768166 2.7968858c.183391.0916955.4126297.0916955.550173 0l18.2941176-10.5911765c.183391-.0916955.2750865-.2750865.2750865-.5043253V14.3737024c0-.2292387-.0916955-.4126297-.2750865-.5043252L25.3745675 3.3238754c-.183391-.0916955-.4126298-.0916955-.550173 0L6.5302768 13.8695502c-.183391.0916955-.2750865.3209342-.2750865.5043252v21.1366782c0 .183391.0916955.4126298.2750865.5043253l4.9977509 2.8884083c2.7051903 1.3754325 4.4013841-.2292388 4.4013841-1.83391V16.2076125c0-.2750865.2294117-.5501731.550346-.5501731h2.3384083c.2750865 0 .550173.2292388.550173.5501731v20.8615917c0 3.6221453-1.9716263 5.7311418-5.4103806 5.7311418-1.0544983 0-1.8797578 0-4.2179931-1.1461938l-4.8143599-2.750865C3.733564 38.2153979 3 36.9316609 3 35.5562284V14.4197232c0-1.3754325.733564-2.6591696 1.9256055-3.3470588L23.2197232.4814879c1.1461938-.6418685 2.7050173-.6418685 3.8512111 0l18.2941176 10.5911765c1.1920415.6877162 1.9256055 1.9714532 1.9256055 3.3470588v21.1366782c0 1.3754325-.733564 2.6591695-1.9256055 3.3468858L27.0709343 49.4948097c-.5960208.2750865-1.2837371.4126297-1.9256056.4126297zm5.6394464-14.534602c-8.0237024 0-9.6742215-3.6678201-9.6742215-6.7856402 0-.2750865.2292388-.550173.550173-.550173h2.3840831c.2750865 0 .5044983.183391.5044983.4584775.366782 2.4299308 1.4212802 3.6221454 6.2813148 3.6221454 3.8513841 0 5.5020762-.8711073 5.5020762-2.9342561 0-1.1922145-.4584775-2.0633218-6.4648789-2.6595156-4.9975779-.5043252-8.115398-1.6046712-8.115398-5.5934256 0-3.7140138 3.1176471-5.9147059 8.3446367-5.9147059 5.8686851 0 8.7572665 2.0173011 9.1240485 6.4188582 0 .1375432-.0458478.2750865-.1375433.4126297-.0916955.0916955-.2292387.183391-.366782.183391h-2.384083c-.2294118 0-.4584775-.183391-.5044983-.4126297-.550173-2.5216263-1.9714533-3.3468858-5.7311419-3.3468858-4.2179931 0-4.7224913 1.467128-4.7224913 2.567474 0 1.3297578.5960207 1.7422145 6.2813149 2.4757786 5.6396193.733564 8.2987889 1.7882353 8.2987889 5.7313148-.0458478 4.0347751-3.3468858 6.3271627-9.1698962 6.3271627z" fill="#539E43" fill-rule="nonzero"/></svg>