<svg viewBox="0 0 50 50" xmlns="http://www.w3.org/2000/svg"><g fill-rule="nonzero" fill="none"><path d="M12.5 35c0 .9416667-.2166667 1.825-.6166667 2.6083333-.95 1.9166667-2.9333333 3.225-5.2166666 3.225C3.4416667 40.8333333.8333333 38.225.8333333 35c0-3.225 2.6083334-5.8333333 5.8333334-5.8333333 1.175 0 2.2583333.3416666 3.1666666.9333333C11.4416667 31.1416667 12.5 32.9416667 12.5 35z" fill="#F6DB40"/><path d="M29.425 39.5416667c.8833333 1.0166666 1.4083333 2.3416666 1.4083333 3.7916666 0 3.225-2.6083333 5.8333334-5.8333333 5.8333334-3.225 0-5.8333333-2.6083334-5.8333333-5.8333334 0-.675.1166666-1.3166666.325-1.9166666.4-1.175 1.1666666-2.1666667 2.1666666-2.8666667C22.6 37.8833333 23.75 37.5 25 37.5c1.775 0 3.3666667.7916667 4.425 2.0416667z" fill="#71D2DF"/><path d="M43.3333333 19.1666667c3.225 0 5.8333334 2.6083333 5.8333334 5.8333333 0 3.225-2.6083334 5.8333333-5.8333334 5.8333333-1.5666666 0-2.9833333-.6083333-4.025-1.625C38.1916667 28.1583333 37.5 26.6583333 37.5 25c0-.2666667.0166667-.525.0583333-.7833333.1666667-1.3.7666667-2.4583334 1.65-3.3416667 1.0583334-1.0583333 2.5083334-1.7083333 4.125-1.7083333z" fill="#F6DB40"/><path d="M30.775 23.2833333c-.375 2.85-2.8166667 5.05-5.775 5.05-3.225 0-5.8333333-2.6083333-5.8333333-5.8333333 0-.9416667.2166666-1.825.6166666-2.6083333.95-1.9166667 2.9333334-3.225 5.2166667-3.225 3.225 0 5.8333333 2.6083333 5.8333333 5.8333333 0 .2666667-.0166666.525-.0583333.7833333z" fill="#DB535B"/><path d="M25 .8333333c3.225 0 5.8333333 2.6083334 5.8333333 5.8333334 0 1.6166666-.65 3.0666666-1.7083333 4.125C28.0666667 11.85 26.6166667 12.5 25 12.5c-1.175 0-2.2583333-.3416667-3.1666667-.9333333-1.0583333-.6833334-1.8833333-1.7-2.3166666-2.9083334-.225-.6166666-.35-1.2916666-.35-1.9916666 0-3.225 2.6083333-5.8333334 5.8333333-5.8333334z" fill="#8360F4"/><path d="M12.15 11.3416667c.225.6166666.35 1.2916666.35 1.9916666 0 .9416667-.2166667 1.825-.6166667 2.6083334-.5 1-1.275 1.8333333-2.2333333 2.4-.8666667.525-1.8916667.825-2.9833333.825-3.225 0-5.8333334-2.6083334-5.8333334-5.8333334S3.4416667 7.5 6.6666667 7.5c2.525 0 4.6666666 1.6 5.4833333 3.8416667z" fill="#6599ED"/><path d="M9.5533333 29c-.875-.4225-1.8516666-.6666667-2.8866666-.6666667C2.9908333 28.3333333 0 31.3241667 0 35c0 3.6758333 2.9908333 6.6666667 6.6666667 6.6666667 2.3066666 0 4.3425-1.1783334 5.54-2.9641667l6.2975 3.1525c-.1083334.4758333-.1708334.97-.1708334 1.4783333C18.3333333 47.0091667 21.3241667 50 25 50c3.6758333 0 6.6666667-2.9908333 6.6666667-6.6666667 0-1.3816666-.4225-2.6658333-1.1458334-3.7316666l8.8491667-9.2525c1.11.8233333 2.4783333 1.3175 3.9633333 1.3175C47.0091667 31.6666667 50 28.6758333 50 25c0-3.6758333-2.9908333-6.6666667-6.6666667-6.6666667-1.5383333 0-2.9516666.5283334-4.0816666 1.4066667L30.26 10.7483333c.8783333-1.13 1.4066667-2.5433333 1.4066667-4.0816666C31.6666667 2.9908333 28.6758333 0 25 0c-3.6758333 0-6.6666667 2.9908333-6.6666667 6.6666667 0 .5066666.0616667.9991666.17 1.4741666l-5.91 2.1533334c-1.1075-2.1508334-3.3458333-3.6275-5.9266666-3.6275C2.9908333 6.6666667 0 9.6575 0 13.3333333 0 17.0091667 2.9908333 20 6.6666667 20c.9483333 0 1.8491666-.2016667 2.6666666-.5608333l3.0675 5.1625L9.5533333 29zM6.6666667 40c-2.7575 0-5-2.2425-5-5s2.2425-5 5-5 5 2.2425 5 5-2.2425 5-5 5zm6.2825-2.7908333c.2441666-.6925.3841666-1.4341667.3841666-2.2091667 0-2.0441667-.9266666-3.8741667-2.3791666-5.0975l2.3966666-3.7016667L20.5766667 38.36c-.6083334.5416667-1.1175 1.19-1.495 1.9191667l-6.1325-3.07zM25 13.3333333c1.5383333 0 2.9516667-.5283333 4.0816667-1.4066666l8.9925 8.9925c-.5391667.6933333-.9425 1.4941666-1.175 2.3658333l-5.235-.72c-.0008334-.0216667.0025-.0433333.0025-.065 0-3.6758333-2.9908334-6.6666667-6.6666667-6.6666667-2.3066667 0-4.3433333 1.1783334-5.54 2.9641667l-.9941667-.4966667 3.6483334-5.6341666c.8741666.4225 1.8508333.6666666 2.8858333.6666666zm.8333333 23.3908334v-7.6158334C28.5416667 28.7683333 30.745 26.8 31.435 24.215l5.235.72c0 .0216667-.0033333.0433333-.0033333.065 0 1.5916667.5616666 3.0525 1.4958333 4.2l-8.75 9.1491667c-.9808333-.8691667-2.215-1.4533334-3.5791667-1.625zM25 17.5c2.7575 0 5 2.2425 5 5s-2.2425 5-5 5-5-2.2425-5-5 2.2425-5 5-5zm-6.2825 2.7908333c-.2441667.6925-.3841667 1.4341667-.3841667 2.2091667 0 3.3933333 2.55 6.1966667 5.8333334 6.6091667V36.725c-.79.0991667-1.5358334.3358333-2.215.6866667l-7.59-12.7725 3.1925-4.93 1.1633333.5816666zM25 48.3333333c-2.7575 0-5-2.2425-5-5s2.2425-5 5-5 5 2.2425 5 5-2.2425 5-5 5zM43.3333333 20c2.7575 0 5 2.2425 5 5s-2.2425 5-5 5-5-2.2425-5-5 2.2425-5 5-5zM25 1.6666667c2.7575 0 5 2.2425 5 5s-2.2425 5-5 5-5-2.2425-5-5 2.2425-5 5-5zm-5.9258333 8.0391666c.4075.7908334.965 1.49 1.6391666 2.0583334l-3.7466666 5.7866666L12.95 15.5425c.2433333-.6925.3833333-1.4341667.3833333-2.2091667 0-.5066666-.0616666-.9991666-.17-1.4741666l5.9108334-2.1533334zm-17.4075 3.6275c0-2.7575 2.2425-5 5-5s5 2.2425 5 5-2.2425 5-5 5-5-2.2425-5-5zM10.7625 18.5825c.5583333-.4366667 1.0483333-.9566667 1.4441667-1.5466667l3.8475 1.9233334-2.6425 4.0808333L10.7625 18.5825z" fill="#1A1A1A"/></g></svg>