<svg viewBox="0 0 50 50" xmlns="http://www.w3.org/2000/svg"><defs><linearGradient x1="0%" y1="50%" x2="100%" y2="50%" id="a"><stop stop-color="#2A3B8F" offset="0%"/><stop stop-color="#29ABE2" offset="100%"/></linearGradient><linearGradient x1="100%" y1="50%" x2="0%" y2="50%" id="b"><stop stop-color="#B4D44E" offset="0%"/><stop stop-color="#E7F716" offset="100%"/></linearGradient></defs><g fill-rule="nonzero" fill="none"><path fill="#166DA5" d="M49.8757764 25.4658385l-5.4037267 9.0993789-7.5776398-9.2236025 7.5776398-8.9751553z"/><path fill="#8FDB69" d="M43.8819876 36.1180124l-8.2298137-9.8447205-4.9378882 8.2608696 7.6708075 11.2111801z"/><path fill="#166DA5" d="M43.7888199 14.7515528l-8.136646 9.8757764-4.9378882-8.2608696 7.6708075-11.0869565z"/><path d="M18.9751553 9.7515528h24.8136646L38.3229814.2173913H24.4409938l-5.4658385 9.5341615zm16.6770186 9.9068323H49.378882l-4.9378882-8.3229814h-13.757764" fill="url(#a)" opacity=".95" transform="translate(0 5)"/><path d="M43.8819876 31.1490683H18.9440994l5.4658385 9.4720497h13.9751553l5.4968944-9.4720497zm-8.2298137-9.9068323H49.378882l-4.9378882 8.3229814h-13.757764" fill="url(#b)" opacity=".95" transform="translate(0 5)"/><path fill="#010101" d="M24.4099379 45.621118L12.7329193 25.4347826 24.5652174 5.2484472H11.7701863L.1242236 25.4347826 11.7701863 45.621118z"/></g></svg>