<svg viewBox="0 0 50 50" xmlns="http://www.w3.org/2000/svg"><g fill="#0091E2" fill-rule="nonzero"><path d="M49.4009217 20.6866359c-.1382489-.1152073-1.3824885-1.0599078-4.0552996-1.0599078-.6912442 0-1.4055299.0691244-2.0967742.1843318-.5069124-3.5253456-3.4331797-5.2304147-3.5483871-5.3225806l-.7142857-.4147466-.4608295.6682028c-.5760368.8986175-1.0138249 1.9124424-1.2672811 2.9493087-.483871 2.0046083-.1843318 3.8940093.8294931 5.5069125-1.2211982.6912442-3.202765.8525345-3.6175115.875576H1.7511521c-.8525346 0-1.5437788.6912443-1.5437788 1.5437788-.046083 2.8571429.437788 5.7142857 1.4285714 8.4101383 1.1290323 2.9493087 2.81106 5.1382488 4.9769585 6.4746543C9.0552995 42 13.0414747 42.8525346 17.5345622 42.8525346c2.0276498 0 4.0552996-.1843318 6.0599078-.5529954 2.7880185-.5069125 5.4608295-1.4746544 7.9262673-2.8801844 2.0276498-1.1751152 3.8479263-2.672811 5.3917051-4.4239631 2.6036866-2.9262673 4.1474654-6.1981567 5.2764977-9.1013825h.4608295c2.8341014 0 4.5852534-1.1290322 5.5529954-2.0967742.6451613-.5990783 1.1290322-1.3364055 1.4746544-2.1658986l.2073732-.5990783-.4838709-.3456222z"/><path d="M4.7926267 23.1290323H9.170507c.2073733 0 .391705-.1612904.391705-.3917051v-3.9170507c0-.2073733-.1612902-.3917051-.391705-.3917051H4.7926267c-.2073732 0-.391705.1612904-.391705.3917051v3.9170507c.0230414.2304147.1843318.3917051.391705.3917051M10.8294931 23.1290323h4.3778802c.2073732 0 .391705-.1612904.391705-.3917051v-3.9170507c0-.2073733-.1612903-.3917051-.391705-.3917051h-4.3778802c-.2073733 0-.3917051.1612904-.3917051.3917051v3.9170507c.0230415.2304147.1843318.3917051.3917051.3917051M16.9815668 23.1290323h4.3778802c.2073733 0 .3917051-.1612904.3917051-.3917051v-3.9170507c0-.2073733-.1612903-.3917051-.3917051-.3917051h-4.3778802c-.2073733 0-.391705.1612904-.391705.3917051v3.9170507c0 .2304147.1612903.3917051.391705.3917051M23.0414747 23.1290323h4.3778801c.2073733 0 .3917051-.1612904.3917051-.3917051v-3.9170507c0-.2073733-.1612903-.3917051-.3917051-.3917051h-4.3778801c-.2073733 0-.3917051.1612904-.3917051.3917051v3.9170507c0 .2304147.1843318.3917051.3917051.3917051M10.8294931 17.5299539h4.3778802c.2073732 0 .391705-.1843318.391705-.3917051v-3.9170506c0-.2073733-.1612903-.3917051-.391705-.3917051h-4.3778802c-.2073733 0-.3917051.1612903-.3917051.391705v3.9170507c.0230415.2073733.1843318.3917051.3917051.3917051M16.9815668 17.5299539h4.3778802c.2073733 0 .3917051-.1843318.3917051-.3917051v-3.9170506c0-.2073733-.1612903-.3917051-.3917051-.3917051h-4.3778802c-.2073733 0-.391705.1612903-.391705.391705v3.9170507c0 .2073733.1612903.3917051.391705.3917051M23.0414747 17.5299539h4.3778801c.2073733 0 .3917051-.1843318.3917051-.3917051v-3.9170506c0-.2073733-.1843318-.3917051-.3917051-.3917051h-4.3778801c-.2073733 0-.3917051.1612903-.3917051.391705v3.9170507c0 .2073733.1843318.3917051.3917051.3917051M23.0414747 11.9078341h4.3778801c.2073733 0 .3917051-.1612903.3917051-.391705V7.5990782c0-.2073732-.1843318-.391705-.3917051-.391705h-4.3778801c-.2073733 0-.3917051.1612903-.3917051.391705v3.9170507c0 .2073733.1843318.3917051.3917051.3917051M29.1474654 23.1290323h4.3778802c.2073733 0 .3917051-.1612904.3917051-.3917051v-3.9170507c0-.2073733-.1612903-.3917051-.3917051-.3917051h-4.3778802c-.2073732 0-.391705.1612904-.391705.3917051v3.9170507c.0230414.2304147.1843318.3917051.391705.3917051"/></g></svg>