<svg viewBox="0 0 50 50" xmlns="http://www.w3.org/2000/svg"><path d="M43.0236794 27.5846995c-1.7395264.0091074-3.2513661.428051-4.5173042 1.0473588-.4644808-.9198543-.9289617-1.7395264-1.0109289-2.3406193-.0910747-.7012751-.2003643-1.1293261-.0910747-1.9672131.1092896-.8378871.6010929-2.0309654.5919854-2.1220401-.0091075-.0910747-.1092896-.5191257-1.1111111-.5282332-1.0018215-.0091074-1.867031.1912569-1.9672131.4553734-.1001822.2641166-.291439.8652095-.4189435 1.4845174-.1730419.9107468-2.003643 4.1621129-3.0510019 5.8652094-.3369763-.6648451-.6284153-1.2477231-.6921675-1.712204-.0910747-.701275-.2003643-1.129326-.0910747-1.9672131.1092896-.8378871.6010929-2.0309654.5919854-2.1220401-.0091075-.0910747-.1092896-.5191257-1.1111111-.5282331-1.0018215-.0091075-1.867031.1912568-1.9672131.4553734-.1001822.2641166-.2094718.8834244-.4189436 1.4845173-.2094717.6010929-2.6411657 6.0291439-3.2786885 7.431694-.3278688.71949-.6102003 1.2932605-.8105646 1.6848816 0 0-.0091075.0273224-.0364299.0728597-.1730419.3369763-.2732241.5191257-.2732241.5191257v.0091075c-.136612.2459016-.2823315.4735883-.3551912.4735883-.0546448 0-.154827-.6557377.0182149-1.5482696.3642987-1.8852459 1.2295082-4.8178506 1.2204007-4.9180327 0-.0546449.1639345-.5646631-.564663-.8287796-.7103825-.2641166-.9653916.1730418-1.0291439.1730418-.0637523 0-.1092896.154827-.1092896.154827s.7923497-3.2969035-1.5118397-3.2969035c-1.43898 0-3.424408 1.575592-4.4080146 2.9963571-.6193078.3369763-1.9398907 1.0564663-3.3515482 1.830601-.5373407.3005465-1.0928962.6010929-1.6120219.8834245-.0364299-.0364299-.0728597-.0819673-.1092896-.1183971-2.7868853-2.9781421-7.9417122-5.0819672-7.723133-9.0801457.0819672-1.4571949.582878-5.2823316 9.8998179-9.9271403 7.6684881-3.7795993 13.7704918-2.7322404 14.8269581-.409836 1.5118397 3.3151183-3.2695811 9.4717668-11.1930784 10.3642987-3.0236794.3369763-4.6083788-.8287796-5.0091074-1.2659381-.4189436-.4553734-.4826958-.4826958-.6375228-.3916211-.2550091.136612-.0910747.546448 0 .7832422.2367942.6193078 1.2112933 1.712204 2.859745 2.2495446 1.4571949.4735884 5 .737705 9.2896175-.9198542 4.7996357-1.8579235 8.5519126-7.021858 7.4499089-11.3479053-1.1020036-4.3897997-8.3879781-5.837887-15.2823315-3.3879782-4.0983607 1.457195-8.5428051 3.7522769-11.7395264 6.7395264C.4918033 17.5664845-.1092896 20.6539162.136612 21.9471767c.8834244 4.5901639 7.2131148 7.5774135 9.744991 9.7905282-.1275046.0728598-.2459017.136612-.3460839.1912568-1.265938.6284153-6.0928961 3.151184-7.295082 5.8196722-1.3661202 3.0236794.2185793 5.1912568 1.2659381 5.4826958 3.2513661.9016393 6.5938069-.71949 8.3879782-3.3970856 1.7941712-2.6775956 1.575592-6.1566485.7468124-7.7504554-.0091075-.0182149-.018215-.0364299-.0364299-.0546448.3278688-.1912568.6648452-.3916211.992714-.582878.6466302-.3825136 1.284153-.7377049 1.8306011-1.0291439-.3096539.8469946-.5373406 1.8579235-.6466302 3.3151184-.1366121 1.712204.564663 3.9344263 1.4845173 4.8087432.409836.3825137.8925318.3916211 1.2021858.3916211 1.0746812 0 1.557377-.8925318 2.0947176-1.9489981.6557377-1.2932605 1.2477232-2.7959928 1.2477232-2.7959928s-.737705 4.0619308 1.265938 4.0619308c.7285975 0 1.4663024-.9471767 1.7941713-1.4298725v.0091075s.0182149-.0273224.0546448-.0910747c.0728597-.1183971.118397-.1912568.118397-.1912568v-.0182149c.291439-.5100183.9471767-1.6666667 1.9216758-3.5883425 1.2568306-2.4772313 2.4681239-5.5737705 2.4681239-5.5737705s.1092896.7559199.4826958 2.0127505c.2185792.7377049.6739526 1.5482696 1.0382514 2.3315118-.291439.4098361-.4735884.6375228-.4735884.6375228l.0091075.0091075c-.2367942.3096539-.4918033.6466302-.7741348.974499-.992714 1.1839709-2.1766849 2.5409836-2.3406193 2.9326048-.1912568.4644808-.1457195.8014572.2185792 1.0746812.2641166.2003643.7377049.2276867 1.2204008.2003643.8925318-.0637523 1.5209471-.2823315 1.830601-.4189435.4826959-.1730419 1.0473589-.4371585 1.575592-.8287796.9744991-.71949 1.5664845-1.7486339 1.5118397-3.1056467-.0273224-.7468123-.273224-1.4936247-.5737705-2.1948998.0910747-.1275045.1730419-.2550091.2641166-.3825136 1.5391621-2.2495447 2.7322405-4.7176685 2.7322405-4.7176685s.1092896.7559198.4826958 2.0127504c.1821493.6375228.5555555 1.3296904.8834244 2.003643-1.4480875 1.1748634-2.3406193 2.5409836-2.6593807 3.4335155-.5737705 1.6575592-.1275046 2.4043716.71949 2.5774135.3825136.0819672.9289617-.1001822 1.3296903-.2732241.5100182-.1639344 1.1111111-.4462659 1.6848816-.8652094.9744991-.71949 1.9125683-1.7213115 1.8579235-3.0783243-.0273224-.6193078-.1912568-1.2295082-.4189435-1.8214936 1.2295082-.5100182 2.8142076-.7923497 4.8360656-.5555555 4.3351548.5100182 5.1912568 3.2149362 5.0273224 4.3533697-.1639345 1.1384335-1.0746813 1.7577414-1.3752277 1.9489982-.3005465.1912568-.4007286.2550091-.3734062.3916211.0364298.2003643.1821493.1912569.4371584.154827.3551913-.0637523 2.2768671-.9198543 2.3588343-3.014572.136612-2.6775956-2.4134791-5.6010929-6.9216758-5.5737704zM9.5810564 38.859745c-1.4389799 1.5664845-3.4426229 2.1584699-4.3078324 1.6575592-.9289617-.5373406-.564663-2.8506375 1.2021858-4.5081967 1.0746813-1.010929 2.4590164-1.9489982 3.3788707-2.5227687.2094718-.1275046.5191257-.3096539.8925319-.5373406.0637523-.0364299.1001821-.0546448.1001821-.0546448l.2185793-.1366121c.6466302 2.3679418.0273224 4.453552-1.4845173 6.1020037zm10.4735884-7.1220401c-.5009107 1.2204007-1.5482696 4.3442623-2.1857923 4.1712204-.5464481-.1457195-.8834244-2.5136612-.1092897-4.8542805.3916212-1.1748634 1.2204008-2.5774135 1.7030966-3.1238616.7832422-.8743169 1.6484517-1.1657559 1.8579235-.8105646.2641166.4644809-.9562842 3.852459-1.2659381 4.6174863zm8.6429873 4.1347905c-.2094718.1092897-.4098361.1821494-.5009108.1275046-.0637523-.0364299.0910747-.1821494.0910747-.1821494s1.0837887-1.1657559 1.5118397-1.693989c.2459016-.3096539.5373406-.6739527.8469945-1.0837887v.118397c0 1.3934427-1.3479052 2.3315119-1.9489981 2.7140255zm6.6666666-1.5209471c-.1548269-.1092896-.1275045-.4735884.3916212-1.6120219.2003643-.4462659.6739526-1.1930783 1.4845173-1.9125683.0910746.291439.1548269.5737705.1457194.8378871-.0091074 1.7577413-1.265938 2.413479-2.0218579 2.6867031z" fill="#CD6799" fill-rule="nonzero"/></svg>