<svg xmlns="http://www.w3.org/2000/svg" xmlns:xlink="http://www.w3.org/1999/xlink" width="672" height="672" viewBox="0 0 504 504"><defs><symbol overflow="visible" id="a"><path d="M6.156-2.813c0-1.687-1.11-2.796-2.75-2.796-.594 0-1.078.156-1.562.515l.328-2.187h3.547v-1.047H1.312L.688-3.875h.97c.484-.594.905-.797 1.562-.797 1.14 0 1.86.734 1.86 2 0 1.219-.704 1.922-1.86 1.922-.922 0-1.485-.469-1.75-1.438H.422C.766-.484 1.734.188 3.234.188c1.72 0 2.922-1.204 2.922-3zm0 0"/></symbol><symbol overflow="visible" id="b"><path d="M4.156 0v-8.516H3.47c-.375 1.313-.61 1.5-2.25 1.704v.75h1.89V0zm0 0"/></symbol><symbol overflow="visible" id="c"><path d="M6.078-4.094c0-2.953-.937-4.422-2.781-4.422-1.828 0-2.781 1.5-2.781 4.36 0 2.86.953 4.343 2.78 4.343 1.798 0 2.782-1.484 2.782-4.28zM5-4.187C5-1.781 4.453-.704 3.281-.704c-1.125 0-1.687-1.125-1.687-3.453s.562-3.422 1.703-3.422C4.437-7.578 5-6.468 5-4.188zm0 0"/></symbol><symbol overflow="visible" id="d"><path d="M6.125-6.016c0-1.437-1.11-2.5-2.719-2.5-1.734 0-2.75.891-2.812 2.954h1.062c.078-1.422.672-2.016 1.719-2.016.953 0 1.672.672 1.672 1.594 0 .671-.39 1.25-1.14 1.671l-1.11.625C1.016-2.671.5-1.875.407 0h5.671v-1.047H1.594c.11-.687.5-1.14 1.531-1.75l1.203-.64c1.188-.641 1.797-1.532 1.797-2.579zm0 0"/></symbol><symbol overflow="visible" id="i"><path d="M2.313 0v-8.75h-1.11V0zm0 0"/></symbol><symbol overflow="visible" id="j"><path d="M5.844 0v-4.75c0-1.047-.782-1.719-1.985-1.719-.937 0-1.546.36-2.093 1.235v-1.047H.844V0h1v-3.469c0-1.281.687-2.125 1.703-2.125.797 0 1.297.485 1.297 1.235V0zm0 0"/></symbol><symbol overflow="visible" id="k"><path d="M6.281-3.078c0-2.125-1.031-3.39-2.703-3.39-.86 0-1.531.39-2 1.124v-.937H.656v8.89h1V-.75c.532.64 1.11.938 1.938.938 1.61 0 2.687-1.266 2.687-3.266zM5.234-3.11C5.234-1.688 4.5-.75 3.406-.75c-1.047 0-1.75-.875-1.75-2.344 0-1.484.703-2.437 1.75-2.437 1.11 0 1.828.922 1.828 2.422zm0 0"/></symbol><symbol overflow="visible" id="l"><path d="M5.781 0v-6.281h-1v3.468c0 1.282-.672 2.11-1.703 2.11-.797 0-1.297-.469-1.297-1.235V-6.28h-1v4.75c0 1.047.781 1.718 2 1.718.922 0 1.516-.328 2.11-1.156V0zm0 0"/></symbol><symbol overflow="visible" id="m"><path d="M3.047 0v-.844c-.125.047-.281.047-.485.047-.421 0-.546-.11-.546-.562v-4.11h1.03v-.812h-1.03v-1.735h-1v1.735H.172v.812h.844v4.563c0 .625.437.984 1.218.984.235 0 .485-.015.813-.078zm0 0"/></symbol><symbol overflow="visible" id="o"><path d="M7.453-2.406c0-1.078-.672-1.86-1.86-2.188l-2.202-.593c-1.047-.266-1.438-.625-1.438-1.297 0-.891.781-1.547 1.953-1.547 1.39 0 2.188.64 2.188 1.781h1.062c0-1.719-1.187-2.719-3.203-2.719-1.922 0-3.11 1.063-3.11 2.64 0 1.079.563 1.75 1.72 2.048l2.171.578c1.094.281 1.61.734 1.61 1.406 0 .969-.735 1.531-2.235 1.531-1.656 0-2.484-.828-2.484-2.078H.578C.578-.78 1.968.22 4.031.22c2.219 0 3.422-1.063 3.422-2.625zm0 0"/></symbol><symbol overflow="visible" id="p"><path d="M1.844 0v-6.281h-1V0zm.125-7.234v-1.25H.719v1.25zm0 0"/></symbol><symbol overflow="visible" id="q"><path d="M5.484 0v-.875H1.578l3.734-4.531v-.875H.625v.875h3.5l-3.75 4.5V0zm0 0"/></symbol><symbol overflow="visible" id="r"><path d="M6.156-2.86c0-.906-.078-1.484-.25-1.953C5.5-5.843 4.531-6.468 3.36-6.468c-1.75 0-2.875 1.297-2.875 3.36 0 2.062 1.094 3.296 2.86 3.296C4.78.188 5.766-.64 6.03-1.905H5.016C4.734-1.078 4.172-.75 3.375-.75c-1.047 0-1.828-.672-1.844-2.11zm-1.062-.89s0 .047-.016.078H1.547c.078-1.11.797-1.875 1.797-1.875.984 0 1.75.813 1.75 1.797zm0 0"/></symbol><symbol overflow="visible" id="e"><path d="M-4.094-6.078c-2.953 0-4.422.937-4.422 2.781 0 1.828 1.5 2.781 4.36 2.781 2.86 0 4.343-.953 4.343-2.78 0-1.798-1.484-2.782-4.28-2.782zM-4.187-5c2.406 0 3.484.547 3.484 1.719 0 1.125-1.125 1.687-3.453 1.687s-3.422-.562-3.422-1.703c0-1.14 1.11-1.703 3.39-1.703zm0 0"/></symbol><symbol overflow="visible" id="f"><path d="M-2.813-6.156c-1.687 0-2.796 1.11-2.796 2.75 0 .594.156 1.078.515 1.562l-2.187-.328v-3.547h-1.047v4.407l4.453.625v-.97c-.594-.484-.797-.905-.797-1.562 0-1.14.734-1.86 2-1.86 1.219 0 1.922.704 1.922 1.86 0 .922-.469 1.485-1.438 1.75v1.047C-.484-.766.188-1.734.188-3.234c0-1.72-1.204-2.922-3-2.922zm0 0"/></symbol><symbol overflow="visible" id="g"><path d="M0-4.156h-8.516v.687c1.313.375 1.5.61 1.704 2.25h.75v-1.89H0zm0 0"/></symbol><symbol overflow="visible" id="h"><path d="M-6.016-6.125c-1.437 0-2.5 1.11-2.5 2.719 0 1.734.891 2.75 2.954 2.812v-1.062c-1.422-.078-2.016-.672-2.016-1.719 0-.953.672-1.672 1.594-1.672.671 0 1.25.39 1.671 1.14l.625 1.11C-2.671-1.016-1.875-.5 0-.407v-5.671h-1.047v4.484c-.687-.11-1.14-.5-1.75-1.531l-.64-1.203c-.641-1.188-1.532-1.797-2.579-1.797zm0 0"/></symbol><symbol overflow="visible" id="s"><path d="M0-8.14h-.281c-.281.406-.594.515-1.766.515-1.437.031-1.86.25-2.265 1.188-.485-.985-1.094-1.375-2.094-1.375-1.516 0-2.344.953-2.344 2.671v4.032H0v-1.125h-3.766V-5.11c0-.985.485-1.454 1.563-1.438h.781C-.89-6.53-.359-6.64 0-6.797zm-6.25 1.5c1.031 0 1.5.515 1.5 1.702v2.704h-3.016v-2.704c0-1.25.532-1.703 1.516-1.703zm0 0"/></symbol><symbol overflow="visible" id="t"><path d="M0-5.781h-6.281v1h3.468c1.282 0 2.11.672 2.11 1.703 0 .797-.469 1.297-1.235 1.297H-6.28v1h4.75c1.047 0 1.718-.781 1.718-2 0-.922-.328-1.516-1.156-2.11H0zm0 0"/></symbol><symbol overflow="visible" id="u"><path d="M0-5.844h-4.75c-1.047 0-1.719.782-1.719 1.985 0 .937.36 1.546 1.235 2.093h-1.047v.922H0v-1h-3.469c-1.281 0-2.125-.687-2.125-1.703 0-.797.485-1.297 1.235-1.297H0zm0 0"/></symbol><symbol overflow="visible" id="v"><path d="M0-3.047h-.844c.047.125.047.281.047.485 0 .421-.11.546-.562.546h-4.11v-1.03h-.812v1.03h-1.735v1h1.735v.844h.812v-.844h4.563c.625 0 .984-.437.984-1.218 0-.235-.015-.485-.078-.813zm0 0"/></symbol><symbol overflow="visible" id="w"><path d="M0-1.844h-6.281v1H0zm-7.234-.125h-1.25v1.25h1.25zm0 0"/></symbol><symbol overflow="visible" id="x"><path d="M0-9.125h-4.719c-1.125 0-1.75.625-1.75 1.813 0 .828.25 1.343.953 1.921-.671.375-.953.875-.953 1.688 0 .844.313 1.406 1.063 1.937h-.875v.907H0v-.985h-3.953c-.906 0-1.64-.672-1.64-1.484 0-.735.452-1.156 1.265-1.156H0v-1h-3.953c-.906 0-1.64-.672-1.64-1.485 0-.734.468-1.156 1.265-1.156H0zm0 0"/></symbol><symbol overflow="visible" id="y"><path d="M-2.86-6.156c-.906 0-1.484.078-1.953.25-1.03.406-1.656 1.375-1.656 2.547 0 1.75 1.297 2.875 3.36 2.875 2.062 0 3.296-1.094 3.296-2.86 0-1.437-.828-2.422-2.093-2.687v1.015c.828.282 1.156.844 1.156 1.641 0 1.047-.672 1.828-2.11 1.844zm-.89 1.062s.047 0 .078.016v3.531c-1.11-.078-1.875-.797-1.875-1.797 0-.984.813-1.75 1.797-1.75zm0 0"/></symbol><symbol overflow="visible" id="A"><path d="M-8.75-3.406v.656L.234.094v-.656zm0 0"/></symbol><symbol overflow="visible" id="B"><path d="M-3.188-8.125v1.156c1.657.266 2.422.953 2.422 2.438 0 1.734-1.328 2.843-3.515 2.843-2.25 0-3.703-1.062-3.703-2.75 0-1.375.609-2.093 1.953-2.359v-1.14c-1.922.343-2.938 1.453-2.938 3.359 0 2.656 2.14 4 4.703 4C-1.719-.578.22-1.953.22-4.531c0-2.125-1.125-3.328-3.406-3.594zm0 0"/></symbol><symbol overflow="visible" id="C"><path d="M-3.094-6.125c-2.172 0-3.375 1.047-3.375 2.86C-6.469-1.5-5.25-.438-3.14-.438c2.11 0 3.329-1.047 3.329-2.844 0-1.766-1.22-2.844-3.282-2.844zm-.015 1.047c1.484 0 2.359.703 2.359 1.797 0 1.125-.875 1.812-2.39 1.812-1.516 0-2.407-.687-2.407-1.812s.875-1.797 2.438-1.797zm0 0"/></symbol><symbol overflow="visible" id="D"><path d="M-3.078-6.281c-2.125 0-3.39 1.031-3.39 2.703 0 .86.39 1.531 1.124 2h-.937v.922h8.89v-1H-.75c.64-.532.938-1.11.938-1.938 0-1.61-1.266-2.687-3.266-2.687zm-.031 1.047c1.421 0 2.359.734 2.359 1.828 0 1.047-.875 1.75-2.344 1.75-1.484 0-2.437-.703-2.437-1.75 0-1.11.922-1.828 2.422-1.828zm0 0"/></symbol><symbol overflow="visible" id="E"><path d="M0-1.813h-8.75v1H0zm0 0"/></symbol><symbol overflow="visible" id="F"><path d="M0-5.672L-3.25-3.5l-3.031-2.11v1.126l2.265 1.515-2.265 1.5v1.14l3.078-2.093L0-.203v-1.14l-2.406-1.595L0-4.516zm0 0"/></symbol><symbol overflow="visible" id="G"><path d="M-6.281-5.734v1.078l4.89 1.734-4.89 1.61v1.078L.03-2.36l.985.375c.453.171.609.375.609.812 0 .14-.016.313-.063.531h.891c.11-.218.156-.421.156-.671 0-.72-.39-1.297-1.296-1.625zm0 0"/></symbol><symbol overflow="visible" id="L"><path d="M6.5-2.547h-.922C5.36-1.234 4.812-.609 3.625-.609c-1.39 0-2.266-1.063-2.266-2.813 0-1.797.844-2.953 2.188-2.953 1.094 0 1.672.484 1.89 1.547h.907C6.078-6.36 5.187-7.172 3.656-7.172c-2.125 0-3.203 1.719-3.203 3.75C.453-1.375 1.563.172 3.61.172c1.72 0 2.672-.906 2.891-2.719zm0 0"/></symbol><symbol overflow="visible" id="M"><path d="M4.89-2.469c0-1.75-.827-2.703-2.28-2.703-1.407 0-2.266.969-2.266 2.656 0 1.688.844 2.657 2.281 2.657 1.406 0 2.266-.97 2.266-2.61zm-.827-.015c0 1.171-.563 1.89-1.438 1.89-.89 0-1.438-.703-1.438-1.922 0-1.203.547-1.921 1.438-1.921.89 0 1.438.703 1.438 1.953zm0 0"/></symbol><symbol overflow="visible" id="N"><path d="M4.672 0v-3.797c0-.844-.625-1.375-1.594-1.375-.75 0-1.219.281-1.672.984v-.843H.672V0h.797v-2.766c0-1.03.562-1.703 1.375-1.703.625 0 1.031.375 1.031.985V0zm0 0"/></symbol><symbol overflow="visible" id="O"><path d="M4.406-1.406c0-.75-.422-1.125-1.422-1.36l-.765-.187c-.656-.156-.938-.36-.938-.719 0-.469.422-.765 1.063-.765.656 0 1 .28 1.015.812h.844c-.016-.984-.656-1.547-1.828-1.547-1.172 0-1.922.61-1.922 1.531 0 .797.406 1.172 1.594 1.454l.75.187c.547.125.765.297.765.656 0 .469-.468.75-1.171.75-.72 0-1.11-.172-1.22-.937H.329C.36-.375 1.016.14 2.328.14c1.266 0 2.078-.579 2.078-1.547zm0 0"/></symbol><symbol overflow="visible" id="P"><path d="M2.438 0v-.672c-.11.031-.235.031-.391.031-.344 0-.438-.093-.438-.437v-3.297h.829v-.656h-.829v-1.375H.813v1.375H.14v.656h.671v3.64c0 .516.344.797.97.797.187 0 .39-.015.655-.062zm0 0"/></symbol><symbol overflow="visible" id="Q"><path d="M5.125-.016v-.609c-.078.016-.11.016-.172.016-.266 0-.422-.141-.422-.391v-2.797c0-.89-.656-1.375-1.89-1.375-1.22 0-1.97.469-2.016 1.625h.797c.078-.61.437-.89 1.187-.89.72 0 1.125.28 1.125.75v.218c0 .328-.203.469-.843.547-1.125.156-1.297.188-1.61.313-.578.234-.875.687-.875 1.296 0 .922.625 1.454 1.64 1.454.657 0 1.267-.266 1.72-.735a.836.836 0 00.812.656c.172 0 .297-.015.547-.078zm-1.39-1.718c0 .718-.735 1.171-1.516 1.171-.61 0-.985-.218-.985-.765 0-.531.36-.75 1.22-.875.843-.125 1.015-.156 1.28-.281zm0 0"/></symbol><symbol overflow="visible" id="R"><path d="M5.11 0v-.781H1.655V-7h-.89v7zm0 0"/></symbol><symbol overflow="visible" id="S"><path d="M1.469 0v-5.031H.672V0zm.11-5.781v-1h-1v1zm0 0"/></symbol><symbol overflow="visible" id="T"><path d="M4.922-2.281c0-.735-.063-1.188-.203-1.563-.328-.828-1.094-1.328-2.032-1.328C1.282-5.172.392-4.14.392-2.484.39-.828 1.25.14 2.67.14c1.142 0 1.938-.657 2.142-1.672h-.797c-.22.672-.672.937-1.313.937-.844 0-1.469-.531-1.484-1.687zM4.062-3v.063H1.235c.079-.891.641-1.5 1.438-1.5.797 0 1.39.656 1.39 1.437zm0 0"/></symbol><symbol overflow="visible" id="U"><path d="M3.078-4.328v-.813c-.14-.015-.203-.03-.312-.03-.516 0-.907.312-1.36 1.062v-.922H.672V0h.797v-2.61c0-1.124.375-1.703 1.61-1.718zm0 0"/></symbol><symbol overflow="visible" id="V"><path d="M4.688-.828v-4.203h-.735v.734c-.406-.594-.89-.875-1.531-.875-1.281 0-2.14 1.078-2.14 2.703 0 1.594.89 2.61 2.062 2.61.64 0 1.078-.266 1.61-.907v.344c0 1.328-.548 1.844-1.485 1.844-.625 0-1.11-.234-1.219-.844H.437c.094.953.829 1.516 2.016 1.516 1.563 0 2.235-.703 2.235-2.922zm-.813-1.656c0 1.203-.516 1.89-1.36 1.89-.874 0-1.406-.703-1.406-1.922 0-1.203.547-1.921 1.391-1.921.875 0 1.375.734 1.375 1.953zm0 0"/></symbol><symbol overflow="visible" id="W"><path d="M4.656 0v-3.797c0-.844-.593-1.375-1.578-1.375-.703 0-1.14.219-1.61.828V-7H.673v7h.797v-2.766c0-1.03.531-1.703 1.36-1.703.562 0 1.03.328 1.03.985V0zm0 0"/></symbol><symbol overflow="visible" id="X"><path d="M7.297 0v-3.766c0-.906-.5-1.406-1.438-1.406-.671 0-1.078.203-1.546.766-.297-.532-.704-.766-1.36-.766-.672 0-1.11.25-1.547.86v-.72H.688V0h.796v-3.156c0-.735.516-1.313 1.172-1.313.594 0 .938.36.938 1V0h.797v-3.156c0-.735.53-1.313 1.187-1.313.578 0 .922.375.922 1V0zm0 0"/></symbol><symbol overflow="visible" id="Y"><path d="M4.578-1.734h-.812c-.125.812-.547 1.14-1.22 1.14-.89 0-1.421-.687-1.421-1.875 0-1.25.531-1.969 1.39-1.969.672 0 1.094.407 1.204 1.094h.797c-.094-1.219-.86-1.828-1.985-1.828C1.187-5.172.297-4.14.297-2.469c0 1.625.86 2.61 2.219 2.61 1.203 0 1.968-.72 2.062-1.875zm0 0"/></symbol><symbol overflow="visible" id="Z"><path d="M7.125-3.469c0-2.156-1.375-3.703-3.39-3.703-2 0-3.376 1.547-3.376 3.734C.36-1.25 1.734.172 3.734.172c.704 0 1.282-.156 1.844-.484l1 .828.453-.547-.906-.75c.672-.719 1-1.578 1-2.688zm-.906.016c0 .906-.235 1.547-.75 2.14l-.86-.703-.437.532.719.609c-.422.188-.735.266-1.157.266C2.25-.61 1.25-1.72 1.25-3.438c0-1.734 1-2.937 2.484-2.937 1.5 0 2.485 1.203 2.485 2.922zm0 0"/></symbol><symbol overflow="visible" id="aa"><path d="M4.625 0v-5.031h-.797v2.781c0 1.016-.531 1.688-1.375 1.688-.625 0-1.031-.375-1.031-.985V-5.03H.625v3.797C.625-.391 1.25.14 2.219.14c.75 0 1.219-.25 1.687-.922V0zm0 0"/></symbol><symbol overflow="visible" id="ab"><path d="M4.75 0v-7h-.797v2.61c-.344-.516-.875-.782-1.547-.782C1.11-5.172.25-4.156.25-2.562.25-.86 1.078.14 2.438.14c.687 0 1.171-.25 1.593-.875V0zm-.797-2.5c0 1.172-.562 1.89-1.406 1.89-.875 0-1.469-.734-1.469-1.906 0-1.171.594-1.906 1.469-1.906.86 0 1.406.766 1.406 1.922zm0 0"/></symbol><symbol overflow="visible" id="ac"><path d="M5.875 0v-.781H1.75v-2.406h3.813v-.782H1.75v-2.234h3.953V-7H.86v7zm0 0"/></symbol><symbol overflow="visible" id="ad"><path d="M4.531 0L2.797-2.594 4.484-5.03h-.89L2.375-3.203 1.172-5.031H.266l1.671 2.468L.157 0h.921l1.266-1.922L3.609 0zm0 0"/></symbol><symbol overflow="visible" id="ae"><path d="M5.016-2.469c0-1.687-.829-2.703-2.157-2.703-.687 0-1.234.313-1.609.906v-.765H.531v7.125h.797V-.61c.422.515.89.75 1.547.75 1.281 0 2.14-1 2.14-2.61zm-.829-.015c0 1.14-.593 1.875-1.468 1.875-.844 0-1.39-.688-1.39-1.86 0-1.187.546-1.953 1.39-1.953.89 0 1.469.734 1.469 1.938zm0 0"/></symbol><symbol overflow="visible" id="af"><path d="M1.453 0v-7H.656v7zm0 0"/></symbol><clipPath id="H"><path d="M339 59.04h17V74h-17zm0 0"/></clipPath><clipPath id="I"><path d="M195 59.04h21V191h-21zm0 0"/></clipPath><clipPath id="J"><path d="M59.04 59.04H149V129H59.04zm0 0"/></clipPath><clipPath id="K"><path d="M59.04 59.04H150V129H59.04zm0 0"/></clipPath></defs><path fill="#fff" d="M0 0h504v504H0z"/><path d="M81.602 416.8h5.808M101.809 416.8h5.812M122.02 416.8h5.812M142.23 416.8h5.813M162.441 416.8h5.813M182.652 416.8h5.813M202.863 416.8h5.809M223.074 416.8h5.809M243.285 416.8h5.809M263.496 416.8h5.809M283.707 416.8h5.809M303.914 416.8h5.813M324.125 416.8h5.813M344.336 416.8h5.812M364.547 416.8h5.812M384.758 416.8h5.812M404.969 416.8h5.808M425.18 416.8h5.808M445.39 416.8h5.81" fill="none" stroke-width=".75" stroke-linecap="round" stroke-linejoin="round" stroke="#000" stroke-miterlimit="10"/><path d="M76.2 416.8c0 2.4-3.598 2.4-3.598 0 0-2.402 3.597-2.402 3.597 0M96.41 416.8c0 2.4-3.601 2.4-3.601 0 0-2.402 3.601-2.402 3.601 0M116.621 416.8c0 2.4-3.601 2.4-3.601 0 0-2.402 3.601-2.402 3.601 0M136.832 416.8c0 2.4-3.602 2.4-3.602 0 0-2.402 3.602-2.402 3.602 0M157.043 416.8c0 2.4-3.602 2.4-3.602 0 0-2.402 3.602-2.402 3.602 0M177.254 416.8c0 2.4-3.602 2.4-3.602 0 0-2.402 3.602-2.402 3.602 0M197.465 416.8c0 2.4-3.602 2.4-3.602 0 0-2.402 3.602-2.402 3.602 0M217.672 416.8c0 2.4-3.598 2.4-3.598 0 0-2.402 3.598-2.402 3.598 0M237.883 416.8c0 2.4-3.598 2.4-3.598 0 0-2.402 3.598-2.402 3.598 0M258.094 416.8c0 2.4-3.598 2.4-3.598 0 0-2.402 3.598-2.402 3.598 0M278.305 416.8c0 2.4-3.598 2.4-3.598 0 0-2.402 3.598-2.402 3.598 0M298.516 416.8c0 2.4-3.602 2.4-3.602 0 0-2.402 3.602-2.402 3.602 0M318.727 416.8c0 2.4-3.602 2.4-3.602 0 0-2.402 3.602-2.402 3.602 0M338.938 416.8c0 2.4-3.602 2.4-3.602 0 0-2.402 3.601-2.402 3.601 0M359.148 416.8c0 2.4-3.601 2.4-3.601 0 0-2.402 3.601-2.402 3.601 0M379.36 416.8c0 2.4-3.602 2.4-3.602 0 0-2.402 3.601-2.402 3.601 0M399.57 416.8c0 2.4-3.601 2.4-3.601 0 0-2.402 3.601-2.402 3.601 0M419.777 416.8c0 2.4-3.597 2.4-3.597 0 0-2.402 3.597-2.402 3.597 0M439.988 416.8c0 2.4-3.597 2.4-3.597 0 0-2.402 3.597-2.402 3.597 0M460.2 416.8c0 2.4-3.598 2.4-3.598 0 0-2.402 3.597-2.402 3.597 0" stroke-width=".75" stroke-linecap="round" stroke-linejoin="round" stroke="#000" stroke-miterlimit="10"/><path d="M155.242 430.559h303.156M155.242 430.559v7.203M256.293 430.559v7.203M357.348 430.559v7.203M458.398 430.559v7.203" fill="none" stroke-width=".75" stroke-linecap="round" stroke-linejoin="round" stroke="#000" stroke-miterlimit="10"/><use xlink:href="#a" x="151.742" y="456.257"/><use xlink:href="#b" x="249.293" y="456.257"/><use xlink:href="#c" x="255.965" y="456.257"/><use xlink:href="#b" x="350.348" y="456.257"/><use xlink:href="#a" x="357.02" y="456.257"/><use xlink:href="#d" x="451.398" y="456.257"/><use xlink:href="#c" x="458.07" y="456.257"/><path d="M59.04 418.527V72.801M59.04 418.527h-7.2M59.04 332.098h-7.2M59.04 245.664h-7.2M59.04 159.23h-7.2M59.04 72.8h-7.2" fill="none" stroke-width=".75" stroke-linecap="round" stroke-linejoin="round" stroke="#000" stroke-miterlimit="10"/><use xlink:href="#e" x="41.538" y="422.027"/><use xlink:href="#f" x="41.538" y="339.098"/><use xlink:href="#e" x="41.538" y="332.426"/><use xlink:href="#g" x="41.538" y="256.164"/><use xlink:href="#e" x="41.538" y="249.492"/><use xlink:href="#e" x="41.538" y="242.82"/><use xlink:href="#g" x="41.538" y="169.73"/><use xlink:href="#f" x="41.538" y="163.059"/><use xlink:href="#e" x="41.538" y="156.387"/><use xlink:href="#h" x="41.538" y="83.301"/><use xlink:href="#e" x="41.538" y="76.629"/><use xlink:href="#e" x="41.538" y="69.957"/><path d="M59.04 430.559h414.722V59.039H59.039zm0 0" fill="none" stroke-width=".75" stroke-linecap="round" stroke-linejoin="round" stroke="#000" stroke-miterlimit="10"/><use xlink:href="#i" x="239.398" y="485.058"/><use xlink:href="#j" x="242.734" y="485.058"/><use xlink:href="#k" x="249.466" y="485.058"/><use xlink:href="#l" x="256.138" y="485.058"/><use xlink:href="#m" x="262.81" y="485.058"/><use xlink:href="#n" x="266.146" y="485.058"/><use xlink:href="#o" x="269.481" y="485.058"/><use xlink:href="#p" x="277.485" y="485.058"/><use xlink:href="#q" x="280.148" y="485.058"/><use xlink:href="#r" x="286.147" y="485.058"/><use xlink:href="#s" x="12.737" y="301.801"/><use xlink:href="#t" x="12.737" y="293.258"/><use xlink:href="#u" x="12.737" y="286.586"/><use xlink:href="#v" x="12.737" y="279.914"/><use xlink:href="#w" x="12.737" y="276.578"/><use xlink:href="#x" x="12.737" y="273.915"/><use xlink:href="#y" x="12.737" y="263.92"/><use xlink:href="#z" x="12.737" y="257.248"/><use xlink:href="#A" x="12.737" y="253.912"/><use xlink:href="#z" x="12.737" y="250.576"/><use xlink:href="#B" x="12.737" y="247.24"/><use xlink:href="#C" x="12.737" y="238.577"/><use xlink:href="#x" x="12.737" y="231.905"/><use xlink:href="#D" x="12.737" y="221.851"/><use xlink:href="#E" x="12.737" y="215.179"/><use xlink:href="#y" x="12.737" y="212.516"/><use xlink:href="#F" x="12.737" y="206.145"/><use xlink:href="#w" x="12.737" y="200.146"/><use xlink:href="#v" x="12.737" y="197.482"/><use xlink:href="#G" x="12.737" y="194.146"/><path d="M81.574 416.188l5.864-.504M101.785 414.457l5.863-.5M121.996 412.73l5.863-.503M142.207 411l5.86-.5M162.414 409.273l5.863-.503M182.625 407.543l5.863-.5M202.836 405.816l5.863-.503M223.047 404.086l5.863-.5M243.258 402.355l5.863-.5M263.469 400.629l5.863-.5M283.68 398.898l5.863-.5M303.89 397.172l5.864-.504M324.102 395.441l5.863-.5M344.313 393.715l5.859-.504M364.52 391.984l5.863-.5M384.73 390.258l5.864-.504M404.941 388.527l5.864-.5M425.152 386.8l5.864-.503M445.363 385.07l5.864-.5" fill="none" stroke-width=".75" stroke-linecap="round" stroke-linejoin="round" stroke="#00f" stroke-miterlimit="10"/><path d="M76.2 416.8c0 2.4-3.598 2.4-3.598 0 0-2.402 3.597-2.402 3.597 0M96.41 415.07c0 2.403-3.601 2.403-3.601 0 0-2.398 3.601-2.398 3.601 0M116.621 413.344c0 2.398-3.601 2.398-3.601 0 0-2.403 3.601-2.403 3.601 0M136.832 411.613c0 2.403-3.602 2.403-3.602 0 0-2.398 3.602-2.398 3.602 0M157.043 409.887c0 2.398-3.602 2.398-3.602 0 0-2.403 3.602-2.403 3.602 0M177.254 408.156c0 2.403-3.602 2.403-3.602 0 0-2.398 3.602-2.398 3.602 0M197.465 406.43c0 2.398-3.602 2.398-3.602 0 0-2.403 3.602-2.403 3.602 0M217.672 404.7c0 2.398-3.598 2.398-3.598 0 0-2.4 3.598-2.4 3.598 0M237.883 402.973c0 2.398-3.598 2.398-3.598 0 0-2.403 3.598-2.403 3.598 0M258.094 401.242c0 2.399-3.598 2.399-3.598 0 0-2.398 3.598-2.398 3.598 0M278.305 399.512c0 2.402-3.598 2.402-3.598 0 0-2.399 3.598-2.399 3.598 0M298.516 397.785c0 2.399-3.602 2.399-3.602 0 0-2.398 3.602-2.398 3.602 0M318.727 396.055c0 2.402-3.602 2.402-3.602 0 0-2.399 3.602-2.399 3.602 0M338.938 394.328c0 2.399-3.602 2.399-3.602 0 0-2.402 3.601-2.402 3.601 0M359.148 392.598c0 2.402-3.601 2.402-3.601 0 0-2.399 3.601-2.399 3.601 0M379.36 390.871c0 2.399-3.602 2.399-3.602 0 0-2.402 3.601-2.402 3.601 0M399.57 389.14c0 2.403-3.601 2.403-3.601 0 0-2.398 3.601-2.398 3.601 0M419.777 387.414c0 2.399-3.597 2.399-3.597 0 0-2.402 3.597-2.402 3.597 0M439.988 385.684c0 2.402-3.597 2.402-3.597 0 0-2.399 3.597-2.399 3.597 0M460.2 383.957c0 2.398-3.598 2.398-3.598 0 0-2.402 3.597-2.402 3.597 0" fill="#00f" stroke-width=".75" stroke-linecap="round" stroke-linejoin="round" stroke="#00f" stroke-miterlimit="10"/><path d="M81.574 417.914l5.864-.5M101.8 416.441l5.829-.293M122.016 415.535l5.82-.207M142.23 414.875l5.813-.16M162.441 414.352l5.813-.13M182.652 413.922l5.813-.11M202.863 413.559l5.813-.098M223.074 413.238l5.813-.086M243.285 412.957l5.809-.078M263.496 412.703l5.809-.07M283.703 412.473l5.813-.063M303.914 412.262l5.813-.059M324.125 412.066l5.813-.054M344.336 411.887l5.812-.051M364.547 411.719l5.812-.047M384.758 411.559l5.812-.043M404.969 411.41l5.808-.039M425.18 411.273l5.808-.039M445.39 411.14l5.81-.038" fill="none" stroke-width=".75" stroke-linecap="round" stroke-linejoin="round" stroke="#0f0" stroke-miterlimit="10"/><path d="M76.2 418.527c0 2.403-3.598 2.403-3.598 0 0-2.398 3.597-2.398 3.597 0M96.41 416.8c0 2.4-3.601 2.4-3.601 0 0-2.402 3.601-2.402 3.601 0M116.621 415.79c0 2.397-3.601 2.397-3.601 0 0-2.4 3.601-2.4 3.601 0M136.832 415.07c0 2.403-3.602 2.403-3.602 0 0-2.398 3.602-2.398 3.602 0M157.043 414.516c0 2.398-3.602 2.398-3.602 0 0-2.403 3.602-2.403 3.602 0M177.254 414.059c0 2.402-3.602 2.402-3.602 0 0-2.399 3.602-2.399 3.602 0M197.465 413.676c0 2.398-3.602 2.398-3.602 0 0-2.399 3.602-2.399 3.602 0M217.672 413.344c0 2.398-3.598 2.398-3.598 0 0-2.403 3.598-2.403 3.598 0M237.883 413.05c0 2.4-3.598 2.4-3.598 0 0-2.402 3.598-2.402 3.598 0M258.094 412.785c0 2.402-3.598 2.402-3.598 0 0-2.398 3.598-2.398 3.598 0M278.305 412.547c0 2.402-3.598 2.402-3.598 0 0-2.399 3.598-2.399 3.598 0M298.516 412.332c0 2.398-3.602 2.398-3.602 0 0-2.402 3.602-2.402 3.602 0M318.727 412.133c0 2.398-3.602 2.398-3.602 0 0-2.403 3.602-2.403 3.602 0M338.938 411.945c0 2.403-3.602 2.403-3.602 0 0-2.398 3.601-2.398 3.601 0M359.148 411.773c0 2.403-3.601 2.403-3.601 0 0-2.398 3.601-2.398 3.601 0M379.36 411.613c0 2.403-3.602 2.403-3.602 0 0-2.398 3.601-2.398 3.601 0M399.57 411.46c0 2.403-3.601 2.403-3.601 0 0-2.397 3.601-2.397 3.601 0M419.777 411.32c0 2.399-3.597 2.399-3.597 0 0-2.398 3.597-2.398 3.597 0M439.988 411.184c0 2.402-3.597 2.402-3.597 0 0-2.399 3.597-2.399 3.597 0M460.2 411.059c0 2.398-3.598 2.398-3.598 0 0-2.403 3.597-2.403 3.597 0" fill="#0f0" stroke-width=".75" stroke-linecap="round" stroke-linejoin="round" stroke="#0f0" stroke-miterlimit="10"/><path d="M81.375 415.012l6.262-1.61M101.23 408.781l6.97-2.98M121 399.273l7.855-4.703M140.738 386.477l8.797-6.774M160.484 370.379l9.723-9.149M180.266 350.945l10.582-11.765M200.09 328.145l11.36-14.57M219.953 301.965l12.05-17.524M239.86 272.375l12.66-20.578M259.797 239.375l13.207-23.723M279.77 202.945l13.683-26.922M299.766 163.082l14.109-30.172M319.79 119.781l14.487-33.46" fill="none" stroke-width=".75" stroke-linecap="round" stroke-linejoin="round" stroke="red" stroke-miterlimit="10"/><g clip-path="url(#H)"><path d="M339.828 73.035l14.828-36.773" fill="none" stroke-width=".75" stroke-linecap="round" stroke-linejoin="round" stroke="red" stroke-miterlimit="10"/></g><path d="M76.2 416.8c0 2.4-3.598 2.4-3.598 0 0-2.402 3.597-2.402 3.597 0M96.41 411.613c0 2.403-3.601 2.403-3.601 0 0-2.398 3.601-2.398 3.601 0M116.621 402.973c0 2.398-3.601 2.398-3.601 0 0-2.403 3.601-2.403 3.601 0M136.832 390.871c0 2.399-3.602 2.399-3.602 0 0-2.402 3.602-2.402 3.602 0M157.043 375.313c0 2.398-3.602 2.398-3.602 0 0-2.399 3.602-2.399 3.602 0M177.254 356.297c0 2.402-3.602 2.402-3.602 0 0-2.399 3.602-2.399 3.602 0M197.465 333.824c0 2.403-3.602 2.403-3.602 0 0-2.398 3.602-2.398 3.602 0M217.672 307.895c0 2.402-3.598 2.402-3.598 0 0-2.399 3.598-2.399 3.598 0M237.883 278.508c0 2.402-3.598 2.402-3.598 0 0-2.399 3.598-2.399 3.598 0M258.094 245.664c0 2.399-3.598 2.399-3.598 0 0-2.398 3.598-2.398 3.598 0M278.305 209.363c0 2.399-3.598 2.399-3.598 0 0-2.402 3.598-2.402 3.598 0M298.516 169.605c0 2.399-3.602 2.399-3.602 0 0-2.402 3.602-2.402 3.602 0M318.727 126.387c0 2.402-3.602 2.402-3.602 0 0-2.399 3.602-2.399 3.602 0M338.938 79.715c0 2.398-3.602 2.398-3.602 0 0-2.399 3.601-2.399 3.601 0" fill="red" stroke-width=".75" stroke-linecap="round" stroke-linejoin="round" stroke="red" stroke-miterlimit="10"/><path d="M81.496 413.855l6.016-1.027M101.422 409.285l6.586-2.254M120.762 400.633l8.328-5.695M139.281 385.059l11.715-16.032M157.715 356.45l15.265-41.79M176.746 300.813l17.625-96.47" fill="none" stroke-width=".75" stroke-linecap="round" stroke-linejoin="round" stroke="#9400d3" stroke-miterlimit="10"/><g clip-path="url(#I)"><path d="M196.316 190.094L215.22-16.832" fill="none" stroke-width=".75" stroke-linecap="round" stroke-linejoin="round" stroke="#9400d3" stroke-miterlimit="10"/></g><path d="M76.2 415.07c0 2.403-3.598 2.403-3.598 0 0-2.398 3.597-2.398 3.597 0M96.41 411.613c0 2.403-3.601 2.403-3.601 0 0-2.398 3.601-2.398 3.601 0M116.621 404.7c0 2.398-3.601 2.398-3.601 0 0-2.4 3.601-2.4 3.601 0M136.832 390.871c0 2.399-3.602 2.399-3.602 0 0-2.402 3.602-2.402 3.602 0M157.043 363.21c0 2.403-3.602 2.403-3.602 0 0-2.397 3.602-2.397 3.602 0M177.254 307.895c0 2.402-3.602 2.402-3.602 0 0-2.399 3.602-2.399 3.602 0M197.465 197.262c0 2.402-3.602 2.402-3.602 0 0-2.399 3.602-2.399 3.602 0" fill="#9400d3" stroke-width=".75" stroke-linecap="round" stroke-linejoin="round" stroke="#9400d3" stroke-miterlimit="10"/><g clip-path="url(#J)"><path d="M59.04 59.04h89.878v69.12H59.039zm0 0" fill="#fff"/></g><g clip-path="url(#K)"><path d="M59.04 59.04h89.878v69.12H59.039zm0 0" fill="none" stroke-width=".75" stroke-linecap="round" stroke-linejoin="round" stroke="#000" stroke-miterlimit="10"/></g><path d="M67.68 70.559h17.28" fill="none" stroke-width=".75" stroke-linecap="round" stroke-linejoin="round" stroke="#000" stroke-miterlimit="10"/><path d="M67.68 82.078h17.28" fill="none" stroke-width=".75" stroke-linecap="round" stroke-linejoin="round" stroke="#00f" stroke-dasharray="3,3" stroke-miterlimit="10"/><path d="M67.68 93.602h17.28" fill="none" stroke-width=".75" stroke-linecap="round" stroke-linejoin="round" stroke="#0f0" stroke-miterlimit="10"/><path d="M67.68 105.121h17.28" fill="none" stroke-width=".75" stroke-linecap="round" stroke-linejoin="round" stroke="red" stroke-dasharray="3,3" stroke-miterlimit="10"/><path d="M67.68 116.64h17.28" fill="none" stroke-width=".75" stroke-linecap="round" stroke-linejoin="round" stroke="#9400d3" stroke-miterlimit="10"/><g><use xlink:href="#L" x="93.602" y="73.078"/><use xlink:href="#M" x="100.531" y="73.078"/><use xlink:href="#N" x="105.867" y="73.078"/><use xlink:href="#O" x="111.203" y="73.078"/><use xlink:href="#P" x="115.953" y="73.078"/><use xlink:href="#Q" x="118.621" y="73.078"/><use xlink:href="#N" x="123.957" y="73.078"/><use xlink:href="#P" x="129.293" y="73.078"/></g><g><use xlink:href="#R" x="93.602" y="84.598"/><use xlink:href="#S" x="98.938" y="84.598"/><use xlink:href="#N" x="101.068" y="84.598"/><use xlink:href="#T" x="106.404" y="84.598"/><use xlink:href="#Q" x="111.74" y="84.598"/><use xlink:href="#U" x="117.076" y="84.598"/></g><g><use xlink:href="#R" x="93.602" y="96.121"/><use xlink:href="#M" x="98.938" y="96.121"/><use xlink:href="#V" x="104.273" y="96.121"/><use xlink:href="#Q" x="109.561" y="96.121"/><use xlink:href="#U" x="114.896" y="96.121"/><use xlink:href="#S" x="118.093" y="96.121"/><use xlink:href="#P" x="120.224" y="96.121"/><use xlink:href="#W" x="122.843" y="96.121"/><use xlink:href="#X" x="128.179" y="96.121"/><use xlink:href="#S" x="136.174" y="96.121"/><use xlink:href="#Y" x="138.305" y="96.121"/></g><g><use xlink:href="#Z" x="93.602" y="107.641"/><use xlink:href="#aa" x="101.068" y="107.641"/><use xlink:href="#Q" x="106.404" y="107.641"/><use xlink:href="#ab" x="111.74" y="107.641"/><use xlink:href="#U" x="117.076" y="107.641"/><use xlink:href="#Q" x="120.224" y="107.641"/><use xlink:href="#P" x="125.56" y="107.641"/><use xlink:href="#S" x="128.228" y="107.641"/><use xlink:href="#Y" x="130.358" y="107.641"/></g><g><use xlink:href="#ac" x="93.602" y="119.16"/><use xlink:href="#ad" x="100.003" y="119.16"/><use xlink:href="#ae" x="104.802" y="119.16"/><use xlink:href="#M" x="110.138" y="119.16"/><use xlink:href="#N" x="115.474" y="119.16"/><use xlink:href="#T" x="120.81" y="119.16"/><use xlink:href="#N" x="126.146" y="119.16"/><use xlink:href="#P" x="131.481" y="119.16"/><use xlink:href="#S" x="134.149" y="119.16"/><use xlink:href="#Q" x="136.28" y="119.16"/><use xlink:href="#af" x="141.616" y="119.16"/></g></svg>