<svg xmlns="http://www.w3.org/2000/svg" xmlns:xlink="http://www.w3.org/1999/xlink" width="672" height="672" viewBox="0 0 504 504"><defs><symbol overflow="visible" id="a"><path d="M6.156-2.813c0-1.687-1.11-2.796-2.75-2.796-.594 0-1.078.156-1.562.515l.328-2.187h3.547v-1.047H1.312L.688-3.875h.97c.484-.594.905-.797 1.562-.797 1.14 0 1.86.734 1.86 2 0 1.219-.704 1.922-1.86 1.922-.922 0-1.485-.469-1.75-1.438H.422C.766-.484 1.734.188 3.234.188c1.72 0 2.922-1.204 2.922-3zm0 0"/></symbol><symbol overflow="visible" id="b"><path d="M4.156 0v-8.516H3.47c-.375 1.313-.61 1.5-2.25 1.704v.75h1.89V0zm0 0"/></symbol><symbol overflow="visible" id="c"><path d="M6.078-4.094c0-2.953-.937-4.422-2.781-4.422-1.828 0-2.781 1.5-2.781 4.36 0 2.86.953 4.343 2.78 4.343 1.798 0 2.782-1.484 2.782-4.28zM5-4.187C5-1.781 4.453-.704 3.281-.704c-1.125 0-1.687-1.125-1.687-3.453s.562-3.422 1.703-3.422C4.437-7.578 5-6.468 5-4.188zm0 0"/></symbol><symbol overflow="visible" id="d"><path d="M6.125-6.016c0-1.437-1.11-2.5-2.719-2.5-1.734 0-2.75.891-2.812 2.954h1.062c.078-1.422.672-2.016 1.719-2.016.953 0 1.672.672 1.672 1.594 0 .671-.39 1.25-1.14 1.671l-1.11.625C1.016-2.671.5-1.875.407 0h5.671v-1.047H1.594c.11-.687.5-1.14 1.531-1.75l1.203-.64c1.188-.641 1.797-1.532 1.797-2.579zm0 0"/></symbol><symbol overflow="visible" id="i"><path d="M2.313 0v-8.75h-1.11V0zm0 0"/></symbol><symbol overflow="visible" id="j"><path d="M5.844 0v-4.75c0-1.047-.782-1.719-1.985-1.719-.937 0-1.546.36-2.093 1.235v-1.047H.844V0h1v-3.469c0-1.281.687-2.125 1.703-2.125.797 0 1.297.485 1.297 1.235V0zm0 0"/></symbol><symbol overflow="visible" id="k"><path d="M6.281-3.078c0-2.125-1.031-3.39-2.703-3.39-.86 0-1.531.39-2 1.124v-.937H.656v8.89h1V-.75c.532.64 1.11.938 1.938.938 1.61 0 2.687-1.266 2.687-3.266zM5.234-3.11C5.234-1.688 4.5-.75 3.406-.75c-1.047 0-1.75-.875-1.75-2.344 0-1.484.703-2.437 1.75-2.437 1.11 0 1.828.922 1.828 2.422zm0 0"/></symbol><symbol overflow="visible" id="l"><path d="M5.781 0v-6.281h-1v3.468c0 1.282-.672 2.11-1.703 2.11-.797 0-1.297-.469-1.297-1.235V-6.28h-1v4.75c0 1.047.781 1.718 2 1.718.922 0 1.516-.328 2.11-1.156V0zm0 0"/></symbol><symbol overflow="visible" id="m"><path d="M3.047 0v-.844c-.125.047-.281.047-.485.047-.421 0-.546-.11-.546-.562v-4.11h1.03v-.812h-1.03v-1.735h-1v1.735H.172v.812h.844v4.563c0 .625.437.984 1.218.984.235 0 .485-.015.813-.078zm0 0"/></symbol><symbol overflow="visible" id="o"><path d="M7.453-2.406c0-1.078-.672-1.86-1.86-2.188l-2.202-.593c-1.047-.266-1.438-.625-1.438-1.297 0-.891.781-1.547 1.953-1.547 1.39 0 2.188.64 2.188 1.781h1.062c0-1.719-1.187-2.719-3.203-2.719-1.922 0-3.11 1.063-3.11 2.64 0 1.079.563 1.75 1.72 2.048l2.171.578c1.094.281 1.61.734 1.61 1.406 0 .969-.735 1.531-2.235 1.531-1.656 0-2.484-.828-2.484-2.078H.578C.578-.78 1.968.22 4.031.22c2.219 0 3.422-1.063 3.422-2.625zm0 0"/></symbol><symbol overflow="visible" id="p"><path d="M1.844 0v-6.281h-1V0zm.125-7.234v-1.25H.719v1.25zm0 0"/></symbol><symbol overflow="visible" id="q"><path d="M5.484 0v-.875H1.578l3.734-4.531v-.875H.625v.875h3.5l-3.75 4.5V0zm0 0"/></symbol><symbol overflow="visible" id="r"><path d="M6.156-2.86c0-.906-.078-1.484-.25-1.953C5.5-5.843 4.531-6.468 3.36-6.468c-1.75 0-2.875 1.297-2.875 3.36 0 2.062 1.094 3.296 2.86 3.296C4.78.188 5.766-.64 6.03-1.905H5.016C4.734-1.078 4.172-.75 3.375-.75c-1.047 0-1.828-.672-1.844-2.11zm-1.062-.89s0 .047-.016.078H1.547c.078-1.11.797-1.875 1.797-1.875.984 0 1.75.813 1.75 1.797zm0 0"/></symbol><symbol overflow="visible" id="e"><path d="M-2.813-6.156c-1.687 0-2.796 1.11-2.796 2.75 0 .594.156 1.078.515 1.562l-2.187-.328v-3.547h-1.047v4.407l4.453.625v-.97c-.594-.484-.797-.905-.797-1.562 0-1.14.734-1.86 2-1.86 1.219 0 1.922.704 1.922 1.86 0 .922-.469 1.485-1.438 1.75v1.047C-.484-.766.188-1.734.188-3.234c0-1.72-1.204-2.922-3-2.922zm0 0"/></symbol><symbol overflow="visible" id="f"><path d="M0-4.156h-8.516v.687c1.313.375 1.5.61 1.704 2.25h.75v-1.89H0zm0 0"/></symbol><symbol overflow="visible" id="g"><path d="M-4.094-6.078c-2.953 0-4.422.937-4.422 2.781 0 1.828 1.5 2.781 4.36 2.781 2.86 0 4.343-.953 4.343-2.78 0-1.798-1.484-2.782-4.28-2.782zM-4.187-5c2.406 0 3.484.547 3.484 1.719 0 1.125-1.125 1.687-3.453 1.687s-3.422-.562-3.422-1.703c0-1.14 1.11-1.703 3.39-1.703zm0 0"/></symbol><symbol overflow="visible" id="h"><path d="M-6.016-6.125c-1.437 0-2.5 1.11-2.5 2.719 0 1.734.891 2.75 2.954 2.812v-1.062c-1.422-.078-2.016-.672-2.016-1.719 0-.953.672-1.672 1.594-1.672.671 0 1.25.39 1.671 1.14l.625 1.11C-2.671-1.016-1.875-.5 0-.407v-5.671h-1.047v4.484c-.687-.11-1.14-.5-1.75-1.531l-.64-1.203c-.641-1.188-1.532-1.797-2.579-1.797zm0 0"/></symbol><symbol overflow="visible" id="s"><path d="M0-8.14h-.281c-.281.406-.594.515-1.766.515-1.437.031-1.86.25-2.265 1.188-.485-.985-1.094-1.375-2.094-1.375-1.516 0-2.344.953-2.344 2.671v4.032H0v-1.125h-3.766V-5.11c0-.985.485-1.454 1.563-1.438h.781C-.89-6.53-.359-6.64 0-6.797zm-6.25 1.5c1.031 0 1.5.515 1.5 1.702v2.704h-3.016v-2.704c0-1.25.532-1.703 1.516-1.703zm0 0"/></symbol><symbol overflow="visible" id="t"><path d="M0-5.781h-6.281v1h3.468c1.282 0 2.11.672 2.11 1.703 0 .797-.469 1.297-1.235 1.297H-6.28v1h4.75c1.047 0 1.718-.781 1.718-2 0-.922-.328-1.516-1.156-2.11H0zm0 0"/></symbol><symbol overflow="visible" id="u"><path d="M0-5.844h-4.75c-1.047 0-1.719.782-1.719 1.985 0 .937.36 1.546 1.235 2.093h-1.047v.922H0v-1h-3.469c-1.281 0-2.125-.687-2.125-1.703 0-.797.485-1.297 1.235-1.297H0zm0 0"/></symbol><symbol overflow="visible" id="v"><path d="M0-3.047h-.844c.047.125.047.281.047.485 0 .421-.11.546-.562.546h-4.11v-1.03h-.812v1.03h-1.735v1h1.735v.844h.812v-.844h4.563c.625 0 .984-.437.984-1.218 0-.235-.015-.485-.078-.813zm0 0"/></symbol><symbol overflow="visible" id="w"><path d="M0-1.844h-6.281v1H0zm-7.234-.125h-1.25v1.25h1.25zm0 0"/></symbol><symbol overflow="visible" id="x"><path d="M0-9.125h-4.719c-1.125 0-1.75.625-1.75 1.813 0 .828.25 1.343.953 1.921-.671.375-.953.875-.953 1.688 0 .844.313 1.406 1.063 1.937h-.875v.907H0v-.985h-3.953c-.906 0-1.64-.672-1.64-1.484 0-.735.452-1.156 1.265-1.156H0v-1h-3.953c-.906 0-1.64-.672-1.64-1.485 0-.734.468-1.156 1.265-1.156H0zm0 0"/></symbol><symbol overflow="visible" id="y"><path d="M-2.86-6.156c-.906 0-1.484.078-1.953.25-1.03.406-1.656 1.375-1.656 2.547 0 1.75 1.297 2.875 3.36 2.875 2.062 0 3.296-1.094 3.296-2.86 0-1.437-.828-2.422-2.093-2.687v1.015c.828.282 1.156.844 1.156 1.641 0 1.047-.672 1.828-2.11 1.844zm-.89 1.062s.047 0 .078.016v3.531c-1.11-.078-1.875-.797-1.875-1.797 0-.984.813-1.75 1.797-1.75zm0 0"/></symbol><symbol overflow="visible" id="A"><path d="M-8.75-3.406v.656L.234.094v-.656zm0 0"/></symbol><symbol overflow="visible" id="B"><path d="M-3.188-8.125v1.156c1.657.266 2.422.953 2.422 2.438 0 1.734-1.328 2.843-3.515 2.843-2.25 0-3.703-1.062-3.703-2.75 0-1.375.609-2.093 1.953-2.359v-1.14c-1.922.343-2.938 1.453-2.938 3.359 0 2.656 2.14 4 4.703 4C-1.719-.578.22-1.953.22-4.531c0-2.125-1.125-3.328-3.406-3.594zm0 0"/></symbol><symbol overflow="visible" id="C"><path d="M-3.094-6.125c-2.172 0-3.375 1.047-3.375 2.86C-6.469-1.5-5.25-.438-3.14-.438c2.11 0 3.329-1.047 3.329-2.844 0-1.766-1.22-2.844-3.282-2.844zm-.015 1.047c1.484 0 2.359.703 2.359 1.797 0 1.125-.875 1.812-2.39 1.812-1.516 0-2.407-.687-2.407-1.812s.875-1.797 2.438-1.797zm0 0"/></symbol><symbol overflow="visible" id="D"><path d="M-3.078-6.281c-2.125 0-3.39 1.031-3.39 2.703 0 .86.39 1.531 1.124 2h-.937v.922h8.89v-1H-.75c.64-.532.938-1.11.938-1.938 0-1.61-1.266-2.687-3.266-2.687zm-.031 1.047c1.421 0 2.359.734 2.359 1.828 0 1.047-.875 1.75-2.344 1.75-1.484 0-2.437-.703-2.437-1.75 0-1.11.922-1.828 2.422-1.828zm0 0"/></symbol><symbol overflow="visible" id="E"><path d="M0-1.813h-8.75v1H0zm0 0"/></symbol><symbol overflow="visible" id="F"><path d="M0-5.672L-3.25-3.5l-3.031-2.11v1.126l2.265 1.515-2.265 1.5v1.14l3.078-2.093L0-.203v-1.14l-2.406-1.595L0-4.516zm0 0"/></symbol><symbol overflow="visible" id="G"><path d="M-6.281-5.734v1.078l4.89 1.734-4.89 1.61v1.078L.03-2.36l.985.375c.453.171.609.375.609.812 0 .14-.016.313-.063.531h.891c.11-.218.156-.421.156-.671 0-.72-.39-1.297-1.296-1.625zm0 0"/></symbol></defs><path fill="#fff" d="M0 0h504v504H0z"/><path d="M79.762 411.996l9.484-8.496M99.973 393.89l9.484-8.495M120.184 375.785l9.484-8.496M140.395 357.68l9.484-8.496M160.605 339.574l9.485-8.496M180.816 321.469l9.485-8.496M201.027 303.363l9.485-8.496M221.238 285.258l9.485-8.496M241.445 267.152l9.489-8.496M261.656 249.047l9.485-8.496M281.867 230.941l9.485-8.496M302.078 212.84l9.485-8.5M322.29 194.734l9.483-8.5M342.5 176.629l9.484-8.5M362.71 158.523l9.485-8.5M382.922 140.418l9.484-8.496M403.133 122.313l9.484-8.497M423.34 104.207l9.488-8.496M443.55 86.102l9.49-8.497" fill="none" stroke-width=".75" stroke-linecap="round" stroke-linejoin="round" stroke="#000" stroke-miterlimit="10"/><path d="M76.2 416.8c0 2.4-3.598 2.4-3.598 0 0-2.402 3.597-2.402 3.597 0M96.41 398.695c0 2.399-3.601 2.399-3.601 0 0-2.402 3.601-2.402 3.601 0M116.621 380.59c0 2.398-3.601 2.398-3.601 0 0-2.399 3.601-2.399 3.601 0M136.832 362.484c0 2.399-3.602 2.399-3.602 0 0-2.398 3.602-2.398 3.602 0M157.043 344.379c0 2.398-3.602 2.398-3.602 0 0-2.399 3.602-2.399 3.602 0M177.254 326.273c0 2.399-3.602 2.399-3.602 0 0-2.398 3.602-2.398 3.602 0M197.465 308.168c0 2.402-3.602 2.402-3.602 0 0-2.398 3.602-2.398 3.602 0M217.672 290.063c0 2.402-3.598 2.402-3.598 0 0-2.399 3.598-2.399 3.598 0M237.883 271.957c0 2.402-3.598 2.402-3.598 0 0-2.398 3.598-2.398 3.598 0M258.094 253.852c0 2.402-3.598 2.402-3.598 0 0-2.399 3.598-2.399 3.598 0M278.305 235.746c0 2.402-3.598 2.402-3.598 0 0-2.398 3.598-2.398 3.598 0M298.516 217.64c0 2.403-3.602 2.403-3.602 0 0-2.398 3.602-2.398 3.602 0M318.727 199.535c0 2.403-3.602 2.403-3.602 0 0-2.398 3.602-2.398 3.602 0M338.938 181.43c0 2.402-3.602 2.402-3.602 0 0-2.399 3.601-2.399 3.601 0M359.148 163.328c0 2.399-3.601 2.399-3.601 0 0-2.402 3.601-2.402 3.601 0M379.36 145.223c0 2.398-3.602 2.398-3.602 0 0-2.403 3.601-2.403 3.601 0M399.57 127.117c0 2.399-3.601 2.399-3.601 0 0-2.402 3.601-2.402 3.601 0M419.777 109.012c0 2.398-3.597 2.398-3.597 0 0-2.403 3.597-2.403 3.597 0M439.988 90.906c0 2.399-3.597 2.399-3.597 0 0-2.402 3.597-2.402 3.597 0M460.2 72.8c0 2.4-3.598 2.4-3.598 0 0-2.402 3.597-2.402 3.597 0" stroke-width=".75" stroke-linecap="round" stroke-linejoin="round" stroke="#000" stroke-miterlimit="10"/><path d="M155.242 430.559h303.156M155.242 430.559v7.203M256.293 430.559v7.203M357.348 430.559v7.203M458.398 430.559v7.203" fill="none" stroke-width=".75" stroke-linecap="round" stroke-linejoin="round" stroke="#000" stroke-miterlimit="10"/><use xlink:href="#a" x="151.742" y="456.257"/><use xlink:href="#b" x="249.293" y="456.257"/><use xlink:href="#c" x="255.965" y="456.257"/><use xlink:href="#b" x="350.348" y="456.257"/><use xlink:href="#a" x="357.02" y="456.257"/><use xlink:href="#d" x="451.398" y="456.257"/><use xlink:href="#c" x="458.07" y="456.257"/><path d="M59.04 344.379V72.8M59.04 344.379h-7.2M59.04 253.852h-7.2M59.04 163.328h-7.2M59.04 72.8h-7.2" fill="none" stroke-width=".75" stroke-linecap="round" stroke-linejoin="round" stroke="#000" stroke-miterlimit="10"/><use xlink:href="#e" x="41.538" y="347.879"/><use xlink:href="#f" x="41.538" y="260.852"/><use xlink:href="#g" x="41.538" y="254.18"/><use xlink:href="#f" x="41.538" y="170.328"/><use xlink:href="#e" x="41.538" y="163.656"/><g><use xlink:href="#h" x="41.538" y="79.801"/><use xlink:href="#g" x="41.538" y="73.129"/></g><path d="M59.04 430.559h414.722V59.039H59.039zm0 0" fill="none" stroke-width=".75" stroke-linecap="round" stroke-linejoin="round" stroke="#000" stroke-miterlimit="10"/><g><use xlink:href="#i" x="239.398" y="485.058"/><use xlink:href="#j" x="242.734" y="485.058"/><use xlink:href="#k" x="249.466" y="485.058"/><use xlink:href="#l" x="256.138" y="485.058"/><use xlink:href="#m" x="262.81" y="485.058"/><use xlink:href="#n" x="266.146" y="485.058"/><use xlink:href="#o" x="269.481" y="485.058"/><use xlink:href="#p" x="277.485" y="485.058"/><use xlink:href="#q" x="280.148" y="485.058"/><use xlink:href="#r" x="286.147" y="485.058"/></g><g><use xlink:href="#s" x="12.737" y="301.801"/><use xlink:href="#t" x="12.737" y="293.258"/><use xlink:href="#u" x="12.737" y="286.586"/><use xlink:href="#v" x="12.737" y="279.914"/><use xlink:href="#w" x="12.737" y="276.578"/><use xlink:href="#x" x="12.737" y="273.915"/><use xlink:href="#y" x="12.737" y="263.92"/><use xlink:href="#z" x="12.737" y="257.248"/><use xlink:href="#A" x="12.737" y="253.912"/><use xlink:href="#z" x="12.737" y="250.576"/><use xlink:href="#B" x="12.737" y="247.24"/><use xlink:href="#C" x="12.737" y="238.577"/><use xlink:href="#x" x="12.737" y="231.905"/><use xlink:href="#D" x="12.737" y="221.851"/><use xlink:href="#E" x="12.737" y="215.179"/><use xlink:href="#y" x="12.737" y="212.516"/><use xlink:href="#F" x="12.737" y="206.145"/><use xlink:href="#w" x="12.737" y="200.146"/><use xlink:href="#v" x="12.737" y="197.482"/><use xlink:href="#G" x="12.737" y="194.146"/></g></svg>