<svg viewBox="0 0 50 50" xmlns="http://www.w3.org/2000/svg"><g fill="#47848F" fill-rule="nonzero"><path d="M18.2755362 10.7226076c-6.5013697-1.1841166-11.6417452.0552207-13.690455 3.6036899-1.528793 2.6479473-1.0917999 6.1586841 1.0597956 9.9114462.1831325.3194154.5905282.4298945.9099436.246762s.4298946-.5905282.246762-.9099436c-1.9381818-3.380531-2.3153236-6.4104322-1.0618006-8.5815979 1.7018719-2.9477286 6.2869978-4.0531959 12.2968403-2.9586029.3622308.0659743.7093596-.174189.7753339-.5364198.0659743-.3622308-.174189-.7093596-.5364198-.7753339zM9.0258054 28.7992001c2.6287913 2.8888468 6.0440302 5.5984399 9.9389181 7.8471546 9.4308547 5.4449063 19.4706655 6.900264 24.4187008 3.5264113.304203-.207423.3826587-.6221777.175236-.9263807-.207423-.304203-.622178-.382659-.926381-.175236-4.428433 3.0195584-13.9655264 1.637074-23.0008891-3.5794953-3.7784791-2.1815057-7.0855523-4.8052821-9.6194343-7.5898306-.2478037-.272318-.6694457-.2921907-.9417636-.0443869-.272318.2478037-.2921906.6694456-.0443869.9417636z"/><path d="M41.8050083 27.9881861c4.2569397-5.0289095 5.7433157-10.0868613 3.6988247-13.6280237-1.504375-2.6056542-4.6846667-3.9813302-8.911224-4.0364107-.3681587-.0046742-.6704917.289896-.6753935.6580547-.0046742.3681587.2898962.6704917.6580548.6752796 3.8012554.0494357 6.541142 1.2346089 7.773862 3.369743 1.6981944 2.9413587.3726777 7.4519261-3.561802 12.0998993-.237885.281024-.202914.7016829.07811.9395679s.701683.2029139.939568-.0781101zm-10.940285-17.0435867c-3.8489751.8246597-7.9458619 2.4370356-11.8804479 4.7086699C9.2486989 21.274107 2.8979615 29.5622337 3.7799728 35.5718767c.053465.3642873.3921202.6162586.7564075.5627936.3642873-.053465.6162586-.3921203.5627936-.7564076-.783133-5.335929 5.2367437-13.192261 14.5517682-18.5702929 3.816861-2.2036657 7.7837415-3.7648762 11.4931142-4.5596255.3600193-.0771357.5893417-.4315198.512206-.791539-.0771357-.3600192-.4315198-.5893416-.791539-.5122059z"/><path d="M15.0927179 39.7383237c2.2257266 6.2150293 5.8670136 10.0415846 9.9615152 10.0415846 2.9861967 0 5.749014-2.0355986 7.9034429-5.619421.1896998-.3155593.0876704-.725153-.227889-.9148526-.3155594-.1896997-.7251529-.0876704-.9148527.227889-1.9361819 3.2207756-4.3144591 4.9730513-6.7607012 4.9730513-3.4012 0-6.6489067-3.4129497-8.7062484-9.1577877-.124136-.3466323-.5057691-.5270013-.8524015-.4028653-.3466324.124136-.5270013.5057693-.4028653.8524017zm20.3303824-1.215729c1.152216-3.6820464 1.771048-7.9296255 1.771048-12.3558503 0-11.0446923-3.865591-20.5656323-9.3716145-23.0104741-.3365078-.1494197-.7304299.0022452-.8798496.338753-.1494197.3365078.0022452.7304299.338753.8798496 4.9107073 2.1805033 8.5793778 11.2164284 8.5793778 21.7918715 0 4.2941588-.599291 8.4076109-1.7101994 11.9576539-.1099588.351387.0857573.7253817.4371443.8353404.3513869.109959.7253818-.085757.8353404-.437144zM47.9790023 37.869458c0-1.7622197-1.4285616-3.1907813-3.1907813-3.1907813-1.76222 0-3.1907817 1.4285616-3.1907817 3.1907813 0 1.76222 1.4285617 3.1907813 3.1907817 3.1907813 1.7622197 0 3.1907813-1.4285613 3.1907813-3.1907813zm-1.3333333 0c0 1.0258403-.831608 1.857448-1.857448 1.857448-1.0258403 0-1.8574483-.8316077-1.8574483-1.857448 0-1.02584.831608-1.857448 1.8574483-1.857448 1.02584 0 1.857448.831608 1.857448 1.857448zM5.274353 41.0602393c1.76222 0 3.1907814-1.4285613 3.1907814-3.1907813 0-1.7622197-1.4285614-3.1907813-3.1907813-3.1907813-1.76222 0-3.1907814 1.4285616-3.1907814 3.1907813 0 1.76222 1.4285615 3.1907813 3.1907814 3.1907813zm0-1.3333333c-1.0258402 0-1.857448-.8316077-1.857448-1.857448 0-1.02584.8316078-1.857448 1.857448-1.857448 1.0258403 0 1.8574481.831608 1.8574481 1.857448 0 1.0258403-.8316078 1.857448-1.857448 1.857448z"/><path d="M25.0542331 6.4110284c1.7622199 0 3.1907814-1.4285615 3.1907814-3.1907814S26.816453.0294656 25.0542331.0294656s-3.1907814 1.4285615-3.1907814 3.1907814 1.4285615 3.1907814 3.1907814 3.1907814zm0-1.3333333c-1.0258402 0-1.857448-.8316079-1.857448-1.857448 0-1.0258403.8316078-1.8574481 1.857448-1.8574481s1.857448.8316078 1.857448 1.857448-.8316078 1.857448-1.857448 1.857448zM25.5416011 28.4232267c-1.2462822.2692813-2.4741206-.5227535-2.7439288-1.7690357-.2687543-1.2462823.5227535-2.4741206 1.7690357-2.7439289 1.2462823-.2692813 2.4741206.5227535 2.7439289 1.7690358.2692813 1.2462822-.5227535 2.4741205-1.7690358 2.7439288z"/></g></svg>