<svg viewBox="0 0 50 50" xmlns="http://www.w3.org/2000/svg"><g fill-rule="nonzero" fill="none"><path d="M31.5397959 15.981h1.5122449l4.3112245-4.225.2112245-1.793c-8.0234694-6.94-20.2683674-6.193-27.3510204 1.67C8.2563721 13.8175012 6.8283969 16.4161718 6.05 19.228c.4795918-.193 1.0122449-.224 1.5122449-.089l8.622449-1.394s.4387755-.711.6663265-.667c3.8353897-4.1280348 10.2900565-4.6091187 14.7183674-1.097h-.0306123.0010204z" fill="#EA4335"/><path d="M43.505102 19.228c-.991146-3.5759727-3.0256823-6.7907316-5.8540816-9.25L31.6 15.908c2.5550996 2.0455635 4.0107839 5.1272511 3.9489796 8.36v1.053c2.9741661 0 5.3852041 2.3628172 5.3852041 5.2775s-2.411038 5.2775-5.3852041 5.2775H24.777551l-1.0744898 1.068v6.33l1.0744898 1.052h10.7693878c7.7367347.059 14.0561224-6.039 14.1163265-13.62.036579-4.5950884-2.2752762-8.903366-6.1591837-11.478h.0010204z" fill="#4285F4"/><path d="M13.9918367 44.267h10.7704082v-8.45H13.9918367c-.7676595-.0003114-1.5262851-.1623023-2.2244898-.475l-1.5112245.46-4.3418367 4.225-.377551 1.483c2.4344848 1.8011436 5.4047854 2.7696853 8.455102 2.757z" fill="#34A853"/><path d="M13.9918367 16.8559124C6.2561224 16.901.022449 23.084.0683673 30.666c.0257869 4.2330039 2.0432634 8.2175163 5.467347 10.798l6.2469388-6.122c-2.1829577-.966556-3.4521422-3.2298896-3.114432-5.5539585.3377102-2.324069 2.2011386-4.1502289 4.5726375-4.4811849 2.371499-.330956 4.681023.9128449 5.6673047 3.0521434l6.2469387-6.122c-2.6580319-3.4053613-6.7883903-5.3963073-11.1632653-5.3810876z" fill="#FBBC05"/></g></svg>