<svg viewBox="0 0 50 50" xmlns="http://www.w3.org/2000/svg"><g fill-rule="nonzero" fill="none"><path d="M45.3394523 11.6818182c-.2840909-.909091-.9659091-1.6477273-1.8181818-2.1022728L26.191725 1.284091C25.7371795 1.0568182 25.2258159 1 24.7712705 1c-.4545455 0-.9659091 0-1.4204546.1136364L6.0212705 9.465909c-.8522729.3977273-1.4772729 1.1363636-1.7045456 2.1022727L.0553613 30.2613636c-.1704546.9659091.0568182 1.9318182.625 2.7272728l11.9886364 14.8295454c.6818182.6818182 1.6477273 1.1363637 2.6136364 1.1931818h19.0909091c1.0227273.1136364 1.9886363-.3409091 2.6136363-1.1931818l11.9886364-14.8295454c.5681818-.7954546.7954546-1.7613637.6818182-2.7272728l-4.3181818-18.5795454z" fill="#326DE6"/><path d="M42.6689977 29.5227273c-.0568182 0-.1136363 0-.1136363-.0568182s-.1136364-.0568182-.2272728-.0568182c-.2272727-.0568182-.4545454-.0568182-.6818181-.0568182-.1136364 0-.2272728 0-.3409091-.0568182h-.0568182c-.625-.0568181-1.3068182-.1704545-1.9318182-.340909-.1704545-.0568182-.3409091-.2272728-.3977273-.3977273.0568182 0 0 0 0 0l-.4545454-.1136364c.2272727-1.6477273.1136363-3.3522727-.2272728-5-.3977272-1.6477273-1.0795454-3.2386363-1.9886363-4.6590909l.3409091-.3409091v-.0568182c0-.1704545.0568182-.3977272.1704545-.5113636.5113637-.4545455 1.0227273-.7954545 1.5909091-1.1363636l.3409091-.1704546c.2272727-.1136363.3977273-.2272727.625-.3409091.0568182-.0568182.1136364-.0568182.1704545-.1136363.0568182-.0568182 0-.0568182 0-.1136364.5113637-.3977273.625-1.0795455.2272728-1.5909091-.1704546-.2272727-.5113637-.3977273-.7954546-.3977273-.2840909 0-.5681818.1136364-.7954545.2840909l-.0568182.0568182c-.0568182.0568182-.1136364.1136364-.1704545.1136364-.1704546.1704545-.3409091.3409091-.4545455.5113636-.0568182.1136364-.1704545.1704546-.2272727.2272728-.3977273.4545454-.9090909.9090909-1.4204546 1.25-.1136363.0568181-.2272727.1136363-.3409091.1136363-.0568181 0-.1704545 0-.2272727-.0568182h-.0568182l-.4545454.2840909c-.4545455-.4545454-.9659091-.9090909-1.4204546-1.3636363-2.1022727-1.6477273-4.7159091-2.6704546-7.3863636-2.9545455l-.0568182-.4545454v.0568182c-.1704545-.1136364-.2272727-.284091-.2840909-.4545455 0-.625 0-1.25.1136364-1.9318182v-.0568182c0-.1136363.0568181-.2272727.0568181-.340909.0568182-.2272728.0568182-.4545455.1136364-.6818182v-.3409091c.0568182-.5681818-.3977273-1.1363637-.9659091-1.1931818-.3409091-.0568182-.6818182.1136363-.9659091.3977272-.2272727.2272728-.3409091.5113637-.3409091.7954546v.2840909c0 .2272727.0568182.4545454.1136364.6818182.0568182.1136363.0568182.2272727.0568182.340909v.0568182c.1136363.625.1136363 1.25.1136363 1.9318182-.0568181.1704546-.1136363.3409091-.2840909.4545455v.1136363l-.0568181.4545455c-.625.0568182-1.25.1704545-1.9318182.2840909-2.6704546.5681818-5.1136364 1.9886364-6.9886364 3.9772727L14.2599068 16.625h-.0568182c-.0568181 0-.1136363.0568182-.2272727.0568182s-.2272727-.0568182-.3409091-.1136364c-.5113636-.3977273-1.0227273-.8522727-1.4204545-1.3068182-.0568182-.1136363-.1704546-.1704545-.2272728-.2272727-.1704545-.1704545-.2840909-.3409091-.4545454-.5113636-.0568182-.0568182-.1136364-.0568182-.1704546-.1136364l-.0568181-.0568182c-.2272728-.1704545-.5113637-.2840909-.7954546-.2840909-.3409091 0-.625.1136364-.7954545.3977273-.3409091.5113636-.2272727 1.1931818.2272727 1.5909091.0568182 0 .0568182.0568182.0568182.0568182s.1136363.1136363.1704545.1136363c.1704546.1136364.3977273.2272728.625.3409091l.3409091.1704546c.5681818.3409091 1.1363637.6818181 1.5909091 1.1363636.1136364.1136364.2272727.3409091.1704546.5113636v-.0568181l.340909.340909c-.0568181.1136364-.1136363.1704546-.1704545.284091-1.7613636 2.7840909-2.5 6.0795454-1.9886364 9.3181818l-.4545454.1136363c0 .0568182-.0568182.0568182-.0568182.0568182-.0568182.1704546-.2272727.2840909-.3977273.3977273-.625.1704545-1.25.2840909-1.9318181.3409091-.1136364 0-.2272728 0-.3409091.0568182-.2272728 0-.4545455.0568181-.6818182.0568181-.0568182 0-.1136364.0568182-.2272728.0568182-.0568181 0-.0568181 0-.1136363.0568182-.625.1136364-1.0227273.6818182-.909091 1.3068182.1136364.5113636.625.8522727 1.1363637.7954545.1136364 0 .1704546 0 .284091-.0568181.0568181 0 .0568181 0 .0568181-.0568182s.1704545 0 .2272727 0c.2272728-.0568182.4545455-.1704546.625-.2272728.1136364-.0568181.2272728-.1136363.3409091-.1136363h.0568182c.625-.2272727 1.1931818-.3977273 1.875-.5113637h.0568182c.1704545 0 .3409091.0568182.4545454.1704546.0568182 0 .0568182.0568182.0568182.0568182l.5113637-.0568182c.8522727 2.6136364 2.4431818 4.9431818 4.6590909 6.6477273.5113636.3977272.9659091.7386363 1.5340909 1.0227272l-.2840909.3977273c0 .0568182.0568181.0568182.0568181.0568182.1136364.1704545.1136364.3977273.0568182.5681818-.2272727.5681818-.5681818 1.1363636-.9090909 1.6477273v.0568182c-.0568182.1136363-.1136363.1704545-.2272727.2840909-.1136364.1136363-.2272727.3409091-.3977273.5681818-.0568182.0568182-.0568182.1136364-.1136363.1704545 0 0 0 .0568182-.0568182.0568182-.2840909.5681818-.0568182 1.25.4545454 1.5340909.1136364.0568182.2840909.1136364.3977273.1136364.4545455 0 .8522727-.2840909 1.0795455-.6818182 0 0 0-.0568182.0568181-.0568182 0-.0568182.0568182-.1136363.1136364-.1704545.0568182-.2272727.1704545-.3977273.2272727-.625l.1136364-.3409091c.1704545-.625.4545454-1.1931818.7386364-1.7613636.1136363-.1704546.2840909-.284091.4545454-.3409091.0568182 0 .0568182 0 .0568182-.0568182l.2272727-.4545455c1.5909091.625 3.2386364.9090909 4.9431818.9090909 1.0227273 0 2.0454546-.1136363 3.0681819-.3977272.625-.1136364 1.25-.3409091 1.8181818-.5113637L29.941725 39.75c.0568182 0 .0568182 0 .0568182.0568182.1704545.0568182.3409091.1704545.4545454.3409091.2840909.5681818.5681819 1.1363636.7386364 1.7613636v.0568182l.1136364.3409091c.0568181.2272727.1136363.4545454.2272727.625.0568182.0568182.0568182.1136363.1136364.1704545 0 0 0 .0568182.0568181.0568182.2272728.3977273.625.6818182 1.0795455.6818182.1704545 0 .2840909-.0568182.4545454-.1136364.2272728-.1136363.4545455-.3409091.5113637-.625.0568182-.2840909.0568182-.5681818-.0568182-.8522727 0-.0568182-.0568182-.0568182-.0568182-.0568182 0-.0568182-.0568182-.1136363-.1136363-.1704545-.1136364-.2272728-.2272728-.3977273-.3977273-.5681818-.0568182-.1136364-.1136364-.1704546-.2272727-.284091v-.1136363c-.3977273-.5113637-.6818182-1.0795455-.909091-1.6477273-.0568181-.1704545-.0568181-.3977273.0568182-.5681818 0-.0568182.0568182-.0568182.0568182-.0568182l-.1704545-.4545454c2.8977272-1.7613637 5.1136363-4.4886364 6.1363636-7.7272728l.4545455.0568182c.0568181 0 .0568181-.0568182.0568181-.0568182.1136364-.1136363.2840909-.1704545.4545455-.1704545h.0568182c.625.1136363 1.25.2840909 1.8181818.5113636h.0568182c.1136363.0568182.2272727.1136364.3409091.1136364.2272727.1136363.3977272.2272727.625.2840909.0568181 0 .1136363.0568182.2272727.0568182.0568182 0 .0568182 0 .1136364.0568182.1136363.0568181.1704545.0568181.2840909.0568181.5113636 0 .9659091-.3409091 1.1363636-.7954545-.0568182-.625-.5113636-1.0795455-1.0227273-1.1931818zm-16.4204545-1.7613637L24.7144523 28.5l-1.5340909-.7386364-.3977273-1.6477272L23.8621795 24.75h1.7045455l1.0795455 1.3636364-.3977273 1.6477272zm9.2613636-3.6931818c.2840909 1.1931818.3409091 2.3863637.2272727 3.5795455l-5.3977272-1.5340909c-.5113637-.1136364-.7954546-.625-.6818182-1.1363637.0568182-.1704545.1136364-.2840909.2272727-.3977272l4.2613637-3.8636364c.625 1.0227273 1.0795454 2.1590909 1.3636363 3.3522727zm-3.0681818-5.4545454l-4.6590909 3.2954545c-.3977273.2272727-.9659091.1704546-1.25-.2272727-.1136364-.1136364-.1704546-.2272727-.1704546-.3977273l-.340909-5.7386364c2.5.284091 4.715909 1.3636364 6.4204545 3.0681819zm-10.2840909-2.8977273l1.1363636-.2272727-.2840909 5.6818181c0 .5113637-.4545454.909091-.9659091.909091-.1704545 0-.2840909-.0568182-.4545454-.1136364l-4.7159091-3.3522727c1.4772727-1.4204546 3.2954545-2.4431819 5.2840909-2.8977273zm-6.9318182 5l4.2045455 3.75c.3977272.3409091.4545454.9090909.1136363 1.3068182-.1136363.1704545-.2272727.2272727-.4545454.2840909l-5.5113637 1.5909091c-.1704545-2.3863637.3977273-4.8295455 1.6477273-6.9318182zm-.9659091 9.6022727l5.625-.9659091c.4545455 0 .9090909.2840909.9659091.7386364.0568182.1704545.0568182.3977273-.0568182.5681818l-2.1590909 5.2272727c-1.9886363-1.3068181-3.5795454-3.2954545-4.375-5.5681818zm12.8977273 7.0454546c-.7954546.1704545-1.5909091.2840909-2.4431818.2840909-1.1931818 0-2.4431818-.2272728-3.5795455-.5681818l2.7840909-5.0568182c.2840909-.3409091.7386364-.4545455 1.1363637-.2272728.1704545.1136364.2840909.2272728.4545454.3977273l2.7272727 4.9431818c-.340909.0568182-.6818181.1136364-1.0795454.2272728zm6.9318182-4.9431819c-.8522728 1.3636364-2.0454546 2.5568182-3.4090909 3.409091l-2.2159091-5.3409091c-.1136364-.4545455.1136363-.9090909.5113636-1.0795455.1704546-.0568182.3409091-.1136364.5113636-.1136364l5.6818182.9659091c-.2840909.7954546-.625 1.5340909-1.0795454 2.1590909z" fill="#FFF"/></g></svg>