<svg viewBox="0 0 50 50" xmlns="http://www.w3.org/2000/svg"><g fill="#764ABC" fill-rule="nonzero"><path d="M34.556962 34.164557c1.8354431-.1898735 3.2278481-1.7721519 3.164557-3.6708861-.0632912-1.8987342-1.6455696-3.4177215-3.5443038-3.4177215h-.1265823c-1.9620253.0632911-3.4810126 1.7088607-3.4177215 3.670886.0632911.9493671.443038 1.7721519 1.0126582 2.3417722-2.1518987 4.2405063-5.443038 7.3417721-10.3797468 9.9367089-3.3544304 1.7721519-6.8354431 2.4050632-10.3164557 1.9620253-2.8481013-.3797469-5.0632911-1.6455696-6.4556962-3.7341772-2.0253165-3.1012659-2.2151899-6.4556962-.5063291-9.8101266 1.2025316-2.4050633 3.1012658-4.1772152 4.3037974-5.0632912-.2531645-.8227848-.6329113-2.2151898-.8227848-3.2278481-9.1772152 6.6455697-8.227848 15.6329114-5.443038 19.8734178 2.0886076 3.1645569 6.329114 5.1265822 11.0126583 5.1265822 1.2658228 0 2.5316456-.1265822 3.7974683-.4430379 8.1012659-1.5822785 14.2405064-6.3924051 17.721519-13.5443038z"/><path d="M45.6962025 26.3164557c-4.8101266-5.6329114-11.8987341-8.7341772-20-8.7341772h-1.0126582c-.5696202-1.1392405-1.7721519-1.8987342-3.1012658-1.8987342h-.1265823c-1.9620253.0632911-3.4810127 1.7088608-3.4177215 3.6708861.0632911 1.8987342 1.6455696 3.4177215 3.5443038 3.4177215h.1265823c1.392405-.0632911 2.5949367-.9493671 3.1012658-2.1518987h1.1392405c4.8101266 0 9.3670886 1.392405 13.4810126 4.113924 3.164557 2.0886076 5.443038 4.8101266 6.7088608 8.1012658 1.0759494 2.6582279 1.0126582 5.2531646-.1265823 7.4683545-1.7721519 3.3544303-4.7468354 5.1898734-8.670886 5.1898734-2.5316456 0-4.9367089-.7594937-6.2025317-1.3291139-.6962025.6329114-1.9620253 1.6455696-2.8481013 2.278481 2.721519 1.2658228 5.5063292 1.9620253 8.164557 1.9620253 6.0759494 0 10.5696203-3.3544304 12.278481-6.7088608 1.8354431-3.670886 1.7088608-10-3.0379747-15.3797468z"/><path d="M13.5443038 35.2405063c.0632911 1.8987342 1.6455696 3.4177215 3.5443038 3.4177215h.1265823c1.9620253-.0632911 3.4810126-1.7088607 3.4177215-3.670886-.0632911-1.8987342-1.6455696-3.4177215-3.5443038-3.4177215h-.1265823c-.1265823 0-.3164557 0-.443038.0632911-2.5949367-4.3037975-3.670886-8.9873418-3.2911392-14.0506329.2531646-3.7974684 1.5189873-7.0886076 3.7341772-9.8101266 1.8354431-2.3417721 5.3797469-3.4810127 7.7848101-3.5443038 6.7088608-.1265823 9.5569621 8.2278481 9.7468355 11.5822785.8227848.1898734 2.2151899.6329114 3.1645569.9493671-.7594936-10.2531646-7.0886075-15.5696203-13.1645569-15.5696203-5.6962025 0-10.9493671 4.113924-13.0379747 10.1898734-2.9113924 8.1012659-1.0126582 15.886076 2.5316456 22.0253165-.3164557.443038-.5063291 1.1392405-.443038 1.835443z"/></g></svg>