<svg viewBox="0 0 50 50" xmlns="http://www.w3.org/2000/svg"><path d="M0 25v25h50V0H0v25zm40.2936508-1.9920635c1.2698413.3174603 2.2380952.8809524 3.1269841 1.8015873.4603175.4920635 1.1428572 1.3888889 1.1984127 1.6031746.015873.0634921-2.1587301 1.5238095-3.4761905 2.3412699-.047619.031746-.2380952-.1746032-.4523809-.4920635-.6428572-.936508-1.3174603-1.3412699-2.3492064-1.4126985-1.515873-.1031746-2.4920635.6904762-2.4841269 2.0158731 0 .3888889.0555555.6190476.2142857.9365079.3333333.6904762.9523809 1.1031746 2.8968254 1.9444444 3.579365 1.5396826 5.1111111 2.5555556 6.063492 4 1.0634921 1.6111112 1.3015873 4.1825397.5793651 6.0952381-.7936508 2.0793651-2.7619048 3.4920635-5.531746 3.9603175-.8571429.1507936-2.8888889.1269841-3.8095238-.0396825-2.0079365-.3571429-3.9126984-1.3492064-5.0873016-2.6507937-.4603175-.5079365-1.3571429-1.8333333-1.3015873-1.9285714.0238095-.031746.2301587-.1587302.4603174-.2936508.2222223-.1269841 1.0634921-.6111111 1.8571429-1.0714286l1.4365079-.8333333.3015873.4444444c.420635.6428572 1.3412699 1.5238095 1.8968254 1.8174603 1.5952381.8412699 3.7857143.7222223 4.8650794-.2460317.4603175-.420635.6507936-.8571429.6507936-1.5 0-.5793651-.0714285-.8333333-.3730158-1.2698413-.3888889-.5555555-1.1825397-1.0238095-3.436508-2-2.579365-1.1111111-3.6904762-1.8015873-4.7063492-2.8968254-.5873016-.6349206-1.1428571-1.6507936-1.3730158-2.5-.1904762-.7063492-.2380953-2.4761904-.0873016-3.1904762.531746-2.4920634 2.4126984-4.2301587 5.1269841-4.7460317.8809524-.1666667 2.9285714-.1031746 3.7936508.1111111zm-11.7380952 2.0873016l.015873 2.047619h-6.5079365v18.4920635h-4.6031746V27.1428571H10.952381v-2.0079365c0-1.1111111.0238095-2.0396825.0555555-2.063492.0238095-.0317461 3.984127-.0476191 8.7857143-.0396826l8.7380952.0238096.0238096 2.0396825z" fill="#007ACC" fill-rule="nonzero"/></svg>