<svg viewBox="0 0 50 50" xmlns="http://www.w3.org/2000/svg"><path d="M25 0C11.1916667 0 0 11.1916667 0 25s11.1916667 25 25 25 25-11.1916667 25-25S38.8083333 0 25 0zM11.1083333 38.8875C7.3375 35.1166667 5.4583333 30.1916667 5.4 25.25L24.75 44.6c-4.9416667-.0583333-9.8666667-1.9375-13.6416667-5.7125zm18.2375 5.2541667l-23.4875-23.4875C7.8375 11.9 15.65 5.3583333 25 5.3583333c6.5375 0 12.3125 3.2083334 15.8833333 8.1208334L38.15 15.7916667c-2.9083333-4.1458334-7.7125-6.8625-13.15-6.8625-6.9875 0-12.9291667 4.4875-15.1375 10.7291666l20.4833333 20.4833334C35.4875 38.3208333 39.4291667 33.9666667 40.6625 28.575h-8.5208333V25h12.5c0 9.3541667-6.5416667 17.1625-15.2958334 19.1416667z" fill="#639" fill-rule="nonzero"/></svg>