<svg viewBox="0 0 420 210" xmlns="http://www.w3.org/2000/svg"><g fill="none" fill-rule="evenodd"><path d="M112 2v206h306V2H112zm-2-2h310v210H110V0z" fill="#000" fill-rule="nonzero"/><path d="M122 12v36h286V12H122zm-2-2h290v40H120V10zM122 162v36h286v-36H122zm-2-2h290v40H120v-40zM122 62v86h136V62H122zm-2-2h140v90H120V60zM272 62v36h136V62H272zm-2-2h140v40H270V60zM272 112v36h136v-36H272zm-2-2h140v40H270v-40z" fill="#000" fill-rule="nonzero"/><path d="M243.23 34.087h-4.74L237.572 37h-2.737l4.648-13.508h2.774L246.886 37h-2.737l-.918-2.913zm-4.072-2.125h3.405l-1.67-5.306h-.056l-1.679 5.306zm17.822.297c0 1.485-.344 2.678-1.03 3.581-.687.903-1.645 1.355-2.876 1.355-.526 0-.993-.098-1.4-.292a2.877 2.877 0 0 1-1.05-.859v4.815h-2.699V26.962h2.44l.158 1.187c.297-.439.654-.777 1.071-1.015.418-.239.905-.358 1.461-.358 1.244 0 2.208.486 2.895 1.457.686.97 1.03 2.248 1.03 3.831v.195zm-2.71-.195c0-.946-.157-1.713-.472-2.3-.316-.588-.798-.882-1.448-.882-.408 0-.756.084-1.043.25a1.787 1.787 0 0 0-.682.715v4.398c.167.284.394.5.682.649.287.148.641.223 1.062.223.655 0 1.136-.257 1.443-.77.306-.514.459-1.21.459-2.088v-.195zm13.434.195c0 1.485-.343 2.678-1.03 3.581-.686.903-1.645 1.355-2.875 1.355-.526 0-.993-.098-1.401-.292a2.877 2.877 0 0 1-1.049-.859v4.815h-2.7V26.962h2.44l.158 1.187c.297-.439.654-.777 1.072-1.015.417-.239.904-.358 1.461-.358 1.243 0 2.208.486 2.895 1.457.686.97 1.03 2.248 1.03 3.831v.195zm-2.709-.195c0-.946-.157-1.713-.473-2.3-.315-.588-.798-.882-1.447-.882-.408 0-.756.084-1.044.25a1.787 1.787 0 0 0-.682.715v4.398c.167.284.395.5.682.649.288.148.642.223 1.063.223.655 0 1.136-.257 1.442-.77.306-.514.46-1.21.46-2.088v-.195zm14.102 1.132h-1.781L276.657 37h-1.707l.668-3.804h-2.106v-1.568h2.375l.473-2.69h-2.152v-1.586h2.43l.678-3.86h1.697l-.677 3.86h1.781l.687-3.86h1.698l-.678 3.86h2.041v1.586h-2.319l-.473 2.69h2.087v1.568h-2.356L280.136 37h-1.707l.668-3.804zm-1.503-1.568h1.772l.473-2.69h-1.781l-.464 2.69zM291.417 37h-2.709V25.886h-2.746v-1.911l5.455-.483V37zM243.23 184.087h-4.74l-.918 2.913h-2.737l4.648-13.508h2.774L246.886 187h-2.737l-.918-2.913zm-4.072-2.125h3.405l-1.67-5.306h-.056l-1.679 5.306zm17.822.297c0 1.485-.344 2.678-1.03 3.581-.687.903-1.645 1.355-2.876 1.355-.526 0-.993-.098-1.4-.292a2.877 2.877 0 0 1-1.05-.859v4.815h-2.699v-13.897h2.44l.158 1.187c.297-.439.654-.777 1.071-1.015.418-.239.905-.358 1.461-.358 1.244 0 2.208.486 2.895 1.457.686.97 1.03 2.248 1.03 3.831v.195zm-2.71-.195c0-.946-.157-1.713-.472-2.3-.316-.588-.798-.882-1.448-.882-.408 0-.756.084-1.043.25a1.787 1.787 0 0 0-.682.715v4.398c.167.284.394.5.682.649.287.148.641.223 1.062.223.655 0 1.136-.257 1.443-.77.306-.514.459-1.21.459-2.088v-.195zm13.434.195c0 1.485-.343 2.678-1.03 3.581-.686.903-1.645 1.355-2.875 1.355-.526 0-.993-.098-1.401-.292a2.877 2.877 0 0 1-1.049-.859v4.815h-2.7v-13.897h2.44l.158 1.187c.297-.439.654-.777 1.072-1.015.417-.239.904-.358 1.461-.358 1.243 0 2.208.486 2.895 1.457.686.97 1.03 2.248 1.03 3.831v.195zm-2.709-.195c0-.946-.157-1.713-.473-2.3-.315-.588-.798-.882-1.447-.882-.408 0-.756.084-1.044.25a1.787 1.787 0 0 0-.682.715v4.398c.167.284.395.5.682.649.288.148.642.223 1.063.223.655 0 1.136-.257 1.442-.77.306-.514.46-1.21.46-2.088v-.195zm14.102 1.132h-1.781l-.659 3.804h-1.707l.668-3.804h-2.106v-1.568h2.375l.473-2.69h-2.152v-1.586h2.43l.678-3.86h1.697l-.677 3.86h1.781l.687-3.86h1.698l-.678 3.86h2.041v1.586h-2.319l-.473 2.69h2.087v1.568h-2.356l-.668 3.804h-1.707l.668-3.804zm-1.503-1.568h1.772l.473-2.69h-1.781l-.464 2.69zm8.043-.612l.78-7.524h7.533v2.171h-5.316l-.371 3.117c.247-.185.547-.338.9-.459.352-.12.742-.184 1.169-.19 1.299-.019 2.305.374 3.02 1.178.714.804 1.071 1.924 1.071 3.358 0 1.3-.391 2.379-1.173 3.238-.783.86-1.91 1.29-3.382 1.29-1.243 0-2.307-.339-3.191-1.016-.885-.677-1.312-1.61-1.28-2.797l.018-.047 2.607-.13c0 .6.17 1.069.51 1.406.34.337.785.506 1.336.506.63 0 1.096-.225 1.396-.673.3-.448.45-1.034.45-1.758 0-.78-.16-1.404-.482-1.874-.322-.47-.798-.705-1.429-.705-.52 0-.917.096-1.192.288a1.57 1.57 0 0 0-.59.779l-2.384-.158zM318.23 84.087h-4.74L312.572 87h-2.737l4.648-13.508h2.774L321.886 87h-2.737l-.918-2.913zm-4.072-2.125h3.405l-1.67-5.306h-.056l-1.679 5.306zm17.822.297c0 1.485-.344 2.678-1.03 3.581-.687.903-1.645 1.355-2.876 1.355-.526 0-.993-.098-1.4-.292a2.877 2.877 0 0 1-1.05-.859v4.815h-2.699V76.962h2.44l.158 1.187c.297-.439.654-.777 1.071-1.015.418-.239.905-.358 1.461-.358 1.244 0 2.208.486 2.895 1.457.686.97 1.03 2.248 1.03 3.831v.195zm-2.71-.195c0-.946-.157-1.713-.472-2.3-.316-.588-.798-.882-1.448-.882-.408 0-.756.084-1.043.25a1.787 1.787 0 0 0-.682.715v4.398c.167.284.394.5.682.649.287.148.641.223 1.062.223.655 0 1.136-.257 1.443-.77.306-.514.459-1.21.459-2.088v-.195zm13.434.195c0 1.485-.343 2.678-1.03 3.581-.686.903-1.645 1.355-2.875 1.355-.526 0-.993-.098-1.401-.292a2.877 2.877 0 0 1-1.049-.859v4.815h-2.7V76.962h2.44l.158 1.187c.297-.439.654-.777 1.072-1.015.417-.239.904-.358 1.461-.358 1.243 0 2.208.486 2.895 1.457.686.97 1.03 2.248 1.03 3.831v.195zm-2.709-.195c0-.946-.157-1.713-.473-2.3-.315-.588-.798-.882-1.447-.882-.408 0-.756.084-1.044.25a1.787 1.787 0 0 0-.682.715v4.398c.167.284.395.5.682.649.288.148.642.223 1.063.223.655 0 1.136-.257 1.442-.77.306-.514.46-1.21.46-2.088v-.195zm14.102 1.132h-1.781L351.657 87h-1.707l.668-3.804h-2.106v-1.568h2.375l.473-2.69h-2.152v-1.586h2.43l.678-3.86h1.697l-.677 3.86h1.781l.687-3.86h1.698l-.678 3.86h2.041v1.586h-2.319l-.473 2.69h2.087v1.568h-2.356L355.136 87h-1.707l.668-3.804zm-1.503-1.568h1.772l.473-2.69h-1.781l-.464 2.69zm10.437-2.532h1.521c.644 0 1.12-.169 1.43-.506.308-.337.463-.805.463-1.405 0-.545-.155-.98-.464-1.309-.309-.327-.757-.491-1.345-.491-.507 0-.934.148-1.28.445-.347.297-.52.687-.52 1.169h-2.625l-.019-.056c-.037-1.057.368-1.93 1.215-2.616.848-.686 1.9-1.03 3.155-1.03 1.398 0 2.512.334 3.344 1.002.832.668 1.248 1.62 1.248 2.858 0 .587-.185 1.145-.557 1.674-.37.53-.88.942-1.53 1.239.748.266 1.319.674 1.711 1.224.393.55.59 1.191.59 1.92 0 1.238-.45 2.21-1.35 2.919-.9.708-2.052 1.062-3.456 1.062-1.256 0-2.333-.333-3.233-.997-.9-.665-1.335-1.604-1.304-2.816l.019-.056h2.625c0 .52.186.948.557 1.285.37.337.841.506 1.41.506.625 0 1.118-.173 1.48-.52.362-.346.542-.816.542-1.41 0-.711-.177-1.232-.533-1.563-.356-.331-.88-.497-1.573-.497h-1.521v-2.031zM318.23 134.087h-4.74l-.918 2.913h-2.737l4.648-13.508h2.774L321.886 137h-2.737l-.918-2.913zm-4.072-2.125h3.405l-1.67-5.306h-.056l-1.679 5.306zm17.822.297c0 1.485-.344 2.678-1.03 3.581-.687.903-1.645 1.355-2.876 1.355-.526 0-.993-.098-1.4-.292a2.877 2.877 0 0 1-1.05-.859v4.815h-2.699v-13.897h2.44l.158 1.187c.297-.439.654-.777 1.071-1.015.418-.239.905-.358 1.461-.358 1.244 0 2.208.486 2.895 1.457.686.97 1.03 2.248 1.03 3.831v.195zm-2.71-.195c0-.946-.157-1.713-.472-2.3-.316-.588-.798-.882-1.448-.882-.408 0-.756.084-1.043.25a1.787 1.787 0 0 0-.682.715v4.398c.167.284.394.5.682.649.287.148.641.223 1.062.223.655 0 1.136-.257 1.443-.77.306-.514.459-1.21.459-2.088v-.195zm13.434.195c0 1.485-.343 2.678-1.03 3.581-.686.903-1.645 1.355-2.875 1.355-.526 0-.993-.098-1.401-.292a2.877 2.877 0 0 1-1.049-.859v4.815h-2.7v-13.897h2.44l.158 1.187c.297-.439.654-.777 1.072-1.015.417-.239.904-.358 1.461-.358 1.243 0 2.208.486 2.895 1.457.686.97 1.03 2.248 1.03 3.831v.195zm-2.709-.195c0-.946-.157-1.713-.473-2.3-.315-.588-.798-.882-1.447-.882-.408 0-.756.084-1.044.25a1.787 1.787 0 0 0-.682.715v4.398c.167.284.395.5.682.649.288.148.642.223 1.063.223.655 0 1.136-.257 1.442-.77.306-.514.46-1.21.46-2.088v-.195zm14.102 1.132h-1.781l-.659 3.804h-1.707l.668-3.804h-2.106v-1.568h2.375l.473-2.69h-2.152v-1.586h2.43l.678-3.86h1.697l-.677 3.86h1.781l.687-3.86h1.698l-.678 3.86h2.041v1.586h-2.319l-.473 2.69h2.087v1.568h-2.356l-.668 3.804h-1.707l.668-3.804zm-1.503-1.568h1.772l.473-2.69h-1.781l-.464 2.69zm15.642.344h1.53v2.096h-1.53V137h-2.7v-2.932h-5.51l-.121-1.623 5.603-8.953h2.728v8.48zm-5.808 0h3.108v-4.862l-.056-.018-.213.38-2.839 4.5zM168.23 109.087h-4.74l-.918 2.913h-2.737l4.648-13.508h2.774L171.886 112h-2.737l-.918-2.913zm-4.072-2.125h3.405l-1.67-5.306h-.056l-1.679 5.306zm17.822.297c0 1.485-.344 2.678-1.03 3.581-.687.903-1.645 1.355-2.876 1.355-.526 0-.993-.098-1.4-.292a2.877 2.877 0 0 1-1.05-.859v4.815h-2.699v-13.897h2.44l.158 1.187c.297-.439.654-.777 1.071-1.015.418-.239.905-.358 1.461-.358 1.244 0 2.208.486 2.895 1.457.686.97 1.03 2.248 1.03 3.831v.195zm-2.71-.195c0-.946-.157-1.713-.472-2.3-.316-.588-.798-.882-1.448-.882-.408 0-.756.084-1.043.25a1.787 1.787 0 0 0-.682.715v4.398c.167.284.394.5.682.649.287.148.641.223 1.062.223.655 0 1.136-.257 1.443-.77.306-.514.459-1.21.459-2.088v-.195zm13.434.195c0 1.485-.343 2.678-1.03 3.581-.686.903-1.645 1.355-2.875 1.355-.526 0-.993-.098-1.401-.292a2.877 2.877 0 0 1-1.049-.859v4.815h-2.7v-13.897h2.44l.158 1.187c.297-.439.654-.777 1.072-1.015.417-.239.904-.358 1.461-.358 1.243 0 2.208.486 2.895 1.457.686.97 1.03 2.248 1.03 3.831v.195zm-2.709-.195c0-.946-.157-1.713-.473-2.3-.315-.588-.798-.882-1.447-.882-.408 0-.756.084-1.044.25a1.787 1.787 0 0 0-.682.715v4.398c.167.284.395.5.682.649.288.148.642.223 1.063.223.655 0 1.136-.257 1.442-.77.306-.514.46-1.21.46-2.088v-.195zm14.102 1.132h-1.781l-.659 3.804h-1.707l.668-3.804h-2.106v-1.568h2.375l.473-2.69h-2.152v-1.586h2.43l.678-3.86h1.697l-.677 3.86h1.781l.687-3.86h1.698l-.678 3.86h2.041v1.586h-2.319l-.473 2.69h2.087v1.568h-2.356l-.668 3.804h-1.707l.668-3.804zm-1.503-1.568h1.772l.473-2.69h-1.781l-.464 2.69zM219.516 112h-9.222v-1.772l4.37-4.685c.63-.724 1.08-1.334 1.345-1.832.266-.498.399-.96.399-1.387 0-.57-.153-1.035-.46-1.397-.305-.361-.74-.542-1.303-.542-.624 0-1.1.212-1.424.635-.325.424-.487.988-.487 1.693H210.1l-.018-.055c-.031-1.219.37-2.25 1.201-3.094.832-.845 1.953-1.267 3.363-1.267 1.392 0 2.485.362 3.28 1.086.795.723 1.192 1.688 1.192 2.894 0 .817-.224 1.57-.673 2.26-.448.689-1.189 1.594-2.222 2.713l-2.402 2.625.018.047h5.678V112zM20 20a6.665 6.665 0 0 0 6.667-6.667A6.665 6.665 0 0 0 20 6.667a6.665 6.665 0 0 0-6.667 6.666A6.665 6.665 0 0 0 20 20zm0 3.333c-4.45 0-13.333 2.234-13.333 6.667v3.333h26.666V30c0-4.433-8.883-6.667-13.333-6.667z" fill="#000" fill-rule="nonzero"/><path d="M0 0h40v40H0z"/><path d="M86 21H40.5a1 1 0 0 1 0-2H86v-6l14 7-14 7v-6z" fill="#000" fill-rule="nonzero"/></g></svg>