<svg viewBox="0 0 50 50" xmlns="http://www.w3.org/2000/svg"><g fill="#000" fill-rule="nonzero"><path d="M5.7588061 39.7656562c3.3561255 0 5.1104638-2.1357162 6.5978375-5.1486015h.190689l-.7627558 4.690948h5.5681172l4.690948-28.2219638h-5.5681172L14.454222 23.2901313h-.2669645c-.5720668-2.5933696-2.0594406-4.1188812-5.1486015-4.1188812C3.5849522 19.1712501 0 24.3198516 0 32.1380984c0 4.6146725 1.6017871 7.6275578 5.7588061 7.6275578zm2.4789563-4.3095703c-1.9068894 0-2.5552318-1.4492359-2.5933696-3.3179875 0-.6483425.0762755-1.258547.1525511-1.7162005l.381378-2.2882674c.4957912-2.9747475 1.9068894-4.6528102 4.6528102-4.6528102 2.4026807 0 3.3942632 1.1822714 3.0510231 3.241712l-.5339291 3.1654365c-.2669645 1.639925-1.1822714 2.9747476-1.792476 3.6993656-.915307 1.1441336-1.9450273 1.8687515-3.3179877 1.8687515zM37.2597613 39.6796174l3.9459901-22.3334893h7.6072175L49.9520176 11H26.7642418l-1.1390486 6.346128h7.5665375l-3.9459901 22.3334894z"/></g></svg>