<svg viewBox="0 0 50 50" xmlns="http://www.w3.org/2000/svg"><path d="M41.109375 17.4179687c-.5175781-.1757812-1.0546875-.3476562-1.609375-.5078125.0917969-.3710937.1757812-.7363281.25-1.09375 1.2167969-5.9179687.421875-10.6835937-2.2988281-12.25-2.609375-1.5039062-6.875.0644532-11.1835938 3.8125-.4160156.3613282-.8320312.7421875-1.2460937 1.1425782-.2773438-.2636719-.5527344-.5195313-.828125-.765625-4.515625-4.0078125-9.0429688-5.6972657-11.7578125-4.125-2.6074219 1.5097656-3.3789063 5.9882812-2.2851563 11.59375.109375.5390625.234375 1.09375.3710938 1.6542968-.6386719.1816407-1.2578125.375-1.8496094.5820313C3.3789062 19.3085938 0 22.1992188 0 25.2011719c0 3.0976562 3.6289063 6.2070312 9.140625 8.0917969.4375.1484374.8886719.2890624 1.3535156.421875-.1503906.6054687-.28125 1.203125-.390625 1.7851562-1.046875 5.5078125-.2304687 9.8828125 2.3691406 11.3789062 2.6835938 1.5488282 7.1875-.0429687 11.5761719-3.8769531.3476563-.3007812.6953125-.625 1.0429688-.9570312.453125.4296875.9042969.84375 1.3515625 1.2304687 4.2480468 3.65625 8.4453125 5.1328125 11.0410156 3.6328125 2.6816406-1.5546875 3.5546875-6.2539062 2.421875-11.96875-.0859375-.4375-.1875-.8828125-.2988281-1.3359375.3164062-.09375.625-.1914062.9296875-.2929687 5.7324218-1.8984375 9.4609375-4.9667969 9.4609375-8.1054688 0-3.0136719-3.4902344-5.9257812-8.890625-7.7851562l.0019531-.0019532zm-1.2421875 13.8671875c-.2734375.0878907-.5546875.1757813-.8398437.2597657-.6328126-2.0019531-1.484375-4.1328125-2.5332032-6.3339844.9960938-2.1484375 1.8164063-4.2519531 2.4335938-6.2421875.5136718.1484375 1.0097656.3046875 1.4882812.46875 4.6289063 1.59375 7.4492188 3.9492188 7.4492188 5.7617188 0 1.9335937-3.046875 4.4433593-7.9960938 6.0839843l-.0019531.0019531zM37.8125 35.3515625c.5019531 2.5273437.5722656 4.8125.2402344 6.6015625-.296875 1.6015625-.8984375 2.6757812-1.6367188 3.1015625-1.5761719.9121094-4.9453125-.2734375-8.578125-3.3984375-.4179687-.3613281-.8398437-.7421875-1.2578125-1.1484375 1.40625-1.5429687 2.8125-3.3320313 4.1894531-5.3222656 2.4160157-.2148438 4.6992188-.5664063 6.7714844-1.0449219.1015625.4101562.1914063.8144531.2695313 1.2109375H37.8125zm-20.765625 9.5429687c-1.5429688.546875-2.765625.5625-3.5078125.1367188-1.5761719-.9121094-2.2324219-4.4238281-1.3378906-9.1328125.1015625-.5390625.2246093-1.09375.3652343-1.6601563 2.046875.453125 4.3164063.78125 6.7382813.9765626 1.3828125 1.9453124 2.8320312 3.734375 4.2910156 5.3007812-.3164062.3085938-.6347656.6015625-.9511719.8789062-1.9394531 1.6953126-3.8828125 2.8984376-5.5957031 3.5019532l-.0019531-.0019532zM9.8339844 31.2714844c-2.4375-.8339844-4.453125-1.9140625-5.8320313-3.0996094-1.2421875-1.0605469-1.8671875-2.1152344-1.8671875-2.96875 0-1.8222656 2.7148438-4.1445312 7.2402344-5.7226562.5507813-.1953126 1.1269531-.3710938 1.7226562-.5429688.6250001 2.0351562 1.4453126 4.1640625 2.4375 6.3144531-1.0039062 2.1835938-1.8359374 4.3457032-2.4667968 6.40625-.4257813-.1230469-.8398438-.2539062-1.234375-.3867187zm2.4179687-16.4550781c-.9375-4.8046876-.3164062-8.4277344 1.2539063-9.3359376 1.6738281-.96875 5.3710937.4101563 9.2695312 3.873047.2539063.2226562.5019531.453125.7539063.6933593-1.453125 1.5585938-2.890625 3.3359375-4.2578125 5.2734375-2.3535157.2148437-4.6054688.5664063-6.6738282 1.0351562-.1328125-.5273437-.2480468-1.0390625-.3457031-1.5429687v.0039063zm21.5664063 5.3242187c-.4941406-.8554688-1.0019532-1.6894531-1.5195313-2.5 1.5957031.1992188 3.125.46875 4.5585938.7949219-.4296875 1.3808593-.9648438 2.8261719-1.5976563 4.3066406-.453125-.859375-.9335937-1.7304687-1.4394531-2.6015625h-.0019531zm-8.7949219-8.5664063c.9863281 1.0664063 1.9726563 2.2578125 2.9433594 3.5507813-.9804688-.046875-1.9726563-.0703125-2.96875-.0703125-.9882813 0-1.9726563.0234375-2.9433594.0683594.9707031-1.2792969 1.9667969-2.4707032 2.96875-3.5507813v.0019532zm-8.8515625 8.578125c-.4941406.859375-.9648438 1.71875-1.4101562 2.5859375-.625-1.4746093-1.1523438-2.9257812-1.5898438-4.3261718 1.4257812-.3203125 2.9492188-.5800782 4.53125-.78125-.5234375.8203125-1.0351562 1.6601562-1.53125 2.5195312v.0019531zM17.75 32.9160156c-1.6367188-.1816406-3.1835938-.4296875-4.609375-.7421875.4433594-1.4257812.9882812-2.9042969 1.6210938-4.4140625.4492187.8671875.921875 1.7304688 1.4199218 2.5898438.5078125.875 1.03125 1.7304687 1.5683594 2.5664062zm7.3320312 6.0605469c-1.0117187-1.0898437-2.0214843-2.2988281-3.0078125-3.5976563C23.03125 35.4179687 24.0078125 35.4375 25 35.4375c1.0195312 0 2.0273438-.0253906 3.0175781-.0683594-.9726562 1.3222656-1.9570312 2.5332032-2.9355469 3.609375v-.0019531zM35.2773438 27.6875c.6679687 1.5234375 1.2304687 2.9960937 1.6796874 4.3984375-1.4492187.3320312-3.015625.5957031-4.6640624.7949219.5195312-.8242188 1.03125-1.6738282 1.5351562-2.546875.5078125-.8828125.9921875-1.7675782 1.4492188-2.6484375V27.6875zm-3.3007813 1.5820313c-.78125 1.3554687-1.5820312 2.6484375-2.3984375 3.8671875-1.484375.1074218-3.015625.1621093-4.578125.1621093-1.5566406 0-3.0703125-.046875-4.5273438-.1425781-.8476562-1.2363281-1.6660156-2.5332031-2.4414062-3.875-.7773438-1.3378906-1.4902344-2.6875-2.1347656-4.0292969.6445312-1.34375 1.3535156-2.6953125 2.125-4.03125.7714844-1.3398437 1.5820312-2.6308593 2.421875-3.8613281 1.4882812-.1113281 3.0136718-.1699219 4.5546875-.1699219 1.5488281 0 3.0742187.0585938 4.5605469.171875.828125 1.2207032 1.6347656 2.5078125 2.4101562 3.8476563.78125 1.3535156 1.5039062 2.6953125 2.1523438 4.0117187-.6484375 1.3378907-1.3671876 2.6953125-2.1484376 4.046875l.0039063.0019532zm4.40625-23.8535157c1.6757813.9667969 2.3242187 4.859375 1.2734375 9.9667969-.0664062.3261719-.1425781.6582031-.2246094.9960937-2.0742187-.4804687-4.3261718-.8398437-6.6835937-1.0585937-1.375-1.9570313-2.7988281-3.734375-4.2285156-5.2734375.3847656-.3710938.7695312-.7226563 1.1523437-1.0546875 3.6914063-3.2128906 7.140625-4.4824219 8.7109375-3.5742188v-.001953zM25 20.734375c2.4648438 0 4.4648438 2 4.4648438 4.4667969 0 2.4648437-2 4.4648437-4.4648438 4.4648437-2.4648438 0-4.4648438-2-4.4648438-4.4648437 0-2.4667969 2-4.4648438 4.4648438-4.4648438v-.0019531z" fill="#00D8FF" fill-rule="nonzero"/></svg>