<svg viewBox="0 0 50 50" xmlns="http://www.w3.org/2000/svg"><path d="M19.8464844 8.7716797c.0455078.2728515-.0910157.5003906-.5457032.7277344-.5912109-.3183594-1.8648437-.5003907-2.9107421-.409375-1.1371094.0910156-2.0921875.4548828-1.9556641 1.2279296.1818359.7732422 1.2734375 1.228125 3.2291016 1.0460938 4.7753906-.409375 4.7298828-3.6384766 11.7339843-4.2751953 5.4576172-.5001953 8.5046875 1.1826172 8.9140625 3.2291015.3183594 1.591797-1.0005859 3.1382813-4.9574218 3.4566407-3.5019532.3183593-5.5486329-.6367188-5.7304688-1.5917969-.0910156-.5003906.1818359-1.228125 1.8646484-1.409961.1820313.7732422 1.1371094 1.591797 3.4111329 1.3644532 1.6373046-.1365235 3.0015625-.7277344 2.8197265-1.6373047-.1818359-.9550781-1.9101562-1.5009766-4.6390625-1.2734375-5.5486328.5001953-6.9128906 3.547461-11.6429687 3.956836-3.3654297.3183593-6.094336-.909961-6.4582032-2.7289063-.1363281-.6822266-.1363281-2.2740235 3.4111329-2.5923828 1.8191406-.1365235 3.2746093.181836 3.4564453.9095703zM2.1091797 27.7826172C.5628907 29.7382813-.119336 32.0121094.0169922 34.2408203c.1365234 2.2285156 1.2279297 4.0476563 2.95625 5.4576172 1.8191406 1.4097656 3.7748047 1.8191406 6.0035156 1.4097656.8640625-.1363281 1.8191406-.5912109 2.6832031-.8640625-1.8191406 0-3.3654296-.5912109-4.911914-1.8191406-1.6826172-1.228125-2.8197266-2.95625-3.0925782-5.0484375-.409375-1.9556641 0-3.7748047 1.0916016-5.3666016C5.975 26.4636719 7.566797 25.5994141 9.6587891 25.3265625c2.0921875-.1363281 3.9113281.409375 5.7304687 1.6828125-.4091797-.5912109-1.0003906-1.0005859-1.5460937-1.5462891-1.819336-1.228125-3.775-1.8193359-6.185547-1.228125-2.1830077.4550782-4.0021484 1.5917969-5.5484374 3.5476563zm24.3775391-10.5060547c-5.8671875 0-11.0972657-.591211-14.8722657-1.409961-4.0476562-1.0005859-6.1853515-2.0919921-6.1853515-3.501953 0-.591211.2730468-1.0916016 1.0917968-1.6828126-2.5470703 1.000586-3.9115234 1.819336-3.9115234 3.0927735.1365234 1.4097656 2.4105469 2.8197265 7.049414 3.9113281 4.366211 1.0914063 9.9603516 1.6826172 16.6914063 1.6826172 6.8675781 0 12.3251953-.5912109 16.6914063-1.6826172 4.6388671-1.0916016 6.8673828-2.546875 6.8673828-3.9113281 0-1.000586-1.000586-1.955664-2.8197266-2.6833985.409375.2728516.7277344.7277344.7277344 1.2279297 0 1.409961-2.0921875 2.546875-6.321875 3.5019531-3.9113281.8642579-8.9140625 1.4554688-15.0083985 1.4554688h1e-7zm16.7367187 3.9113281c-4.3662109 1.000586-9.9601562 1.6828125-16.6914062 1.6828125-6.8673829 0-12.4615235-.7277343-16.8277344-1.6828125-3.9113281-1.0005859-6.003125-2.0921875-6.7310547-3.2291015.7277344 4.911914 2.4105469 9.5507812 4.6390625 13.6441406 1.6828125 2.546875 3.3654297 4.7753906 5.0482422 7.1859375.7277343 1.4097656 1.2279297 2.8197266 1.546289 4.2296875 1.0916016 1.5462891 2.6835938 2.546875 4.6390625 3.0925781 2.4105469.8640625 4.9119141 1.2279297 7.4589844 1.0916016h.2726563c2.546875.1363281 5.2304687-.2730469 7.6863281-1.0916016 1.8191406-.5912109 3.3654297-1.546289 4.502539-3.0925781h.1363282c.2728515-1.4101563.7277343-2.8199219 1.4099609-4.2296875 1.6828125-2.4105469 3.365625-4.6390625 5.0482422-7.1859375 2.2285156-4.0478516 3.775-8.6867188 4.6390625-13.6441406-.9095703 1.2734375-3.0017578 2.365039-6.7765625 3.2291015z" fill="#28334C" fill-rule="nonzero"/></svg>