<svg viewBox="0 0 50 50" xmlns="http://www.w3.org/2000/svg"><g fill="none" fill-rule="evenodd"><path fill="#E24329" d="M25 48l9.2-28.3H15.8z"/><path fill="#FC6D26" d="M25 48l-9.2-28.3h-13z"/><path d="M2.9 19.7L0 28.3c-.3.8 0 1.6.7 2.1L25 48 2.9 19.7z" fill="#FCA326"/><path d="M2.9 19.7h12.9l-5.6-17a1 1 0 00-1.8 0L3 19.7z" fill="#E24329"/><path fill="#FC6D26" d="M25 48l9.2-28.3h13z"/><path d="M47.1 19.7l2.8 8.6c.3.8 0 1.6-.7 2.1L25 48l22.1-28.3z" fill="#FCA326"/><path d="M47.1 19.7H34.2l5.6-17a1 1 0 011.8 0l5.5 17z" fill="#E24329"/></g></svg>