<svg xmlns="http://www.w3.org/2000/svg" viewBox="0 0 50 50"><g fill-rule="nonzero" fill="none"><path d="m49.159 19.982-.07-.178-6.798-17.68a1.773 1.773 0 0 0-.698-.842 1.822 1.822 0 0 0-2.098.112 1.772 1.772 0 0 0-.602.913l-4.596 14.02H15.704L11.11 2.308c-.1-.36-.31-.68-.602-.913a1.805 1.805 0 0 0-2.797.73L.905 19.826l-.07.176a12.565 12.565 0 0 0-.342 7.97 12.601 12.601 0 0 0 4.527 6.579l.026.018.06.047 10.367 7.736 5.126 3.87 3.115 2.352a2.112 2.112 0 0 0 2.542 0l3.116-2.353 5.128-3.87 10.427-7.782.028-.02a12.598 12.598 0 0 0 4.545-6.584c.758-2.627.639-5.43-.341-7.984Z" fill="#E24329"/><path d="m49.16 19.982-.07-.178a23.078 23.078 0 0 0-9.15 4.102L25.012 35.183c5.089 3.836 9.518 7.17 9.518 7.17l10.427-7.783.029-.02a12.599 12.599 0 0 0 4.527-6.59 12.562 12.562 0 0 0-.355-7.978Z" fill="#FC6D26"/><path d="m15.481 42.353 5.118 3.87 3.116 2.352a2.113 2.113 0 0 0 2.541 0l3.116-2.353 5.128-3.87s-4.43-3.333-9.518-7.169l-9.5 7.17Z" fill="#FCA326"/><path d="M10.055 23.917a23.022 23.022 0 0 0-9.15-4.1l-.07.176c-.98 2.551-1.1 5.35-.346 7.976a12.602 12.602 0 0 0 4.531 6.583l.026.018.06.047 10.367 7.736 9.54-7.17-14.958-11.266Z" fill="#FC6D26"/></g></svg>