<svg viewBox="0 0 50 50" xmlns="http://www.w3.org/2000/svg"><g fill="none" fill-rule="evenodd"><path fill="#446CA9" d="M7.1524064 33.328877H0V50h16.671123v-7.1390374H7.1524064zM42.8609626 33.3823529v9.4786097h-9.4786097l-.0401069-.053476V50H50V33.328877h-7.1925134zM0 16.671123h7.2058824l-.053476-.0534759V7.1390374h9.4652407l.0534759.053476V0H0zM33.342246 0v7.1390374h9.5187166v9.5320856H50V0z"/><path fill="#76C4D5" d="M32.459893 16.671123l-9.5320855-9.5320856H33.342246V0H16.671123v7.1925134l9.4652406 9.4786096zM23.8636364 33.328877h-6.3101605l7.8877006 7.9010695 1.631016 1.6310161H16.671123V50h16.671123v-7.1925134zM42.8609626 16.671123v10.4010695l-9.5187166-9.5187166v6.3101605l9.4652406 9.4652406H50V16.671123zM16.671123 26.1363636L7.2058823 16.671123H0v16.657754h7.1524064V22.9278075l9.5187166 9.5187166z"/></g></svg>