<svg viewBox="0 0 50 50" xmlns="http://www.w3.org/2000/svg"><g fill-rule="nonzero" fill="none"><path d="M25 0C11.25 0 0 11.25 0 25s11.25 25 25 25 25-11.25 25-25S38.75 0 25 0z" fill="#3F51B5"/><path d="M25 10.625c1.875 0 3.5 1.625 3.5 3.5s-1.625 3.5-3.5 3.5-3.5-1.625-3.5-3.5 1.625-3.5 3.5-3.5zM35.25 20.5c-2.125.375-4.375.5-6.5.625-.75 0-1.25.5-1.25 1C27.25 28.875 30 37 30.125 37c.25.625-.125 1.375-.75 1.625-.125 0-.25.125-.375.125-.5 0-1-.375-1.125-.875-.125-.25-1.125-3.625-2-8-.25-1.125-1-1-1.125 0-.75 4.375-2 7.75-2 8-.5.625-.875.875-1.5.875-.125 0-.25 0-.375-.125-.625-.25-1-1-.75-1.625 0-.125 2.75-8.125 2.625-14.875 0-.5-.5-.875-1.25-1-3.875-.125-6.5-.5-6.75-.5-.625-.125-1.125-.75-1.125-1.375.125-.75.75-1.125 1.375-1.125.125 0 10.75 1.25 19.875-.25.625-.125 1.375.375 1.375 1 .25.875-.25 1.625-1 1.625z" fill="#FFF"/><path d="M25 46.25c-11.75 0-21.25-9.5-21.25-21.25S13.25 3.75 25 3.75 46.25 13.25 46.25 25 36.75 46.25 25 46.25zm0-40C14.625 6.25 6.25 14.625 6.25 25S14.625 43.75 25 43.75 43.75 35.375 43.75 25 35.375 6.25 25 6.25z" fill="#FFF"/></g></svg>