<svg viewBox="0 0 50 50" xmlns="http://www.w3.org/2000/svg"><path d="M49 22.5L27.4 1.1C26.8.4 25.9 0 25 0c-1 0-1.8.4-2.5 1l-4.6 4.7 5.4 5.4c.5-.3 1-.4 1.7-.4 2.2 0 4 1.7 4 4 0 .6-.2 1-.4 1.6l5.2 5.3c.5-.3 1-.4 1.7-.4 2.3 0 4 1.7 4 4 0 2.2-1.7 3.9-4 3.9-2.2 0-4-1.7-4-4 0-.6.2-1.2.5-1.7l-5.3-5.2h-.4V32c1.6.5 2.6 2 2.6 3.7 0 2.2-1.7 4-3.9 4s-4-1.8-4-4c0-1.8 1.1-3.2 2.7-3.7V18.2c-1.6-.6-2.6-2-2.6-3.7 0-.7 0-1.2.3-1.7l-5.3-5.4L1 22.5C.4 23.2 0 24.1 0 25c0 1 .4 1.8 1 2.5l21.5 21.4c.7.7 1.6 1.1 2.5 1.1 1 0 1.8-.4 2.5-1l21.4-21.5c.7-.7 1.1-1.6 1.1-2.5 0-1-.4-1.8-1-2.5z" fill="#F4511E" fill-rule="nonzero"/></svg>