<svg viewBox="0 0 50 50" xmlns="http://www.w3.org/2000/svg"><path d="M21.2495349 5.029452c-1.0210758-.0246175-1.9773063.1847718-2.8366813.6448413-1.7857143.952381-2.8969806 2.8177702-3.3334885 5.2780876L6.3492063 23.8887338c-.3968253.5555556-.7144408 1.1903215-.952536 1.8252421-.9126985 2.6190476-.1985675 5 1.230004 7.7380952.2777777.5555556.15935 1.2301588-.3565231 1.5873016-.1984127.1587302-.436973.1984127-.6750683.1984127-.4365079 0-.7933404-.277623-1.0711182-.6347659-1.3492065-1.8650793-1.6668218-4.1668214-1.746187-5.1192023 0-.2380953-.2377851-.3962056-.4758804-.3565231-.2380952.0396826-.436508.1190477-.595238.1984127-.5555556.2777778-1.468254 1.1106461-1.388889 3.0947731.0793651.3174603.1184276.6350758.1581102.9525361.1587301.9523809.516493 1.9447543 1.032366 2.8971353.6746032 1.2698413 1.5868366 2.3806425 2.4995348 3.0552456.873016.6349207 1.6268294.8331786 2.2220675.8331786.515873 0 .8731706-.1584206 1.1509484-.2774683.2380953-.1190476.5554008-.3572976.8331786-.754123h3.7303135v3.1746032c0 1.984127 1.5873016 3.5714286 3.5714286 3.5714286h7.1428571c1.984127 0 3.5714286-1.5873016 3.5714286-3.5714286v-3.1746032h3.8891992c1.2301587.5555556 2.4206349.8331786 3.5714285.8331786.952381 0 1.8647691-.1982579 2.6584199-.6347659 2.5-1.3095238 3.7303139-4.484127 3.5319012-8.7301587l3.492373.6742932c.0793651 0 .1585754.0403024.2379405.0403024.5952381 0 1.1507936-.4765004 1.1904762-1.111421.0396825-.5952381-.3968254-1.1504837-.9920635-1.2695314l-8.0953929-1.5873015c-.7142857-.1587302-1.4284163.3968254-1.4284163 1.1904762 0 .595238.436508 1.0714285.9920635 1.1904761l2.1027096.3968254c.3174603 3.5714286-.5157183 6.2295389-2.2220675 7.1025548-3.1349206 1.6666671-9.642702-2.4596976-14.3252417-11.2692214-4.6825396-8.7698413-4.4447543-16.5082465-1.3098337-18.1749131 2.7380952-1.468254 7.6990325 1.5082464 11.7466516 7.063802.3571428.4761904.952071.6744484 1.467944.4363531.7142858-.3174603.9123885-1.1904762.4758806-1.7857142-3.844246-5.3013393-8.3177417-8.3748473-11.9644409-8.4627667zm12.8231957.1449341c-.3817119-.0050377-.7688493.1774865-1.0168651.4998984l-1.0323659 1.4292c-.3968254.515873-.2376302 1.2695314.2782429 1.6663568.1984127.1587301.4361976.23794.6742928.23794.3571429 0 .7541234-.158265.9525361-.5154079l1.0711187-1.4291913c.3968254-.515873.2384051-1.2695313-.2774679-1.6663567-.1934524-.1488095-.4204643-.2194167-.6494916-.2224393zm7.0165234 8.8464163c-.2294921-.019764-.4689048.0266615-.6921191.1457091l-5.9523805 3.1746032c.0396825.0396825 0 .0395278 0 .0395278-.0396826 0-.0401477.0006198-.0798302.0403023-.5952381.3174604-.7933405 1.0315913-.4758802 1.6268294.952381 1.7857143 1.7058842 3.5714286 2.3011223 5.3571429.1587301.515873.6352305.8331782 1.111421.8331782.1190476 0 .2382504.0003099.357298-.0790552.6349207-.1984127.9525357-.8733258.754123-1.5082464-.515873-1.5476191-1.1509484-3.1352306-1.9445992-4.6828497l5.0789004-2.6979476c.5952381-.3174603.7941151-1.0315912.4766548-1.6268293-.1984127-.3720238-.5522222-.589425-.9347103-.6223647zM26.6896079 16.921813c-.9599956-.010221-1.9352988.2139135-2.8405567.6975444-.0396825.0396826-.0789.0393727-.1185825.0790552l-.2387151.1193575c-1.7857143.952381-1.904452 3.8485865-.2774679 6.9041421 1.3095238 2.4206349 3.1350758 3.8891988 4.7223774 3.8891988.3968254 0 .7938056-.0790551 1.1509484-.2774678.0793651-.0396826.1587302-.079675.1984127-.1193576.0396825 0 .0787452-.0395274.1581103-.0395274 1.3888889-.7539682 2.4209449-1.9842821 2.8971353-3.5319012.4761905-1.5079365.3176155-3.1350758-.4363527-4.5239646-1.0639881-2.0188492-3.1033183-3.1745933-5.2153092-3.1970794zm21.8819754 12.9092262c-.3075396 0-.6149246.109592-.8331785.327846-.2380953.2380953-.3572977.5157179-.3572977.8331782 0 .0793651-.0001547.158575.0395278.2379401-.0793651.1190476-.0396825.1982579 0 .2379404.0396826.0793651.0796746.1587302.1193572.1984127.0396825.0793651.078746.1190477.1581111.1984127.2380952.2380953.516492.3572977.8339524.3572977.3174603 0 .6347658-.1192024.8331785-.3572977.0396826-.0396825.1192024-.1190476.1588849-.1984127.0396826-.079365.0789008-.1190476.1185834-.1984127.0396825-.079365.0401468-.1585753.0798293-.2379404 0-.0793651.0395278-.158575.0395278-.2379401 0-.3174603-.1192024-.6347655-.3572976-.8331782-.218254-.218254-.5256389-.327846-.8331786-.327846zm-34.285869 9.2959448h9.5238095v3.1746032c0 .6746032-.515873 1.1904762-1.1904762 1.1904762h-7.1428571c-.6746032 0-1.1904762-.515873-1.1904762-1.1904762v-3.1746032z" fill="#333" fill-rule="nonzero"/></svg>
