<svg xmlns="http://www.w3.org/2000/svg" xmlns:xlink="http://www.w3.org/1999/xlink" viewBox="0 0 50 50"><defs><path d="M1.55 46.073.003 4.803a2.514 2.514 0 0 1 2.355-2.604L37.461.005a2.514 2.514 0 0 1 2.67 2.509v44.972a2.514 2.514 0 0 1-2.626 2.511L3.95 48.49a2.514 2.514 0 0 1-2.4-2.417Z" id="a"/><path d="M1.55 46.073.003 4.803a2.514 2.514 0 0 1 2.355-2.604L37.461.005a2.514 2.514 0 0 1 2.67 2.509v44.972a2.514 2.514 0 0 1-2.626 2.511L3.95 48.49a2.514 2.514 0 0 1-2.4-2.417Z" id="c"/></defs><g fill="none" fill-rule="evenodd"><path d="M6.55 46.073 5.003 4.803a2.514 2.514 0 0 1 2.355-2.604L42.461.005a2.514 2.514 0 0 1 2.67 2.509v44.972a2.514 2.514 0 0 1-2.626 2.511L8.95 48.49a2.514 2.514 0 0 1-2.4-2.417Z" fill="#FF4785" fill-rule="nonzero"/><g transform="translate(5)"><mask id="b" fill="#fff"><use xlink:href="#a"/></mask><path d="m29.634 6.146.24-5.767L34.694 0l.209 5.947a.375.375 0 0 1-.607.308l-1.86-1.465-2.2 1.67a.375.375 0 0 1-.602-.314Z" fill="#FFF" fill-rule="nonzero" mask="url(#b)"/></g><g transform="translate(5)"><mask id="d" fill="#fff"><use xlink:href="#c"/></mask><path d="M23.469 18.846c0 .978 6.588.509 7.472-.178 0-6.66-3.574-10.16-10.118-10.16-6.544 0-10.21 3.554-10.21 8.886 0 9.285 12.531 9.463 12.531 14.528 0 1.422-.696 2.266-2.228 2.266-1.995 0-2.785-1.02-2.692-4.485 0-.752-7.611-.986-7.843 0-.591 8.398 4.64 10.82 10.628 10.82 5.802 0 10.35-3.092 10.35-8.69 0-9.952-12.717-9.685-12.717-14.617 0-2 1.485-2.266 2.367-2.266.928 0 2.6.164 2.46 3.896Z" fill="#FFF" fill-rule="nonzero" mask="url(#d)"/></g></g></svg>