<svg viewBox="0 0 50 50" xmlns="http://www.w3.org/2000/svg"><path d="M46.5981777 12.7707459c-2.2332574-3.9156177-5.2625285-7.0156177-9.0886105-9.3006993C33.6829157 1.1848485 29.5053531.0425408 24.973918.0425408c-4.5308656 0-8.709795 1.1426573-12.5356492 3.4275058-3.8264237 2.284965-6.8555809 5.3850816-9.0888383 9.3006993C1.1165148 16.6862471 0 20.9620047 0 25.5979021c0 5.5687646 1.5876993 10.5763403 4.7638952 15.0240093 3.1758542 4.4480187 7.2785877 7.5258741 12.3078588 9.2339161.5854214.1111888 1.0187927.0329837 1.3005695-.232634.2818906-.2659674.4226651-.5990676.4226651-.9979021 0-.0665501-.0055809-.6652681-.0164009-1.7968532-.0111617-1.1315851-.0164009-2.1187645-.0164009-2.9610722l-.7479499.1324009c-.4768793.0893939-1.0784738.1272727-1.8047836.1165501-.7259681-.0103729-1.4796128-.0882284-2.2599089-.2329837-.7806378-.1434732-1.5067198-.4762237-2.1788155-.9975524-.671754-.5213287-1.1486332-1.2037296-1.4305239-2.0461539l-.3251708-.7657342c-.2167426-.5097902-.5579727-1.0761073-1.0241458-1.6968532-.4661731-.6213286-.9375854-1.0425408-1.4144647-1.2643356l-.2276765-.1667833c-.1517085-.1108391-.292483-.2445221-.4226652-.3996503-.1300683-.1551282-.2274487-.310373-.292483-.4658508-.065148-.1555944-.0111616-.2832168.1625286-.3833334.1736902-.1001165.4875854-.1487179.9430523-.1487179l.650114.0994172c.433599.0889278.9699316.3545455 1.609681.7984849.6394078.4435897 1.1650342 1.0202797 1.5769932 1.7298368.4988611.9097902 1.0998861 1.6030303 1.8047836 2.08007.704328.4770396 1.4144647.7151515 2.1297267.7151515.7152619 0 1.3330296-.0554779 1.8535307-.1658508.5199317-.1109558 1.0077449-.277739 1.4632119-.4994173.1951025-1.4869464.7263098-2.6292541 1.5931662-3.4277389-1.2355353-.1328672-2.3463553-.3329837-3.3330296-.5990676-.9861048-.2664336-2.0051253-.6988345-3.0563781-1.2983683-1.0518223-.598718-1.9243736-1.3421912-2.6178816-2.2291375-.6936218-.8874126-1.2628701-2.0524476-1.7069476-3.494056-.4443052-1.4421911-.6665148-3.1058275-.6665148-4.9913753 0-2.6847319.856492-4.9693473 2.5691344-6.8551282-.8022779-2.0184149-.7265376-4.2811189.2274488-6.7878788.6287016-.1998834 1.5610478-.0498834 2.7965831.4490676 1.2357631.4991842 2.1405467.9268065 2.715262 1.281352.5747152.3544289 1.0351936.6547786 1.3821184.8983683 2.0165148-.5765734 4.0974943-.8649184 6.243508-.8649184s4.2274488.288345 6.2440775.8649184l1.2356492-.7982517c.8449886-.5326341 1.8428246-1.020746 2.9911161-1.4644523 1.148975-.4434732 2.0275627-.5656177 2.634852-.3657342.9751708 2.5068764 1.0620729 4.7694638.2595672 6.7878788 1.7125284 1.8857808 2.5693622 4.170979 2.5693622 6.8551282 0 1.8855478-.2230069 3.5544289-.6666288 5.0076923-.4441913 1.4534965-1.0183371 2.6173659-1.7226651 3.4940559-.7051253.8765734-1.5832574 1.6142191-2.6345102 2.2128205-1.0514807.5990676-2.0708429 1.0314686-3.0569477 1.2979021-.9865603.2664336-2.0973804.4666667-3.3329157.5997669 1.1268793.9979021 1.6904328 2.573077 1.6904328 4.7248252v7.0206294c0 .3988345.1355353.7318182.4068337.9979021.2709568.2656177.6988611.3438228 1.2842825.2325175 5.0299544-1.7078089 9.1326879-4.7857809 12.3084282-9.2337996 3.1753987-4.447669 4.7636675-9.4552447 4.7636675-15.0240093-.001139-4.6353147-1.1182233-8.9107226-3.3501139-12.8262238z" fill="#000" fill-rule="nonzero"/></svg>