<svg viewBox="0 0 50 50" xmlns="http://www.w3.org/2000/svg"><g fill="#000" fill-rule="evenodd" opacity=".05"><path d="M19.33 20a.66.66 0 1 0 1.33 0 .66.66 0 0 0-1.33 0zM43.98 20a.66.66 0 1 0-1.32 0 .66.66 0 0 0 1.32 0zM2.67 20A.66.66 0 1 0 4 20a.66.66 0 0 0-1.33 0zM19.33 23.33a.66.66 0 1 0 1.33 0 .66.66 0 0 0-1.33 0zM6.66 19.33a.66.66 0 0 0 0 1.33h10a.66.66 0 0 0 0-1.33h-10zM4 23.33c0-.37-.3-.67-.67-.67H0V24h3.33c.37 0 .66-.3.66-.66zM36 23.33a.66.66 0 1 0 1.32 0 .66.66 0 0 0-1.33 0zM23.33 22.66a.66.66 0 0 0 0 1.33h10a.66.66 0 0 0 0-1.33h-10zM23.33 19.33a.66.66 0 0 0 0 1.33h3.33a.66.66 0 0 0 0-1.33h-3.33zM9.33 13.33a.66.66 0 1 0 1.33 0 .66.66 0 0 0-1.33 0zM43.98 13.33a.66.66 0 1 0-1.32 0 .66.66 0 0 0 1.32 0zM13.33 12.67a.66.66 0 0 0 0 1.32h3.33a.66.66 0 0 0 0-1.32h-3.33zM.66 16.66C.66 16.3.36 16 0 16v1.32c.36 0 .66-.3.66-.66zM29.99 19.33a.66.66 0 0 0 0 1.33h6.66a.66.66 0 0 0 0-1.33H30zM.66 20c0-.37-.3-.67-.66-.67v1.33c.36 0 .66-.3.66-.67zM39.33 20a.66.66 0 1 0 1.32 0 .66.66 0 0 0-1.32 0zM13.33 22.66a.66.66 0 0 0 0 1.33h3.33a.66.66 0 0 0 0-1.33h-3.33zM9.33 29.99a.66.66 0 1 0 1.33 0 .66.66 0 0 0-1.33 0zM29.33 29.99a.66.66 0 1 0 1.32 0 .66.66 0 0 0-1.32 0zM43.98 26.66a.66.66 0 1 0-1.32 0 .66.66 0 0 0 1.32 0zM36 29.99c0 .37.29.66.65.66H40a.66.66 0 0 0 0-1.32h-3.34c-.36 0-.66.3-.66.66zM7.33 29.99c0-.36-.3-.66-.67-.66H0v1.32h6.66c.37 0 .67-.3.67-.66zM32.66 29.99a.66.66 0 1 0 1.33 0 .66.66 0 0 0-1.33 0zM43.98 29.99a.66.66 0 1 0-1.32 0 .66.66 0 0 0 1.32 0zM20 29.33a.66.66 0 0 0 0 1.32h6.66a.66.66 0 0 0 0-1.32h-6.67zM13.33 29.33a.66.66 0 0 0 0 1.32h3.33a.66.66 0 0 0 0-1.32h-3.33zM9.33 23.33a.66.66 0 1 0 1.33 0 .66.66 0 0 0-1.33 0zM26 26.66a.66.66 0 1 0 1.32 0 .66.66 0 0 0-1.32 0zM.66 26.66c0-.37-.3-.66-.66-.66v1.32c.36 0 .66-.3.66-.66zM43.98 23.33c0-.37-.3-.67-.66-.67h-3.33a.66.66 0 0 0 0 1.33h3.33c.36 0 .66-.3.66-.66zM6 23.33a.66.66 0 1 0 1.33 0 .66.66 0 0 0-1.33 0zM12.67 26.66a.66.66 0 1 0 1.32 0 .66.66 0 0 0-1.32 0zM3.33 26a.66.66 0 0 0 0 1.32H10A.66.66 0 0 0 10 26H3.33zM16 26.66a.66.66 0 1 0 1.32 0 .66.66 0 0 0-1.32 0zM29.33 26.66c0 .36.3.66.66.66h10a.66.66 0 0 0 0-1.32h-10c-.36 0-.66.3-.66.66zM20 12.67a.66.66 0 0 0 0 1.32h6.66a.66.66 0 0 0 0-1.32h-6.67zM39.33 10a.66.66 0 1 0 1.32 0 .66.66 0 0 0-1.32 0zM20 9.34a.66.66 0 0 0 0 1.32h3.33a.66.66 0 0 0 0-1.32h-3.34zM26.66 9.34a.66.66 0 0 0 0 1.32h6.66a.66.66 0 0 0 0-1.32h-6.66zM36 10a.66.66 0 1 0 1.32 0 .66.66 0 0 0-1.33 0zM47.31 10c0-.37-.3-.66-.66-.66h-3.33a.66.66 0 0 0 0 1.32h3.33c.37 0 .66-.3.66-.66zM29.99 7.33a.66.66 0 0 0 0-1.33h-3.34a.66.66 0 0 0 0 1.33H30zM16 10a.66.66 0 1 0 1.32 0A.66.66 0 0 0 16 10zM3.33 9.34a.66.66 0 0 0 0 1.32h10a.66.66 0 0 0 0-1.32h-10zM.66 6.66C.66 6.3.36 6 0 6v1.33c.36 0 .66-.3.66-.67zM26 3.33a.66.66 0 1 0 1.32 0 .66.66 0 0 0-1.32 0zM6 3.33a.66.66 0 1 0 1.33 0 .66.66 0 0 0-1.33 0zM23.99 3.33c0-.36-.3-.66-.66-.66h-6.68a.66.66 0 0 0 .01 1.32h6.67c.36 0 .66-.3.66-.66zM4 3.33c0-.36-.3-.66-.66-.66H0v1.32h3.33C3.7 4 4 3.7 4 3.33zM29.33 3.33a.66.66 0 1 0 1.32 0 .66.66 0 0 0-1.32 0zM40.65 3.33a.66.66 0 1 0-1.33 0 .66.66 0 0 0 1.33 0zM9.33 3.33c0 .37.3.66.67.66h3.33a.66.66 0 0 0 0-1.32H10c-.36 0-.66.3-.66.66zM37.32 3.33c0-.36-.3-.66-.66-.66h-3.35a.66.66 0 0 0 .01 1.32h3.34c.36 0 .66-.3.66-.66zM.66 10c0-.37-.3-.66-.66-.66v1.32c.36 0 .66-.3.66-.66zM9.33 16.66a.66.66 0 1 0 1.33 0 .66.66 0 0 0-1.33 0zM12.67 16.66c0 .36.29.66.65.66h10.01a.66.66 0 0 0 0-1.32h-10c-.37 0-.66.3-.66.66zM29.33 16.66c0 .36.3.66.65.66h3.35a.66.66 0 0 0 0-1.32h-3.34c-.36 0-.66.3-.66.66zM47.31 16.66a.66.66 0 1 0-1.32 0 .66.66 0 0 0 1.32 0zM32.66 13.33a.66.66 0 1 0 1.33 0 .66.66 0 0 0-1.33 0zM2.67 16.66c0 .36.3.66.65.66h3.35a.66.66 0 0 0 0-1.32H3.32c-.36 0-.66.3-.66.66zM36 13.33c0 .36.29.66.65.66H40a.66.66 0 0 0 0-1.32h-3.34c-.36 0-.66.3-.66.66zM27.32 16.66a.66.66 0 1 0-1.33 0 .66.66 0 0 0 1.33 0zM29.33 13.33a.66.66 0 1 0 1.32 0 .66.66 0 0 0-1.32 0zM43.98 16.66c0-.36-.3-.66-.66-.66h-6.67a.66.66 0 0 0 0 1.32h6.68c.36 0 .65-.3.65-.66zM2.67 6.66c0 .37.3.67.66.67h3.33A.66.66 0 0 0 6.67 6H3.32c-.36 0-.65.3-.65.66zM47.31 6.66c0-.36-.29-.65-.65-.66H36.65a.66.66 0 0 0 0 1.33h10c.37 0 .66-.3.66-.67zM22.66 6.66a.66.66 0 1 0 1.33 0 .66.66 0 0 0-1.33 0zM19.33 6.66a.66.66 0 1 0 1.33 0 .66.66 0 0 0-1.33 0zM7.33 13.33c0-.37-.3-.66-.67-.66H0v1.32h6.66c.37 0 .67-.3.67-.66zM32.66 6.66a.66.66 0 1 0 1.33 0 .66.66 0 0 0-1.33 0zM17.32 6.66c0-.36-.29-.65-.65-.66H9.99a.66.66 0 0 0 0 1.33h6.67c.37 0 .66-.3.66-.67zM20 26a.66.66 0 0 0 0 1.32h3.33a.66.66 0 0 0 0-1.32h-3.34zM49.32 49.98h.66v-.66c-.36 0-.66.3-.66.66zM46.65 49.32h-3.33c-.37 0-.66.3-.66.66h4.65c0-.36-.3-.66-.66-.66zM49.32 46.65c0 .37.3.66.66.66V46c-.36 0-.66.3-.66.66zM39.99 49.32c-.37 0-.66.3-.66.66h1.32c0-.36-.3-.66-.66-.66zM49.32 39.99c0 .36.3.66.66.66v-1.32c-.36 0-.66.3-.66.66zM39.33 33.32c0 .37.3.66.66.66h10v-1.32h-10c-.37 0-.66.3-.66.66zM45.99 36.65c0 .37.3.67.66.67h3.33v-1.33h-3.33c-.36 0-.66.3-.66.66zM36.66 49.32h-10c-.37 0-.66.3-.66.66h11.32c0-.36-.3-.66-.66-.66zM49.32 43.32c0 .36.3.66.66.66v-1.32c-.36 0-.66.3-.66.66zM45.99 29.99c0 .37.3.66.66.66h3.33v-1.32h-3.33c-.36 0-.66.3-.66.66zM6 46.65a.66.66 0 1 0 1.33 0 .66.66 0 0 0-1.33 0zM6.66 49.32H0v.66h7.33c0-.36-.3-.66-.67-.66zM47.31 46.65a.66.66 0 1 0-1.32 0 .66.66 0 0 0 1.32 0zM10 45.99a.66.66 0 0 0 0 1.32h10A.66.66 0 0 0 20 46H10zM22.66 46.65a.66.66 0 1 0 1.33 0 .66.66 0 0 0-1.33 0zM20 49.32h-3.34c-.36 0-.66.3-.66.66h4.66c0-.36-.3-.66-.67-.66zM23.33 49.32c-.37 0-.67.3-.67.66H24c0-.36-.3-.66-.66-.66zM13.33 49.32c-.37 0-.66.3-.66.66h1.32c0-.36-.3-.66-.66-.66zM10 49.32c-.37 0-.67.3-.67.66h1.33c0-.36-.3-.66-.66-.66zM23.33.66c.36 0 .66-.3.66-.66h-1.33c0 .36.3.66.67.66zM26.66.66h10c.36 0 .66-.3.66-.66H26c0 .36.3.66.66.66zM16.66.66H20c.37 0 .67-.3.67-.66H16c0 .36.3.66.66.66zM39.99.66c.36 0 .66-.3.66-.66h-1.32c0 .36.3.66.66.66zM45.99 26.66c0 .36.3.66.66.66h3.33V26h-3.33c-.36 0-.66.3-.66.66zM0 .66h6.66c.37 0 .67-.3.67-.66H0v.66zM13.33.66c.36 0 .66-.3.66-.66h-1.32c0 .36.3.66.66.66zM43.32.66h3.33c.37 0 .66-.3.66-.66h-4.65c0 .36.3.66.66.66zM10 .66c.36 0 .66-.3.66-.66H9.33c0 .36.3.66.67.66zM49.32 16.66c0 .37.3.66.66.66V16c-.36 0-.66.3-.66.66zM49.98.66V0h-.66c0 .36.3.66.66.66zM.66 33.32c0-.36-.3-.66-.66-.66v1.32c.36 0 .66-.3.66-.66zM45.99 13.33c0 .36.3.66.66.66h3.33v-1.32h-3.33c-.36 0-.66.3-.66.66zM45.99 20c0 .36.3.66.66.66h3.33v-1.33h-3.33c-.36 0-.66.3-.66.66zM49.32 10c0 .36.3.66.66.66V9.34c-.36 0-.66.3-.66.66zM42.66 3.33c0 .37.3.66.66.66h6.66V2.67h-6.67c-.36 0-.65.3-.65.66zM49.32 6.66c0 .37.3.67.66.67V6c-.36 0-.66.3-.66.66zM45.99 23.33c0 .36.3.66.66.66h3.33v-1.33h-3.33c-.36 0-.66.3-.66.67zM23.33 36a.66.66 0 0 0 0 1.32h3.33a.66.66 0 0 0 0-1.33h-3.33zM29.99 36a.66.66 0 0 0 0 1.32h6.66a.66.66 0 0 0 0-1.33H30zM6.66 36a.66.66 0 0 0 0 1.32h10a.66.66 0 0 0 0-1.33h-10zM39.33 36.65a.66.66 0 1 0 1.32 0 .66.66 0 0 0-1.32 0zM19.33 36.65a.66.66 0 1 0 1.33 0 .66.66 0 0 0-1.33 0zM36 39.99a.66.66 0 1 0 1.32 0 .66.66 0 0 0-1.33 0zM10.66 39.99c0-.37-.3-.66-.66-.66H0v1.32h10c.36 0 .66-.3.66-.66zM43.98 36.65a.66.66 0 1 0-1.32 0 .66.66 0 0 0 1.32 0zM2.67 36.65a.66.66 0 1 0 1.33 0 .66.66 0 0 0-1.33 0zM29.33 33.32c0 .37.3.66.66.66h3.33a.66.66 0 0 0 0-1.32H30c-.36 0-.66.3-.66.66zM22.66 33.32a.66.66 0 1 0 1.33 0 .66.66 0 0 0-1.33 0zM26 33.32a.66.66 0 1 0 1.32 0 .66.66 0 0 0-1.32 0zM13.33 32.66a.66.66 0 0 0 0 1.32h6.66a.66.66 0 0 0 0-1.32h-6.66zM6.66 32.66a.66.66 0 0 0 0 1.32H10a.66.66 0 0 0 0-1.32H6.66zM.66 36.65C.66 36.3.36 36 0 36v1.33c.36 0 .66-.3.66-.67zM37.32 33.32a.66.66 0 1 0-1.33 0 .66.66 0 0 0 1.33 0zM26.66 45.99a.66.66 0 0 0 0 1.32h3.33a.66.66 0 0 0 0-1.32h-3.33zM2.67 33.32a.66.66 0 1 0 1.33 0 .66.66 0 0 0-1.33 0zM2.67 43.32a.66.66 0 1 0 1.33 0 .66.66 0 0 0-1.33 0zM6.66 42.66a.66.66 0 0 0 0 1.32H10a.66.66 0 0 0 0-1.32H6.66zM47.31 43.32c0-.37-.3-.66-.66-.66H40a.66.66 0 0 0 0 1.32h6.66c.37 0 .66-.3.66-.66zM12.67 43.32a.66.66 0 1 0 1.32 0 .66.66 0 0 0-1.32 0zM16.66 42.66a.66.66 0 0 0 0 1.32h10a.66.66 0 0 0 0-1.32h-10zM42.66 46.65a.66.66 0 1 0 1.32 0 .66.66 0 0 0-1.32 0zM39.33 39.99c0 .36.3.66.66.66h3.33a.66.66 0 0 0 0-1.32h-3.33c-.37 0-.66.3-.66.66zM4 46.65c0-.36-.3-.66-.67-.66H0v1.32h3.33c.37 0 .66-.3.66-.66zM33.32 45.99a.66.66 0 0 0 0 1.32H40a.66.66 0 0 0 0-1.32h-6.67zM32.66 43.32c0 .36.3.66.66.66h3.34a.66.66 0 0 0 0-1.32h-3.34c-.36 0-.66.3-.66.66zM23.33 39.33a.66.66 0 0 0 0 1.32h6.66a.66.66 0 0 0 0-1.32h-6.66zM12.67 39.99a.66.66 0 1 0 1.32 0 .66.66 0 0 0-1.32 0zM32.66 39.99a.66.66 0 1 0 1.33 0 .66.66 0 0 0-1.33 0zM16.66 39.33a.66.66 0 0 0 0 1.32H20a.66.66 0 0 0 0-1.32h-3.33zM29.33 43.32a.66.66 0 1 0 1.32 0 .66.66 0 0 0-1.32 0zM.66 43.32c0-.37-.3-.66-.66-.66v1.32c.36 0 .66-.3.66-.66zM47.31 39.99a.66.66 0 1 0-1.32 0 .66.66 0 0 0 1.32 0z"/></g></svg>
