<svg xmlns="http://www.w3.org/2000/svg" viewBox="0 0 15 10"><path fill="#AAA" fill-rule="nonzero" d="M14.952 6.26c-.217-1.5-1.45-2.57-2.847-2.64.35-1.344 1.198-1.88 2.23-2.19.1-.033.084-.137.084-.137L14.25.223s-.016-.085-.15-.068C10.54.57 8.126 3.38 8.576 6.793c.416 2.362 2.198 3.276 3.846 3.035 1.65-.276 2.78-1.862 2.532-3.57zM3.58 3.62c.333-1.344 1.215-1.88 2.23-2.19.1-.033.084-.137.084-.137l-.15-1.07S5.728.14 5.594.156C2.03.552-.366 3.362.05 6.775c.433 2.38 2.23 3.294 3.863 3.053 1.648-.276 2.78-1.862 2.514-3.57C6.21 4.742 4.995 3.673 3.58 3.622z"/></svg>