<svg viewBox="0 0 50 50" xmlns="http://www.w3.org/2000/svg"><path d="M15.7246258 44.8661761c18.8691913 0 29.1872937-15.3362387 29.1872937-28.6347736 0-.4356017-.0090437-.8692379-.0289598-1.3009136 2.0030185-1.4206025 3.7440369-3.193414 5.1170504-5.2114963-1.8380185.8015424-3.8160369 1.3411374-5.8910588 1.584446 2.1180219-1.2459736 3.744037-3.2169612 4.5110453-5.5666485-1.9820201 1.1527687-4.1770419 1.9906124-6.5140654 2.442889C40.2339128 6.2234057 37.5688859 5 34.6178574 5c-5.6650571 0-10.259104 4.5070815-10.259104 10.062935 0 .7897679.09 1.5579555.2660033 2.294744-8.5260839-.4208823-16.0861627-4.4256494-21.1452114-10.5152115-.88101 1.4873169-1.3890134 3.2149975-1.3890134 5.058446 0 3.4916643 1.8110168 6.5742174 4.5650436 8.3774421-1.6830151-.0510157-3.2640319-.5042766-4.646047-1.258726-.00151.0422255-.00151.0833926-.00151.1285218 0 4.8740033 3.5360369 8.9435227 8.2300838 9.8657367-.8620083.2305547-1.7690184.3541695-2.7050268.3541695-.6600067 0-1.3030134-.06373-1.9280184-.1814979 1.3060117 3.9988806 5.0930486 6.9087621 9.5830956 6.9901942-3.5110369 2.6999292-7.9340806 4.307921-12.7411275 4.307921-.8270101 0-1.6440168-.0461498-2.4470252-.1393152 4.540047 2.8549448 9.9311007 4.5208164 15.725156 4.5208164" fill="#1DA1F2" fill-rule="nonzero"/></svg>