<svg viewBox="0 0 50 50" xmlns="http://www.w3.org/2000/svg"><g fill-rule="nonzero" fill="none"><path d="M43.355625 6.6155804c-4.6428571-6.645134-13.8125-8.6147768-20.4425893-4.3905358L11.2689732 9.6463393c-3.1806204 2.0009954-5.3713914 5.2490525-6.0350893 8.9476786-.5554475 3.0811821-.0672419 6.2596086 1.3873215 9.0320535-.9967054 1.5119425-1.6765016 3.2102788-1.9983036 4.9923661-.6701145 3.7696515.2064591 7.6503238 2.4318303 10.7659375 4.6438393 6.6457589 13.8135268 8.6145536 20.4425893 4.3905357l11.6440625-7.4212946c3.1808453-2.0007634 5.3716909-5.2489311 6.0350893-8.9476786.5553738-3.0811459.0675511-6.2595105-1.3862946-9.0322768.9964454-1.5119078 1.6759561-3.2101756 1.9974553-4.9921428.6705575-3.7696618-.2060548-7.650505-2.4318303-10.7659375" fill="#FF3E00"/><path d="M21.7754911 44.0095982c-3.7532943.9759242-7.7168585-.4932455-9.9272768-3.6797321-1.3385332-1.8735294-1.8658146-4.2073199-1.4627679-6.4743304a8.1199127 8.1199127 0 01.278259-1.0873661l.2192857-.6686607.5965625.4381697c1.3777157 1.0123058 2.9181498 1.7819642 4.5549107 2.2758035l.4327678.1312947-.039866.4319196c-.05288.6144569.1134977 1.2277928.4696428 1.7312947.6652105.959836 1.8585691 1.4027647 2.9889286 1.109375a2.5646873 2.5646873 0 00.7152232-.3143304l11.644375-7.4204464c.5760912-.3627555.9731143-.9510158 1.0940179-1.6209822.1206944-.683275-.0381475-1.3863939-.4408482-1.9514285-.6656082-.9600352-1.8592651-1.4031521-2.9900893-1.11a2.5637045 2.5637045 0 00-.7142857.3141071l-4.4433929 2.8325447a8.4968327 8.4968327 0 01-2.3645089 1.0383482c-3.7532627.9758669-7.7167645-.4933174-9.9271429-3.6797768-1.3385871-1.8734882-1.8658742-4.207288-1.4627678-6.4742857.399033-2.2241052 1.7166125-4.1771859 3.6294642-5.3800447L26.2693304 7.03a8.4838378 8.4838378 0 012.3660714-1.0395982c3.7532384-.975842 7.716706.4933184 9.9270982 3.6797321 1.3385332 1.8735294 1.8658146 4.2073199 1.4627679 6.4743304a8.2142959 8.2142959 0 01-.278259 1.0873661l-.2192857.6686607-.59625-.4375c-1.3776187-1.0128849-2.9182007-1.7828966-4.5552232-2.2767857l-.4327679-.1313393.0398661-.4319197c.0524252-.614402-.1139113-1.2275702-.4696428-1.73125-.6652105-.959836-1.8585691-1.4027647-2.9889286-1.109375a2.5646873 2.5646873 0 00-.7152232.3143304l-11.644375 7.4207589c-.5760124.3624702-.9728118.9506933-1.0931697 1.6205357-.1214413.683243.0371337 1.386614.44 1.9516518.6656165.9600244 1.8592657 1.4031384 2.9900893 1.11a2.5737493 2.5737493 0 00.7151786-.3143303l4.4428125-2.8314733a8.4723213 8.4723213 0 012.3642411-1.0391964c3.7532626-.9758669 7.7167644.4933174 9.9271428 3.6797768 1.3385871 1.8734882 1.8658742 4.2072879 1.4627679 6.4742857-.3992946 2.2242208-1.7167792 4.1774687-3.6294643 5.3808929L24.1413839 42.97a8.4838366 8.4838366 0 01-2.3660714 1.0395982" fill="#FFF"/></g></svg>