<svg viewBox="0 0 420 140" xmlns="http://www.w3.org/2000/svg"><g fill="none" fill-rule="evenodd"><path d="M322 2v36h96V2h-96zm-2-2h100v40H320V0zM322 52v36h96V52h-96zm-2-2h100v40H320V50zM322 102v36h96v-36h-96zm-2-2h100v40H320v-40z" fill="#000" fill-rule="nonzero"/><path d="M348.23 24.087h-4.74L342.572 27h-2.737l4.648-13.508h2.774L351.886 27h-2.737l-.918-2.913zm-4.072-2.125h3.405l-1.67-5.306h-.056l-1.679 5.306zm17.822.297c0 1.485-.344 2.678-1.03 3.581-.687.903-1.645 1.355-2.876 1.355-.526 0-.993-.098-1.4-.292a2.877 2.877 0 0 1-1.05-.859v4.815h-2.699V16.962h2.44l.158 1.187c.297-.439.654-.777 1.071-1.015.418-.239.905-.358 1.461-.358 1.244 0 2.208.486 2.895 1.457.686.97 1.03 2.248 1.03 3.831v.195zm-2.71-.195c0-.946-.157-1.713-.472-2.3-.316-.588-.798-.882-1.448-.882-.408 0-.756.084-1.043.25a1.787 1.787 0 0 0-.682.715v4.398c.167.284.394.5.682.649.287.148.641.223 1.062.223.655 0 1.136-.257 1.443-.77.306-.514.459-1.21.459-2.088v-.195zm13.434.195c0 1.485-.343 2.678-1.03 3.581-.686.903-1.645 1.355-2.875 1.355-.526 0-.993-.098-1.401-.292a2.877 2.877 0 0 1-1.049-.859v4.815h-2.7V16.962h2.44l.158 1.187c.297-.439.654-.777 1.072-1.015.417-.239.904-.358 1.461-.358 1.243 0 2.208.486 2.895 1.457.686.97 1.03 2.248 1.03 3.831v.195zm-2.709-.195c0-.946-.157-1.713-.473-2.3-.315-.588-.798-.882-1.447-.882-.408 0-.756.084-1.044.25a1.787 1.787 0 0 0-.682.715v4.398c.167.284.395.5.682.649.288.148.642.223 1.063.223.655 0 1.136-.257 1.442-.77.306-.514.46-1.21.46-2.088v-.195zm14.102 1.132h-1.781L381.657 27h-1.707l.668-3.804h-2.106v-1.568h2.375l.473-2.69h-2.152v-1.586h2.43l.678-3.86h1.697l-.677 3.86h1.781l.687-3.86h1.698l-.678 3.86h2.041v1.586h-2.319l-.473 2.69h2.087v1.568h-2.356L385.136 27h-1.707l.668-3.804zm-1.503-1.568h1.772l.473-2.69h-1.781l-.464 2.69zM396.417 27h-2.709V15.886h-2.746v-1.911l5.455-.483V27zM348.23 74.087h-4.74L342.572 77h-2.737l4.648-13.508h2.774L351.886 77h-2.737l-.918-2.913zm-4.072-2.125h3.405l-1.67-5.306h-.056l-1.679 5.306zm17.822.297c0 1.485-.344 2.678-1.03 3.581-.687.903-1.645 1.355-2.876 1.355-.526 0-.993-.098-1.4-.292a2.877 2.877 0 0 1-1.05-.859v4.815h-2.699V66.962h2.44l.158 1.187c.297-.439.654-.777 1.071-1.015.418-.239.905-.358 1.461-.358 1.244 0 2.208.486 2.895 1.457.686.97 1.03 2.248 1.03 3.831v.195zm-2.71-.195c0-.946-.157-1.713-.472-2.3-.316-.588-.798-.882-1.448-.882-.408 0-.756.084-1.043.25a1.787 1.787 0 0 0-.682.715v4.398c.167.284.394.5.682.649.287.148.641.223 1.062.223.655 0 1.136-.257 1.443-.77.306-.514.459-1.21.459-2.088v-.195zm13.434.195c0 1.485-.343 2.678-1.03 3.581-.686.903-1.645 1.355-2.875 1.355-.526 0-.993-.098-1.401-.292a2.877 2.877 0 0 1-1.049-.859v4.815h-2.7V66.962h2.44l.158 1.187c.297-.439.654-.777 1.072-1.015.417-.239.904-.358 1.461-.358 1.243 0 2.208.486 2.895 1.457.686.97 1.03 2.248 1.03 3.831v.195zm-2.709-.195c0-.946-.157-1.713-.473-2.3-.315-.588-.798-.882-1.447-.882-.408 0-.756.084-1.044.25a1.787 1.787 0 0 0-.682.715v4.398c.167.284.395.5.682.649.288.148.642.223 1.063.223.655 0 1.136-.257 1.442-.77.306-.514.46-1.21.46-2.088v-.195zm14.102 1.132h-1.781L381.657 77h-1.707l.668-3.804h-2.106v-1.568h2.375l.473-2.69h-2.152v-1.586h2.43l.678-3.86h1.697l-.677 3.86h1.781l.687-3.86h1.698l-.678 3.86h2.041v1.586h-2.319l-.473 2.69h2.087v1.568h-2.356L385.136 77h-1.707l.668-3.804zm-1.503-1.568h1.772l.473-2.69h-1.781l-.464 2.69zM399.516 77h-9.222v-1.772l4.37-4.685c.63-.724 1.08-1.334 1.345-1.832.266-.498.399-.96.399-1.387 0-.57-.153-1.035-.46-1.397-.305-.361-.74-.542-1.303-.542-.624 0-1.1.212-1.424.635-.325.424-.487.988-.487 1.693H390.1l-.018-.055c-.031-1.219.37-2.25 1.201-3.094.832-.845 1.953-1.267 3.363-1.267 1.392 0 2.485.362 3.28 1.086.795.723 1.192 1.688 1.192 2.894 0 .817-.224 1.57-.673 2.26-.448.689-1.189 1.594-2.222 2.713l-2.402 2.625.018.047h5.678V77zM348.23 124.087h-4.74l-.918 2.913h-2.737l4.648-13.508h2.774L351.886 127h-2.737l-.918-2.913zm-4.072-2.125h3.405l-1.67-5.306h-.056l-1.679 5.306zm17.822.297c0 1.485-.344 2.678-1.03 3.581-.687.903-1.645 1.355-2.876 1.355-.526 0-.993-.098-1.4-.292a2.877 2.877 0 0 1-1.05-.859v4.815h-2.699v-13.897h2.44l.158 1.187c.297-.439.654-.777 1.071-1.015.418-.239.905-.358 1.461-.358 1.244 0 2.208.486 2.895 1.457.686.97 1.03 2.248 1.03 3.831v.195zm-2.71-.195c0-.946-.157-1.713-.472-2.3-.316-.588-.798-.882-1.448-.882-.408 0-.756.084-1.043.25a1.787 1.787 0 0 0-.682.715v4.398c.167.284.394.5.682.649.287.148.641.223 1.062.223.655 0 1.136-.257 1.443-.77.306-.514.459-1.21.459-2.088v-.195zm13.434.195c0 1.485-.343 2.678-1.03 3.581-.686.903-1.645 1.355-2.875 1.355-.526 0-.993-.098-1.401-.292a2.877 2.877 0 0 1-1.049-.859v4.815h-2.7v-13.897h2.44l.158 1.187c.297-.439.654-.777 1.072-1.015.417-.239.904-.358 1.461-.358 1.243 0 2.208.486 2.895 1.457.686.97 1.03 2.248 1.03 3.831v.195zm-2.709-.195c0-.946-.157-1.713-.473-2.3-.315-.588-.798-.882-1.447-.882-.408 0-.756.084-1.044.25a1.787 1.787 0 0 0-.682.715v4.398c.167.284.395.5.682.649.288.148.642.223 1.063.223.655 0 1.136-.257 1.442-.77.306-.514.46-1.21.46-2.088v-.195zm14.102 1.132h-1.781l-.659 3.804h-1.707l.668-3.804h-2.106v-1.568h2.375l.473-2.69h-2.152v-1.586h2.43l.678-3.86h1.697l-.677 3.86h1.781l.687-3.86h1.698l-.678 3.86h2.041v1.586h-2.319l-.473 2.69h2.087v1.568h-2.356l-.668 3.804h-1.707l.668-3.804zm-1.503-1.568h1.772l.473-2.69h-1.781l-.464 2.69zm10.437-2.532h1.521c.644 0 1.12-.169 1.43-.506.308-.337.463-.805.463-1.405 0-.545-.155-.98-.464-1.309-.309-.327-.757-.491-1.345-.491-.507 0-.934.148-1.28.445-.347.297-.52.687-.52 1.169h-2.625l-.019-.056c-.037-1.057.368-1.93 1.215-2.616.848-.686 1.9-1.03 3.155-1.03 1.398 0 2.512.334 3.344 1.002.832.668 1.248 1.62 1.248 2.858 0 .587-.185 1.145-.557 1.674-.37.53-.88.942-1.53 1.239.748.266 1.319.674 1.711 1.224.393.55.59 1.191.59 1.92 0 1.238-.45 2.21-1.35 2.919-.9.708-2.052 1.062-3.456 1.062-1.256 0-2.333-.333-3.233-.997-.9-.665-1.335-1.604-1.304-2.816l.019-.056h2.625c0 .52.186.948.557 1.285.37.337.841.506 1.41.506.625 0 1.118-.173 1.48-.52.362-.346.542-.816.542-1.41 0-.711-.177-1.232-.533-1.563-.356-.331-.88-.497-1.573-.497h-1.521v-2.031zM112.505 28.16h-2.635l4.954-14.668h2.635zM112.505 78.16h-2.635l4.954-14.668h2.635l-4.954 14.668zm11.615-3.925c0-.297-.144-.553-.431-.77-.288-.216-.821-.408-1.6-.575-1.188-.241-2.083-.598-2.686-1.071-.603-.474-.905-1.118-.905-1.935 0-.866.363-1.6 1.09-2.203.727-.603 1.7-.905 2.918-.905 1.28 0 2.3.3 3.057.9.757.6 1.12 1.358 1.09 2.273l-.019.056h-2.616c0-.402-.128-.73-.385-.984-.257-.253-.632-.38-1.127-.38-.44 0-.784.107-1.035.32a1.01 1.01 0 0 0-.375.803c0 .309.131.562.394.76.263.198.796.375 1.6.53 1.237.247 2.156.61 2.756 1.09.6.479.9 1.139.9 1.98 0 .903-.387 1.64-1.16 2.213-.773.572-1.794.858-3.062.858-1.336 0-2.392-.339-3.168-1.016-.776-.677-1.146-1.449-1.108-2.315l.018-.055h2.477c.019.538.195.927.529 1.169.334.24.77.361 1.308.361.501 0 .883-.099 1.146-.297a.957.957 0 0 0 .394-.807zm7.014-6.002a3.448 3.448 0 0 1 1.16-1.072 3.057 3.057 0 0 1 1.52-.385c1.046 0 1.867.348 2.464 1.044.597.696.895 1.77.895 3.224V77h-2.709v-5.975c0-.779-.137-1.33-.412-1.656-.276-.324-.685-.487-1.23-.487-.37 0-.699.067-.983.2-.285.133-.52.32-.705.561V77h-2.71V62.527h2.71v5.706zm7.663 3.655c0-1.497.417-2.723 1.252-3.678.835-.956 1.992-1.434 3.47-1.434 1.484 0 2.647.477 3.488 1.43.841.952 1.262 2.18 1.262 3.682v.195c0 1.51-.419 2.738-1.257 3.688-.838.95-1.996 1.424-3.474 1.424-1.485 0-2.646-.475-3.484-1.424-.838-.95-1.257-2.179-1.257-3.688v-.195zm2.7.195c0 .915.16 1.65.482 2.203.322.554.841.83 1.559.83.698 0 1.21-.278 1.535-.834.325-.557.487-1.29.487-2.199v-.195c0-.89-.164-1.617-.492-2.18-.327-.563-.844-.844-1.549-.844-.699 0-1.21.283-1.535.849-.325.566-.487 1.29-.487 2.175v.195zm17.497.176c0 1.485-.344 2.678-1.03 3.581-.687.903-1.645 1.355-2.876 1.355-.526 0-.993-.098-1.401-.292a2.877 2.877 0 0 1-1.048-.859v4.815h-2.7V66.962h2.44l.158 1.187c.296-.439.654-.777 1.071-1.015.418-.239.905-.358 1.461-.358 1.244 0 2.208.486 2.895 1.457.686.97 1.03 2.248 1.03 3.831v.195zm-2.71-.195c0-.946-.157-1.713-.472-2.3-.316-.588-.798-.882-1.448-.882-.408 0-.756.084-1.043.25a1.787 1.787 0 0 0-.682.715v4.398c.167.284.394.5.682.649.287.148.641.223 1.062.223.655 0 1.136-.257 1.442-.77.307-.514.46-1.21.46-2.088v-.195zM112.505 128.16h-2.635l4.954-14.668h2.635l-4.954 14.668zm8.702-11.198l.111 1.327a3.372 3.372 0 0 1 1.211-1.118c.486-.263 1.047-.395 1.684-.395.643 0 1.194.143 1.651.427.458.285.804.714 1.04 1.29a3.48 3.48 0 0 1 1.205-1.262c.495-.303 1.077-.455 1.745-.455.99 0 1.77.342 2.342 1.026.572.683.858 1.724.858 3.121V127h-2.709v-6.086c0-.76-.123-1.29-.37-1.586-.248-.297-.616-.446-1.105-.446-.383 0-.716.085-.997.255-.282.17-.506.407-.673.71 0 .118.003.218.01.302.006.083.009.168.009.255V127h-2.7v-6.086c0-.742-.124-1.266-.371-1.572-.247-.307-.619-.46-1.113-.46-.365 0-.685.07-.96.21-.276.138-.503.335-.682.588V127h-2.7v-10.038h2.514zm17.543 5.826l.112.557h.055l1.92-6.383h2.914l-4.073 11.54c-.284.718-.67 1.323-1.16 1.815-.488.491-1.221.737-2.198.737a3.4 3.4 0 0 1-.636-.055c-.194-.038-.431-.09-.71-.158l.316-1.976.26.037c.093.012.176.018.25.018.446 0 .789-.11 1.03-.329.241-.22.427-.493.557-.821l.315-.78-3.562-10.028h2.913l1.697 5.826zm11.328-.52h-5.232v-2.087h5.232v2.088zm8.08 4.732a5.698 5.698 0 0 1-.254-.724 5.034 5.034 0 0 1-.154-.779 3.733 3.733 0 0 1-1.099 1.215c-.454.322-.997.483-1.628.483-1.051 0-1.862-.27-2.43-.812-.57-.541-.854-1.279-.854-2.213 0-.983.379-1.745 1.136-2.286.758-.542 1.863-.812 3.317-.812h1.512v-.798c0-.482-.127-.857-.38-1.123-.254-.266-.628-.399-1.123-.399-.439 0-.778.107-1.016.32-.238.214-.357.51-.357.886l-2.616-.009-.01-.055c-.043-.848.325-1.58 1.105-2.195.779-.615 1.803-.923 3.07-.923 1.2 0 2.174.305 2.923.914.748.61 1.122 1.477 1.122 2.602v4.147c0 .47.036.913.107 1.327.071.415.184.826.339 1.234h-2.71zm-2.476-1.81c.476 0 .9-.117 1.27-.352.372-.235.622-.507.752-.816v-1.42h-1.512c-.575 0-1.011.144-1.308.432a1.4 1.4 0 0 0-.446 1.044c0 .334.112.603.334.807.223.204.526.306.91.306zm11.003-.073c.482 0 .869-.141 1.16-.422.29-.282.435-.658.435-1.128h2.459l.028.056c.024 1.014-.358 1.863-1.146 2.547-.789.683-1.767 1.025-2.936 1.025-1.497 0-2.65-.473-3.46-1.42-.811-.946-1.216-2.161-1.216-3.646v-.278c0-1.478.403-2.693 1.21-3.646.808-.952 1.96-1.429 3.456-1.429 1.237 0 2.235.353 2.992 1.058.758.705 1.124 1.633 1.1 2.783l-.019.056h-2.468c0-.52-.142-.951-.426-1.294-.285-.344-.678-.515-1.179-.515-.717 0-1.223.278-1.517.835-.293.556-.44 1.274-.44 2.152v.278c0 .897.147 1.62.44 2.167.294.547.803.82 1.527.82zm9.834 0c.482 0 .869-.141 1.16-.422.29-.282.435-.658.435-1.128h2.459l.028.056c.024 1.014-.358 1.863-1.146 2.547-.789.683-1.767 1.025-2.936 1.025-1.497 0-2.65-.473-3.46-1.42-.811-.946-1.216-2.161-1.216-3.646v-.278c0-1.478.403-2.693 1.21-3.646.808-.952 1.96-1.429 3.456-1.429 1.237 0 2.235.353 2.992 1.058.758.705 1.124 1.633 1.1 2.783l-.019.056h-2.468c0-.52-.142-.951-.427-1.294-.284-.344-.677-.515-1.178-.515-.717 0-1.223.278-1.517.835-.293.556-.44 1.274-.44 2.152v.278c0 .897.147 1.62.44 2.167.294.547.803.82 1.527.82zm5.204-3.229c0-1.497.418-2.723 1.253-3.678.835-.956 1.991-1.434 3.47-1.434 1.484 0 2.646.477 3.488 1.43.84.952 1.261 2.18 1.261 3.682v.195c0 1.51-.419 2.738-1.257 3.688-.838.95-1.996 1.424-3.474 1.424-1.485 0-2.646-.475-3.484-1.424-.838-.95-1.257-2.179-1.257-3.688v-.195zm2.7.195c0 .915.16 1.65.482 2.203.322.554.841.83 1.559.83.699 0 1.21-.278 1.535-.834.325-.557.487-1.29.487-2.199v-.195c0-.89-.164-1.617-.491-2.18-.328-.563-.845-.844-1.55-.844-.699 0-1.21.283-1.535.849-.325.566-.487 1.29-.487 2.175v.195zm14.575 3.47a3.37 3.37 0 0 1-1.179 1.215c-.476.285-1.023.427-1.642.427-1.057 0-1.885-.339-2.481-1.016-.597-.677-.896-1.73-.896-3.159v-6.058h2.7v6.077c0 .73.124 1.254.371 1.572.247.319.612.478 1.095.478.433 0 .804-.07 1.113-.209.31-.139.563-.345.76-.617v-7.301h2.71V127h-2.31l-.241-1.447zm7.069-8.591l.12 1.438a3.672 3.672 0 0 1 1.234-1.197 3.203 3.203 0 0 1 1.642-.427c1.015 0 1.806.319 2.375.956.57.637.854 1.636.854 2.997V127h-2.718v-6.262c0-.674-.136-1.152-.408-1.434-.273-.281-.684-.422-1.234-.422-.36 0-.68.073-.965.218a1.983 1.983 0 0 0-.715.617V127h-2.709v-10.038h2.524zm11.467-2.459v2.459h1.688v1.902h-1.688v5.112c0 .39.08.668.24.835.162.167.378.25.65.25.143 0 .265-.008.367-.023.102-.016.22-.042.357-.079l.232 1.958a4.808 4.808 0 0 1-1.642.278c-.934 0-1.653-.257-2.157-.77-.504-.514-.756-1.327-.756-2.44v-5.121h-1.466v-1.902h1.466v-2.459h2.709zM20 20a6.665 6.665 0 0 0 6.667-6.667A6.665 6.665 0 0 0 20 6.667a6.665 6.665 0 0 0-6.667 6.666A6.665 6.665 0 0 0 20 20zm0 3.333c-4.45 0-13.333 2.234-13.333 6.667v3.333h26.666V30c0-4.433-8.883-6.667-13.333-6.667z" fill="#000" fill-rule="nonzero"/><path d="M0 0h40v40H0z"/><path d="M86 21H40.5a1 1 0 0 1 0-2H86v-6l14 7-14 7v-6zM296 21h-45.5a1 1 0 1 1 0-2H296v-6l14 7-14 7v-6zM296 71h-45.5a1 1 0 1 1 0-2H296v-6l14 7-14 7v-6zM296 121h-45.5a1 1 0 1 1 0-2H296v-6l14 7-14 7v-6zM87.426 63.764L39.993 35.862a1 1 0 1 1 1.014-1.724L88.44 62.04l3.042-5.172L100 70l-15.616-1.065 3.042-5.171zM90.13 110.021l-50.89-59.37a1 1 0 1 1 1.52-1.302l50.888 59.37 4.556-3.904L100 120l-14.426-6.074 4.556-3.905z" fill="#000" fill-rule="nonzero"/></g></svg>