<?xml version="1.0" encoding="utf-8"?>
<!-- Generator: Adobe Illustrator 18.1.0, SVG Export Plug-In . SVG Version: 6.00 Build 0)  -->
<!DOCTYPE svg PUBLIC "-//W3C//DTD SVG 1.1//EN" "http://www.w3.org/Graphics/SVG/1.1/DTD/svg11.dtd">
<svg version="1.1"
	 id="svg2759" inkscape:version="0.45+devel" sodipodi:version="0.32" sodipodi:docname="by-sa.svg" inkscape:output_extension="org.inkscape.output.svg.inkscape" xmlns:cc="http://web.resource.org/cc/" xmlns:sodipodi="http://sodipodi.sourceforge.net/DTD/sodipodi-0.dtd" xmlns:rdf="http://www.w3.org/1999/02/22-rdf-syntax-ns#" xmlns:svg="http://www.w3.org/2000/svg" xmlns:inkscape="http://www.inkscape.org/namespaces/inkscape" xmlns:dc="http://purl.org/dc/elements/1.1/"
	 xmlns="http://www.w3.org/2000/svg" xmlns:xlink="http://www.w3.org/1999/xlink" x="0px" y="0px" viewBox="-164 205 120 42"
	 style="enable-background:new -164 205 120 42;" xml:space="preserve">
<g>
	<path id="path5906_2_" style="fill:#FFFFFF;" d="M-129.5,224.6c0,7.5-6.1,13.6-13.6,13.6c-7.5,0-13.6-6.1-13.6-13.6c0,0,0,0,0,0
		c0-7.5,6.1-13.6,13.6-13.6C-135.6,210.9-129.5,217-129.5,224.6C-129.5,224.6-129.5,224.6-129.5,224.6z"/>
	<path id="path5708_2_" d="M-132,213.5c3,3,4.5,6.7,4.5,11.1c0,4.4-1.5,8-4.5,11c-3.2,3.1-6.9,4.7-11.2,4.7c-4.2,0-7.9-1.5-11-4.6
		c-3.1-3.1-4.6-6.8-4.6-11c0-4.3,1.5-8,4.6-11.1c3-3,6.7-4.5,11-4.5C-138.8,208.9-135.1,210.4-132,213.5z M-152.1,215.5
		c-2.6,2.6-3.8,5.6-3.8,9.1c0,3.5,1.3,6.5,3.8,9c2.5,2.5,5.5,3.8,9,3.8c3.5,0,6.5-1.3,9.1-3.8c2.5-2.4,3.7-5.4,3.7-9
		c0-3.6-1.2-6.6-3.7-9.1c-2.5-2.5-5.5-3.7-9.1-3.7C-146.6,211.7-149.6,213-152.1,215.5z M-145.4,223.1c-0.4-0.9-1-1.3-1.8-1.3
		c-1.4,0-2.1,0.9-2.1,2.8c0,1.9,0.7,2.8,2.1,2.8c0.9,0,1.6-0.5,2-1.4l1.9,1c-0.9,1.6-2.3,2.4-4.1,2.4c-1.4,0-2.5-0.4-3.4-1.3
		c-0.8-0.9-1.3-2-1.3-3.6c0-1.5,0.4-2.7,1.3-3.5c0.9-0.9,2-1.3,3.3-1.3c1.9,0,3.3,0.8,4.1,2.3L-145.4,223.1z M-136.4,223.1
		c-0.4-0.9-1-1.3-1.7-1.3c-1.4,0-2.1,0.9-2.1,2.8c0,1.9,0.7,2.8,2.1,2.8c0.9,0,1.6-0.5,1.9-1.4l2,1c-0.9,1.6-2.3,2.4-4.1,2.4
		c-1.4,0-2.5-0.4-3.4-1.3c-0.8-0.9-1.3-2-1.3-3.6c0-1.5,0.4-2.7,1.3-3.5c0.9-0.9,1.9-1.3,3.3-1.3c1.9,0,3.3,0.8,4.1,2.3
		L-136.4,223.1z"/>
	<path id="path294" d="M-46.2,205h-115.5c-1.2,0-2.2,1-2.2,2.2v39.2c0,0.3,0.2,0.5,0.5,0.5h119c0.3,0,0.5-0.2,0.5-0.5v-39.2
		C-44,206-45,205-46.2,205z M-161.8,206h115.5c0.7,0,1.2,0.6,1.2,1.2c0,0,0,15.8,0,27.2h-82.6c-3,5.5-8.9,9.2-15.5,9.2
		c-6.7,0-12.5-3.7-15.5-9.2h-4.3c0-11.4,0-27.2,0-27.2C-163,206.6-162.4,206-161.8,206z"/>
	<path id="path298" style="fill:#FFFFFF;" d="M-77.7,242.7c0.1,0.2,0.2,0.3,0.3,0.4c0.1,0.1,0.3,0.2,0.5,0.2c0.2,0,0.4,0.1,0.6,0.1
		c0.1,0,0.3,0,0.4,0c0.1,0,0.3-0.1,0.4-0.1c0.1-0.1,0.2-0.1,0.3-0.3c0.1-0.1,0.1-0.2,0.1-0.4c0-0.2-0.1-0.3-0.2-0.4
		c-0.1-0.1-0.3-0.2-0.4-0.3c-0.2-0.1-0.4-0.1-0.6-0.2c-0.2-0.1-0.5-0.1-0.7-0.2c-0.2-0.1-0.5-0.1-0.7-0.2c-0.2-0.1-0.4-0.2-0.6-0.3
		c-0.2-0.1-0.3-0.3-0.4-0.5c-0.1-0.2-0.2-0.5-0.2-0.8c0-0.3,0.1-0.6,0.2-0.9c0.1-0.3,0.3-0.5,0.6-0.6c0.2-0.2,0.5-0.3,0.8-0.4
		c0.3-0.1,0.6-0.1,0.9-0.1c0.3,0,0.7,0,1,0.1c0.3,0.1,0.6,0.2,0.8,0.4c0.2,0.2,0.4,0.4,0.6,0.7c0.1,0.3,0.2,0.6,0.2,1h-1.4
		c0-0.2-0.1-0.4-0.1-0.5c-0.1-0.1-0.2-0.2-0.3-0.3c-0.1-0.1-0.3-0.1-0.4-0.2c-0.2,0-0.3,0-0.5,0c-0.1,0-0.2,0-0.4,0
		c-0.1,0-0.2,0.1-0.3,0.1c-0.1,0.1-0.2,0.1-0.2,0.2c-0.1,0.1-0.1,0.2-0.1,0.4c0,0.1,0,0.2,0.1,0.3c0,0.1,0.1,0.2,0.3,0.2
		c0.1,0.1,0.3,0.1,0.6,0.2c0.3,0.1,0.6,0.2,1,0.3c0.1,0,0.3,0.1,0.5,0.1s0.4,0.2,0.7,0.3c0.2,0.1,0.4,0.3,0.6,0.6
		c0.2,0.2,0.2,0.5,0.2,0.9c0,0.3-0.1,0.6-0.2,0.8c-0.1,0.3-0.3,0.5-0.5,0.7c-0.2,0.2-0.5,0.3-0.9,0.4c-0.3,0.1-0.7,0.2-1.2,0.2
		c-0.4,0-0.7,0-1.1-0.1c-0.3-0.1-0.6-0.2-0.9-0.4c-0.3-0.2-0.5-0.4-0.6-0.7c-0.2-0.3-0.2-0.6-0.2-1.1h1.4
		C-77.9,242.4-77.8,242.6-77.7,242.7z"/>
	<path id="path300" style="fill:#FFFFFF;" d="M-69.5,237.7l2.5,6.6h-1.5l-0.5-1.5h-2.5l-0.5,1.5h-1.5l2.5-6.6H-69.5z M-69.4,241.8
		l-0.8-2.4h0l-0.9,2.4H-69.4z"/>
	<path id="path304" style="fill:#FFFFFF;" d="M-104,237.7c0.3,0,0.6,0,0.9,0.1c0.3,0.1,0.5,0.1,0.7,0.3c0.2,0.1,0.3,0.3,0.4,0.5
		c0.1,0.2,0.2,0.5,0.2,0.8c0,0.3-0.1,0.6-0.2,0.8c-0.2,0.2-0.4,0.4-0.7,0.5c0.4,0.1,0.7,0.3,0.9,0.6c0.2,0.3,0.3,0.6,0.3,1.1
		c0,0.3-0.1,0.6-0.2,0.9c-0.1,0.2-0.3,0.4-0.5,0.6c-0.2,0.2-0.5,0.3-0.8,0.3c-0.3,0.1-0.6,0.1-0.9,0.1h-3.2v-6.6H-104L-104,237.7z
		 M-104.2,240.4c0.3,0,0.5-0.1,0.6-0.2c0.2-0.1,0.3-0.3,0.3-0.6c0-0.2,0-0.3-0.1-0.4c-0.1-0.1-0.1-0.2-0.2-0.2
		c-0.1-0.1-0.2-0.1-0.3-0.1c-0.1,0-0.2,0-0.4,0h-1.4v1.5H-104.2z M-104.1,243.2c0.1,0,0.3,0,0.4,0c0.1,0,0.2-0.1,0.3-0.1
		c0.1-0.1,0.2-0.2,0.2-0.3c0.1-0.1,0.1-0.3,0.1-0.4c0-0.3-0.1-0.6-0.3-0.7c-0.2-0.1-0.4-0.2-0.8-0.2h-1.6v1.8H-104.1z"/>
	<path id="path306" style="fill:#FFFFFF;" d="M-101.3,237.7h1.6l1.6,2.6l1.5-2.6h1.6l-2.5,4.1v2.5h-1.5v-2.6L-101.3,237.7z"/>
	<path id="path6318_1_" style="fill:#FFFFFF;" d="M-61.6,220c0,5.8-4.7,10.6-10.6,10.6c-5.8,0-10.6-4.7-10.6-10.6c0,0,0,0,0,0
		c0-5.8,4.7-10.6,10.6-10.6C-66.3,209.4-61.6,214.1-61.6,220C-61.6,220-61.6,220-61.6,220z"/>
	<path id="path6322_1_" d="M-72.3,208.4c-3.2,0-5.9,1.1-8.2,3.4c-2.3,2.3-3.4,5.1-3.4,8.2s1.1,5.9,3.4,8.2c2.3,2.3,5,3.4,8.2,3.4
		c3.2,0,6-1.1,8.3-3.4c2.2-2.2,3.3-4.9,3.3-8.1c0-3.2-1.1-6-3.4-8.2C-66.3,209.5-69,208.4-72.3,208.4z M-72.2,210.5
		c2.6,0,4.9,0.9,6.7,2.8c1.9,1.8,2.8,4.1,2.8,6.7c0,2.7-0.9,4.9-2.7,6.6c-1.9,1.9-4.2,2.8-6.8,2.8c-2.6,0-4.8-0.9-6.7-2.8
		c-1.9-1.9-2.8-4.1-2.8-6.7c0-2.6,0.9-4.8,2.8-6.7C-77.1,211.4-74.9,210.5-72.2,210.5z"/>
	<path id="path6324_1_" d="M-77.4,218.3c0.5-2.9,2.5-4.5,5.1-4.5c3.7,0,6,2.7,6,6.3c0,3.5-2.4,6.2-6,6.2c-2.5,0-4.7-1.5-5.1-4.5h2.9
		c0.1,1.6,1.1,2.1,2.5,2.1c1.6,0,2.7-1.5,2.7-3.9c0-2.5-0.9-3.8-2.7-3.8c-1.3,0-2.4,0.5-2.6,2.1l0.9,0l-2.3,2.3l-2.3-2.3
		L-77.4,218.3z"/>
	
		<circle id="circle315" sodipodi:ry="10.8064" sodipodi:rx="10.8064" sodipodi:cy="90.224609" sodipodi:cx="242.56226" style="fill:#FFFFFF;" cx="-100.6" cy="220.2" r="10.7">
	</circle>
	<path id="path319" d="M-97.5,217.1c0-0.4-0.3-0.7-0.7-0.7h-4.7c-0.4,0-0.7,0.3-0.7,0.7v4.7h1.3v5.6h3.6v-5.6h1.3L-97.5,217.1
		L-97.5,217.1z"/>
	
		<circle id="circle321" sodipodi:ry="1.63232" sodipodi:rx="1.63232" sodipodi:cy="84.083008" sodipodi:cx="242.5498" cx="-100.7" cy="214.1" r="1.6">
	</circle>
	<path id="path323" d="M-100.7,208.4c-3.2,0-5.9,1.1-8.2,3.4c-2.3,2.3-3.4,5.1-3.4,8.2s1.1,5.9,3.4,8.2c2.3,2.3,5,3.4,8.2,3.4
		c3.2,0,6-1.1,8.3-3.4c2.2-2.2,3.3-4.9,3.3-8.1c0-3.2-1.1-6-3.4-8.2C-94.7,209.5-97.4,208.4-100.7,208.4z M-100.6,210.5
		c2.6,0,4.9,0.9,6.7,2.8c1.9,1.8,2.8,4.1,2.8,6.7c0,2.7-0.9,4.9-2.7,6.6c-1.9,1.9-4.2,2.8-6.8,2.8c-2.6,0-4.8-0.9-6.7-2.8
		c-1.9-1.9-2.8-4.1-2.8-6.7c0-2.6,0.9-4.8,2.8-6.7C-105.5,211.4-103.3,210.5-100.6,210.5z"/>
</g>
</svg>
