<?xml version="1.0" encoding="utf-8"?>
<!-- Generator: Adobe Illustrator 18.1.0, SVG Export Plug-In . SVG Version: 6.00 Build 0)  -->
<!DOCTYPE svg PUBLIC "-//W3C//DTD SVG 1.1//EN" "http://www.w3.org/Graphics/SVG/1.1/DTD/svg11.dtd">
<svg version="1.1" id="Ebene_1" xmlns="http://www.w3.org/2000/svg" xmlns:xlink="http://www.w3.org/1999/xlink" x="0px" y="0px"
	 viewBox="16.7 353.1 854 192.7" style="enable-background:new 16.7 353.1 854 192.7;" xml:space="preserve">
<rect x="16.7" y="353.1" style="fill:#E61470;" width="192.7" height="192.7"/>
<g id="Ebene_2">
	<g>
		<path style="fill:#FFFFFF;" d="M59.8,510.1l8.1-15c2.9,2.3,6.3,4.6,10.9,4.6c6.3,0,10.4-4,10.4-10.4v-50h20.1V490
			c0,19-11.5,27.6-28.2,27.6C73.6,517,65.6,515.3,59.8,510.1z"/>
		<path style="fill:#FFFFFF;" d="M117.9,504.9l10.4-15.5c5.8,5.8,13.8,10.4,24.7,10.4c6.9,0,10.9-2.3,10.9-6.3
			c0-10.4-43.1-1.7-43.1-31.1c0-12.7,10.9-24.2,30.5-24.2c12.1,0,23,3.5,31.1,10.9l-10.9,15c-6.3-5.2-15-8.1-22.4-8.1
			c-5.8,0-8.1,1.7-8.1,5.2c0,9.2,43.1,2.3,43.1,31.1c0,15.5-11.5,25.9-32.2,25.9C136.3,517,125.4,511.8,117.9,504.9z"/>
		<path style="fill:#010202;" d="M195,495.1v-15h27.6v15H195z"/>
		<path style="fill:#010202;" d="M244.4,515.8V456h-21.3v-17.3h62.7V456h-21.3v59.2h-20.1V515.8z"/>
		<path style="fill:#010202;" d="M338.1,515.8L325.5,490h-10.4v25.9h-19.6v-77.1h38c17.3,0,26.5,11.5,26.5,25.3
			c0,13.2-8.1,20.7-15.5,23l15.5,28.2h-21.9V515.8z M339.9,464.1c0-5.2-4-8.1-9.8-8.1h-15.5v16.7h15.5
			C335.8,472.7,339.9,469.8,339.9,464.1z"/>
		<path style="fill:#010202;" d="M370.9,515.8v-77.1h20.1v76.5h-20.1V515.8z"/>
		<path style="fill:#010202;" d="M400.8,477.3c0-23.6,17.8-39.7,41.4-39.7c18.4,0,28.8,10.4,33.4,20.7l-17.3,8.1
			c-2.3-6.3-9.2-10.9-16.7-10.9c-12.7,0-21.3,9.8-21.3,22.4c0,12.7,8.6,22.4,21.3,22.4c7.5,0,13.8-5.2,16.7-10.9l17.3,8.1
			c-5.2,9.8-15,20.7-33.4,20.7C418.7,517,400.8,500.9,400.8,477.3z"/>
		<path style="fill:#010202;" d="M529.6,515.8l-20.1-28.8l-5.2,6.3v22.4h-19.6v-77.1h19.6v31.6l23.6-31.6h24.2l-29.9,35.7l31.6,40.8
			h-24.2V515.8z"/>
		<path style="fill:#010202;" d="M553.8,504.9l10.4-15.5c5.8,5.8,13.8,10.4,24.7,10.4c6.9,0,10.9-2.3,10.9-6.3
			c0-10.4-43.1-1.7-43.1-31.1c0-12.7,10.9-24.2,30.5-24.2c12.1,0,23,3.5,31.1,10.9l-10.9,15c-6.3-5.2-15-8.1-22.4-8.1
			c-5.8,0-8.1,1.7-8.1,5.2c0,9.2,43.1,2.3,43.1,31.1c0,15.5-11.5,25.9-32.2,25.9C572.2,517,561.9,511.8,553.8,504.9z"/>
		<path style="fill:#010202;" d="M626.8,506.1c0-5.8,5.2-10.9,10.9-10.9c5.8,0,10.9,5.2,10.9,10.9s-5.2,10.9-10.9,10.9
			C632,517,626.8,511.8,626.8,506.1z"/>
		<path style="fill:#010202;" d="M656.2,487.7c0-17.3,12.7-29.3,30.5-29.3c12.1,0,19.6,5.2,23,10.4l-11.5,10.9
			c-2.3-3.5-5.8-5.2-10.4-5.2c-7.5,0-13.2,5.2-13.2,13.2c0,8.6,5.8,13.8,13.2,13.8c4.6,0,8.1-2.3,10.4-5.2l11.5,10.9
			c-3.5,4.6-10.9,10.4-23,10.4C668.8,517,656.2,504.9,656.2,487.7z"/>
		<path style="fill:#010202;" d="M713.7,487.7c0-15.5,11.5-29.3,29.9-29.3c19,0,30.5,13.2,30.5,29.3c0,15.5-11.5,29.3-30.5,29.3
			S713.7,503.2,713.7,487.7z M755.7,487.7c0-7.5-4.6-13.2-12.1-13.2c-7.5,0-12.1,6.3-12.1,13.2c0,7.5,4.6,13.8,12.1,13.8
			C751.6,501.5,755.7,495.1,755.7,487.7z"/>
		<path style="fill:#010202;" d="M853.4,515.8v-33.9c0-4-2.3-7.5-7.5-7.5c-4.6,0-8.1,2.9-9.8,5.2v35.7h-17.8v-33.9
			c0-4-1.7-7.5-7.5-7.5c-4.6,0-8.1,2.9-9.8,5.2v35.7h-17.8v-55.8h17.8v6.9c2.3-3.5,9.8-8.1,18.4-8.1c8.1,0,13.2,3.5,15.5,9.8
			c3.5-4.6,10.4-9.8,19-9.8c10.4,0,16.7,5.2,16.7,16.7v40.3h-17.3V515.8z"/>
	</g>
</g>
</svg>
