<svg viewBox="0 0 50 50" xmlns="http://www.w3.org/2000/svg"><g fill="#222" fill-rule="nonzero"><path d="M23.0082924.0128378c-.1167076.012285-.4914005.0552826-.8292383.0859951-4.8034398.5036855-9.5331696 2.536855-13.3906634 5.7678133-.7125308.5896806-2.3341524 2.2113022-2.923833 2.923833C2.6704546 12.6049753.8031327 16.8863021.115172 21.9538697c-.1535627 1.1240786-.1535627 4.9201474 0 6.044226.6879607 5.0675676 2.5552826 9.3488944 5.7493857 13.1633907.5896806.7125307 2.2113023 2.3341523 2.923833 2.9238329 3.8144963 3.1941032 8.0958231 5.0614251 13.1633906 5.7493858 1.1240787.1535626 4.9201474.1535626 6.0442261 0 5.0675675-.6879607 9.3488943-2.5552826 13.1633906-5.7493858.7125307-.5896806 2.3341524-2.2113022 2.923833-2.9238329 3.1941032-3.8144963 5.061425-8.0958231 5.7493857-13.1633907.1535627-1.1240786.1535627-4.9201474 0-6.044226-.6879607-5.0675676-2.5552825-9.3488944-5.7493857-13.1633907-.5896806-.7125307-2.2113023-2.3341523-2.923833-2.923833-3.8022113-3.181818-8.1265356-5.07371-13.1265356-5.7432432-.5405405-.07371-1.3267813-.1044226-2.7825553-.1167076C24.1385135-.0055897 23.125.0005528 23.0082924.0128378zm.3071253 2.6535627c0 .7186732.04914 2.2788698.1167076 3.7592137.036855.7248158.0798526 1.7628993.0982801 2.3034399.0675676 1.9164619.2702703 6.9471744.3009828 7.3955773l.0307125.448403-.2764127-.0307125c-.1535627-.012285-.2948403-.0491401-.3194104-.0675676-.0184275-.02457-.061425-.4484029-.085995-.9459459-.1105652-2.1867322-.472973-10.6695332-.5098281-11.9103195l-.036855-1.3636363.1719902-.02457c.0921376-.012285.2457002-.0307126.3439803-.036855l.1658477-.0061426v.4791155zm5.8783784-.1474202c.0061425.0061425.02457 1.8611794.0429975 4.1216217.02457 2.2665847.0552826 4.2997543.0737101 4.5208845.0184275.2272727.012285.4238329-.0184275.4361179-.0245701.0184275-.1781327.0184275-.3316954 0l-.2825552-.02457-.0429976-1.7874693c-.02457-.9889435-.0552825-2.0823096-.0675676-2.438575-.04914-1.0872235-.0921375-4.7788697-.0552825-4.8710073.02457-.0675676.0921376-.07371.3501228-.0307125.1781327.036855.3255529.0675675.3316954.07371zM14.9861794 4.57672c.036855.0552826.3255528 3.4398034.6818181 7.8685504.1167077 1.504914.2334153 2.8808354.2518428 3.0528255.0307125.3132678.02457.3255528-.1719902.448403-.1105651.0675675-.2211302.1228501-.2457002.1228501-.0184275 0-.0552826-.1597052-.0737101-.3562654-.0859951-.7985258-.4176904-4.6560196-.6511056-7.4447174-.1351352-1.6400491-.2579853-3.1081081-.2764128-3.2678133-.0307126-.2702702-.02457-.2948403.1351351-.3808354.1965602-.1044226.3071253-.12285.3501229-.0429975zm16.9103194 1.2346437c.1719901.0614251.1904177.0921376.2272727.4422605.0614251.6142506.0429975 3.5503685-.02457 3.5503685-.1781327 0-.5466831-.2088452-.5773956-.3255528-.0184275-.07371-.036855-.945946-.036855-1.9348894 0-1.9963145-.0245701-1.879607.4115479-1.7321868zm-11.3452089.2886978c0 .1658477.0429976 1.0810811.0921376 2.0454546.0491401.9643734.1044226 2.1867322.1289926 2.7149877.0429976 1.0687961.0552826 1.031941-.3562653 1.056511-.2027027.0061425-.2027027.0061425-.2149877-.3009828-.012285-.1719901-.0429976-.7063882-.0798526-1.1977887-.0307125-.4914004-.1044226-1.554054-.1535627-2.3648648-.04914-.8108108-.1105651-1.6154791-.1289926-1.7874693-.036855-.3071253-.0307125-.3194103.1351351-.3808354.0982801-.036855.2702703-.0675676.3808354-.0675676.1965602-.0061425.1965602-.0061425.1965602.2825553zm17.0393121.8415234l.2088452.085995.0429975.8230959c.0184275.448403.0307125 1.4189189.0184275 2.1498771l-.0184275 1.3390664-.2579852-.1289927-.2579853-.1228501-.0184275-2.039312c-.012285-1.1240787-.0061425-2.0761671.0061425-2.1191647.02457-.0921375.02457-.0921375.2764128.012285zm-11.2162163.8046683c.0368551.036855.1228502 3.0159705.1289927 4.527027l.0061425.9090909-.2886978-.0429975c-.1658477-.0184276-.3009828-.0368551-.3071253-.0429976-.0184275-.012285-.2027027-4.563882-.2027027-5.0061425V7.635688l.3132678.036855c.1781327.02457.3316953.0552826.3501228.07371zm14.1461917.436118c.0737101.085995.0859951 1.4312038.1044226 8.8513513.0184275 8.519656.0184275 8.7407862-.0921376 8.7407862-.0675676 0-.1597052-.036855-.2149877-.0798526-.0921376-.0675675-.1044226-.8108108-.1351351-8.0896806-.0245701-4.4103194-.0552826-8.4152334-.0737101-8.9004914l-.0368551-.8845209.1781327.1289927c.1044226.07371.2211302.1781327.2702703.2334152zm-5.509828 1.2592137c.0307125.02457.061425.3746928.0675676.7739557.0307125 1.3574939.036855 9.6805897.0061425 9.7051597-.0122851.0122851-.1228502-.0184275-.2457003-.0675675l-.2211302-.0921376V9.3125921l.1719902.036855c.0921376.0245701.1904177.0614251.2211302.0921377zm-16.953317.3439803c.0184276.1658477.0491401.5405406.0675676.8476659.0184275.3009828.0614251.9889434.0982801 1.5233415.0737101 1.0810811.0614251 1.1486486-.2886978 1.1486486-.1842752 0-.2088452-.0184275-.2334152-.2027027-.0614251-.3624078-.2764128-3.3845209-.2457003-3.433661.0307126-.0429974.3501229-.1535626.497543-.1658476.0368551-.0061425.0859951.1228502.1044226.2825553zM7.8977273 11.3519042c.0675675.6511056.2027027 2.014742.3009828 3.0282555.1044226 1.0135135.1904177 1.8734644.1904177 1.9103194 0 .0737101-.472973.3071253-.522113.2579853-.0307126-.0307126-.6449632-5.4668305-.6449632-5.7125307 0-.1474202.472973-.7678133.534398-.7002457.0184276.012285.0798526.558968.1412777 1.2162162zm24.0847666.6449631l.1781326.1044226.0061425 1.3267814c.0061425.7248157.0184276 1.5356265.0184276 1.7997543.012285.5528255-.0552826.6449631-.3869779.5282555l-.1904177-.0675676v-.5282555c0-.2948403-.0184275-1.1486487-.0429976-1.9041769l-.036855-1.3636364h.1412776c.0737101 0 .2149878.0491401.3132679.1044226zm-21.3882064 2.3832924c.1105651 1.1793612.2886978 3.1695332.4054054 4.4226044l.2088452 2.2727273-.2395578.2395577-.2334152.2395578-.0429975-.485258c-.0245701-.2702703-.1474202-1.5233415-.2764128-2.7886978s-.3132678-3.1019656-.4054054-4.0786241l-.1719902-1.7690417.2395578-.2211303c.2149877-.2027027.2395577-.2088452.2825552-.0982801.0245701.0614251.1289927 1.0810811.2334153 2.2665848zm-4.6007371.7432432c.1351351 1.2100738.4914005 4.428747.7985258 7.1498772.3071253 2.7211302.595823 5.3439803.6511056 5.8353808.04914.4914005.1351351 1.2346438.1842752 1.6584767.085995.7186732.085995.7678133-.012285.8415233-.1474202.1105651-.2088452.0982801-.2088452-.0307125 0-.0552826-.0552826-.522113-.1228501-1.0257985-.1105651-.8415234-.2948403-2.2665848-.7063882-5.4668305-.0859951-.6449631-.2518428-1.9287469-.3685504-2.8562653-.1228501-.9275185-.3009828-2.3095824-.399263-3.0712531-.09828-.7616708-.2641277-2.0638821-.3685503-2.9054054-.110565-.8353809-.1781327-1.5786241-.1597051-1.6584767.0429975-.1658476.4054054-.7432432.4422604-.7063882.012285.0184275.1351351 1.019656.2702703 2.2358722zm-1.879607 2.6474202c.0921377.7371007.2641278 2.0823096.3808355 2.997543.1167076.9090909.2641277 2.0454545.3316953 2.5184275l.1167076.8599509-.1289926.1105651c-.07371.061425-.1474202.0859951-.1719902.061425-.02457-.02457-.07371-.2702702-.110565-.5405405-.0368551-.2702703-.2641279-1.8488943-.5098281-3.5012285l-.436118-3.009828.1412777-.4176904c.07371-.2272728.1535627-.4115479.1719902-.4115479.02457 0 .1167076.6019656.2149877 1.3329238zm33.7223588-.8046683c.0859951.0859951.0982801.4668305.0982801 3.2862408v3.1879607h-.1719902c-.3746928 0-.3685503.0921376-.3931204-3.3968059l-.0184275-3.1756757h.1965602c.1044226 0 .2395578.0429975.2886978.0982801zm-13.4459459 1.0995086c1.3882064.2088452 2.5982801.5958231 3.7960688 1.2100737.7739557.3992629 1.1425061.6756757 2.002457 1.4987715 1.2776412 1.2223587 2.063882 2.2911548 2.8009828 3.8022113 1.0749385 2.1990172 1.492629 4.1461916 2.0208845 9.3673219.2395577 2.3402948.5528255 6.5847666.6203931 8.3230958.0184275.5036855.0614251 1.3329238.0982801 1.8427518.0675676 1.0810811.1474202.933661-.8046683 1.3943489-1.3206388.6388207-2.5921376 1.0810811-4.2690418 1.492629-2.051597.5036855-3.3783783.6633907-5.4054054.6695332l-1.4742014.0061425.012285-.7063882c0-.3869779.036855-1.2899263.07371-1.9963145.1842752-3.4213759.1474202-7.7395577-.0921376-10.1351351-.1351351-1.3759214-.3992629-3.0466831-.546683-3.4152335-.0307125-.0798525.1105651-.1474201.7186732-.3562653 1.1117936-.3869779 2.0761671-.8722359 2.2235872-1.1117936.2641278-.4545455-.2088452-1.1056511-.8108108-1.1056511-.1044226 0-.4176904.1105651-.7063882.2395577-1.3759214.6326781-4.1339066 1.3759214-5.7248157 1.5417691-1.0995086.1167076-2.8071253.04914-3.992629-.1658477-.6449631-.1167076-1.7997543-.5528256-2.7641278-1.0503686-1.1117936-.5773955-1.7936118-1.3452088-1.9963145-2.2542997-.1105651-.4914005-.0798525-1.4742015.0614251-2.027027.1535627-.6081082.5835381-1.492629.9766585-2.0085996 1.7506142-2.3034398 5.3624078-4.2997543 9.066339-5 1.1793612-.2211302 2.8501229-.2457002 4.1154792-.0552825zm18.9496314.1904177c.2211302.0921376.2457003.1167076.2457003.3255528.012285 1.6769042-.0245701 5.509828-.0552826 5.6695332-.0061425.0552825-.3255528.061425-.460688.012285-.085995-.0307125-.0982801-.3624079-.0982801-3.0712531 0-1.9410319.0245701-3.034398.0614251-3.034398.0307125 0 .1719902.0429975.3071253.0982801zm2.6842752 3.3722359l.2211302.0921375-.0429975 5.0859951c-.0491401 6.480344-.0552826 6.6707617-.2886978 7.2297298-.3808354.9152334-.3624079 1.0995086-.3255528-2.9176905.012285-2.0085995.0429975-4.041769.0552825-4.514742.012285-.4729729.02457-1.8058968.0307125-2.9668304 0-1.4004914.0184276-2.1007371.0614251-2.1007371.036855 0 .1658477.0429975.2886978.0921376zm-36.941032 1.529484c.0368551.497543.02457.546683-.1535626.9398034l-.1965602.4176904-.07371-.6142506c-.1167077-.982801-.1167077-1.0257985.1167075-1.1732186.1044227-.0737101.2149878-.1228502.2334153-.1105652.0184275.0122851.0552825.2579853.07371.5405406zm-3.7960687 3.7039312c.0552825.5036855.485258 3.8452088.7063882 5.485258.3316953 2.536855.3562653 2.8992629.2088452 2.7457002-.0184275-.0184275-.1597052-.8722359-.3071253-1.8980344-.958231-6.6216216-.9520885-6.5786241-.8722359-6.6277641.1658477-.1105651.2211302-.0491401.2641278.2948403zM9.7097666 29.675c.036855.1535627.2149877 1.8181818.2149877 2.0208845 0 .1719902-.2211302.3316954-.3194103.2334153-.0307126-.0307126-.1105651-.5528256-.1719902-1.1547912-.0675676-.6081081-.1351351-1.2407862-.1535627-1.4066339l-.036855-.3071253.2149877.2457002c.1228502.1351352.2334153.3009828.2518428.3685504zm4.9570024 2.3157248c.0675676.0614251.1105652.3071253.1658477.970516.0921376 1.1977887.1044226 1.1056511-.1474201 1.1056511-.2579853 0-.2518428.0184275-.3378379-1.0626536-.0859951-1.0995086-.0859951-1.0872265.0798526-1.0872265.0798526 0 .1842752.036858.2395577.073713zm4.8648649.0921376c.012285.0614251.0429975.4299754.0675676.8169533.0184275.3869779.07371 1.2592138.1228501 1.9348895.1719902 2.4815724.1781327 2.7948403.0737101 2.7948403-.1167076 0-.1289927-.0921376-.2641278-1.8427519-.04914-.7248157-.1412776-1.8673219-.2027027-2.536855-.0552826-.6695332-.0921376-1.2285013-.0737101-1.2407863.0675676-.07371.2457003-.0184275.2764128.0737101zM7.9837224 33.2622236c.036855.0552825.2702702 2.0208845.558968 4.7051597.0859951.8108108.1719902 1.5909091.1904177 1.7383292l.0307125.2641278-.1535626-.0982801c-.1167076-.0798526-.1597052-.1597052-.1597052-.3009828 0-.3869779-.2641277-2.9361179-.4668304-4.4963145-.1167077-.8845209-.2088453-1.6646192-.2088453-1.7383292 0-.1289927.1474202-.1781327.2088453-.0737101zm35.4484029 2.5675676l-.0429975 2.5675675-.1535627.2272727c-.3501228.5159706-.3316953.6142507-.3132678-2.2604422l.012285-2.6351351.2272727-.2334153c.1228502-.1228501.2457003-.2272727.2702703-.2272727.0184275 0 .0184275 1.1547911 0 2.5614251zm-5.6818182 4.0724815c.0307126 3.5687961.02457 3.8452089-.07371 3.955774-.0614251.0675676-.1167077.1105651-.1351352.0921376-.0429975-.0491401-.1044226-7.8316954-.0552825-7.8746929.02457-.02457.085995-.036855.1412776-.0307125.0798526.0184275.0982801.4545454.1228501 3.8574938zm-20.061425-2.4447174c.0429975.3808354.1965602 2.2051597.2579852 3.0651105.0368551.5773956.0368551.5958231-.0982801.6388207-.0737101.02457-.1597051.0184275-.1842752-.012285-.0429975-.0429976-.1781326-1.4066339-.3439803-3.507371l-.0429975-.5036855h.1904176c.1781327 0 .1904177.012285.2211303.3194103zm-4.8280099 2.1498771c.0429976.0429976.0737101.1965602.0737101.3501229 0 .1597051.0737101.9889435.1535627 1.8488943.2334152 2.3525799.2518427 2.6719902.1474201 2.6105651-.1597051-.0921376-.3009828-.2334152-.2702703-.2702702.0122851-.0245701-.012285-.3316954-.061425-.6818182-.0429976-.3562654-.0982801-.9336609-.1228501-1.2899263-.0245701-.3562654-.0798526-1.007371-.1289927-1.4434889-.1167076-1.0749386-.1105651-1.1977887.0245701-1.1977887.061425 0 .1412776.0307125.1842751.07371zm2.9054054 4.1339067c.0184276.1351351.0552826.6388206.0798526 1.1179361.0429976.9213759.02457.9889435-.2272727.7985258-.0737101-.0552826-.1228501-.2886978-.1965602-.9889435-.1289926-1.2653563-.1351351-1.2162162.1044226-1.1916462.1781327.0184275.2027027.0429975.2395577.2641278z"/><path d="M13.5734029 21.0079238c-.6388206.2764128-.6879606 1.1425062-.085995 1.4496315.4361179.2211302.8783783.1167076 1.1056511-.2641278.4299754-.7002457-.2702703-1.5110565-1.0196561-1.1855037zm4.1646192.5896806c-.5896806.3624079-.5896806 1.2346438 0 1.5970516.5835381.3501229 1.3390664-.1105651 1.3390664-.8108108 0-.6756757-.7739558-1.1302211-1.3390664-.7862408z"/></g></svg>