<svg viewBox="0 0 50 50" xmlns="http://www.w3.org/2000/svg"><g fill-rule="nonzero" fill="none"><path fill="#E34F26" d="M7.0039063 44.921875L3 0h44.0429688l-4.0039063 44.921875L24.9726562 50"/><path fill="#EF652A" d="M25.0703125 46.09375l14.5507813-4.0039062 3.4179687-38.4765625h-17.96875"/><path d="M25.0703125 20.3125h-7.3242187l-.4882813-5.6640625h7.8125v-5.46875H11.203125l.0976563 1.4648437 1.3671874 15.234375h12.4023438V20.3125zm0 14.3554688h-.0976563l-6.1523437-1.6601563-.390625-4.3945313h-5.46875l.6835937 8.6914063 11.328125 3.125h.0976563v-5.7617187z" fill="#EBEBEB"/><path d="M24.9726562 20.3125v5.5664062h6.8359376L31.125 33.0078125l-6.1523438 1.6601563v5.7617187l11.328125-3.125.0976563-.9765625 1.2695313-14.5507812.1953124-1.4648438h-12.890625zm0-11.1328125v5.46875h13.3789063l.0976563-1.171875.2929687-2.8320313.0976563-1.4648437H24.9726562z" fill="#FFF"/></g></svg>