<svg viewBox="0 0 50 50" xmlns="http://www.w3.org/2000/svg"><g fill-rule="nonzero" fill="none"><path d="M15.6258717.0457636c-.2523919.0078326-.5242085.1010688-.8324617.3443166-.755018-.2912343-1.4872447-.392412-2.1421722.2004881-1.0107294-.1311546-1.3396296.139522-1.5886506.4554568-.221935-.004593-1.6610076-.2281778-2.3208682.756189-1.6584134-.196194-2.182481.9754445-1.5886507 2.0680788-.3386967.5243344-.6896445 1.0423449.1024233 2.0419282-.2801956.5567304-.1065154 1.1606715.5535217 1.891562-.1741881.7826081.1682062 1.334788.7823396 1.7651674-.1148599 1.0709595.9821133 1.6936841 1.3097106 1.9155335.1257794.6240362.3879295 1.21288 1.6409518 1.5385286.206641.929993.9596974 1.0905899 1.6888947 1.2857391-2.4101763 1.4009443-4.4770341 3.2442581-4.4630404 7.7667364l-.3530335.6297943c-2.7636588 1.6807734-5.2500207 7.0827239-1.3620118 11.4735879.2539659 1.374364.6798876 2.3615035 1.0591004 3.4540621.567213 4.4024114 4.2690118 6.46385 5.24538 6.7076359 1.4307204 1.0898271 2.9545454 2.1238996 5.0165621 2.8482392 1.9438738 2.0048438 4.0497824 2.7689261 6.1671897 2.7677588h.0937064c2.117408.0011673 4.2233159-.762915 6.1671897-2.7677588 2.0620167-.7243396 3.5858417-1.7584121 5.016562-2.8482392.9763682-.2437859 4.6781674-2.3052245 5.2453801-6.7076359.3792127-1.0925586.8051339-2.0796981 1.0591004-3.4540621 3.8880084-4.390864 1.4016465-9.7928145-1.3620118-11.4735879l-.3530335-.6297943c.0139937-4.5224783-2.052864-6.3657921-4.4630405-7.7667364.7291974-.1951492 1.4822539-.3557461 1.6888947-1.2857391 1.2530224-.3256486 1.515173-.9144924 1.6409519-1.5385286.3275977-.2218494 1.4245705-.844574 1.3097106-1.9155335.6141339-.4303794.9565279-.9825593.7823396-1.7651674.6600377-.7308905.8337169-1.3348317.5535217-1.891562.7920676-.9995833.4411199-1.5175938.1024232-2.0419282.5938306-1.0926343.0697629-2.2642727-1.5886506-2.0680788-.6598605-.9843668-2.098933-.760782-2.3208682-.756189-.2490209-.3159349-.5779212-.5866114-1.5886506-.4554568-.6549275-.5929001-1.3871541-.4917224-2.1421723-.2004881-.8967364-.70763-1.4903947-.1403972-2.1683228.0740934-1.0860426-.3547962-1.3342413.1311652-1.8675907.3290621-1.1837692-.2502145-1.5436262.294528-2.1116632.8695084l-.6603033-.0130753c-1.7859512 1.0525184-2.6732064 3.1956416-2.9877092 4.2974198-.3146486-1.1019511-1.1998933-3.2450866-2.98553-4.2974198l-.6603033.0130753c-.568037-.5749804-.9278941-1.119723-2.1116632-.8695084-.5333494-.197897-.7815481-.6838582-1.8675907-.329062-.4448905-.1407596-.8540216-.4333632-1.3358612-.4184101z" fill="#000"/><path d="M12.0705607 4.6761216c4.7383312 2.4429119 7.4928096 4.4190353 9.0018947 6.1021246-.7728278 3.0974609-4.8044896 3.2388173-6.2786325 3.1519233.3018424-.140498.5536876-.3087713.6429923-.5673459-.3699086-.2628878-1.6815125-.0276981-2.5971848-.5421311.3517483-.0728724.5162817-.1438647.6808152-.4034463-.8651123-.2759205-1.7969749-.5136974-2.3450311-.9707922.2957638.0036541.5719077.0661645.9581845-.2017232-.774874-.4175864-1.6017509-.7485014-2.2441694-1.3868466.4006424-.0098068.8325977-.003961.9581848-.1512922-.7092357-.439378-1.307618-.9280244-1.8029004-1.462493.560668.0676792.7974396.009399.9329695-.0882538-.5361085-.5491067-1.2146136-1.0127748-1.5381389-1.689431.4162905.1434787.7971583.1984003 1.0716541-.0126077-.1821733-.41098-.9627205-.6533904-1.4120618-1.613785.4382398.042495.9030408.0956143.9960079 0-.2037872-.829049-.5528213-1.2949807-.8951463-1.777685.9379388-.013928 2.3589788.0036505 2.2946004-.0756461l-.579954-.5925617c.9161519-.2466696 1.853602.0396209 2.5341466.2521539.305569-.2411214-.0054114-.5460237-.3782308-.8573233.7785885.1039503 1.4821353.282942 2.1180927.5295232.3397755-.3067872-.2206339-.6135745-.4917001-.9203617 1.2028842.2282125 1.7124937.548862 2.2189546.869931.3674582-.3522176.0210363-.651555-.2269386-.958185.9069498.335917 1.374113.7695643 1.8659386 1.1977311.1667497-.2250386.423636-.3899866.1134694-.9329694.6439442.3711803 1.1289581.8085816 1.4877085 1.2985926.3984212-.2536919.2373689-.6006293.239546-.9203618.6692225.5443875 1.093924 1.1237065 1.6137852 1.6894312.1047204-.0762508.1964163-.3348473.2773689-.743854 1.5966102 1.548941 3.8525739 5.4503655.579954 6.9972706-2.7837357-2.2975704-6.1099114-3.9670524-9.7961792-5.2195855zM37.212334 4.6761216c-4.7383312 2.4429119-7.4928096 4.4190353-9.0018947 6.1021246.7728278 3.0974609 4.8044896 3.2388173 6.2786325 3.1519233-.3018424-.140498-.5536876-.3087713-.6429923-.5673459.3699086-.2628878 1.6815126-.0276981 2.5971848-.5421311-.3517483-.0728724-.5162817-.1438647-.6808152-.4034463.8651123-.2759205 1.7969749-.5136974 2.3450314-.9707922-.2957643.0036541-.571908.0661645-.9581848-.2017232.7748738-.4175864 1.601751-.7485014 2.2441694-1.3868466-.4006422-.0098068-.8325976-.003961-.9581848-.1512922.7092357-.439378 1.3076179-.9280244 1.8029003-1.462493-.560668.0676792-.7974393.009399-.9329693-.0882538.5361081-.5491067 1.2146137-1.0127748 1.5381388-1.689431-.4162908.1434787-.7971583.1984003-1.0716541-.0126077.1821736-.41098.9627203-.6533904 1.412062-1.613785-.4382399.042495-.9030411.0956143-.9960083 0 .2037873-.829049.5528214-1.2949807.8951464-1.777685-.9379386-.013928-2.3589784.0036507-2.2946004-.0756461l.579954-.5925617c-.9161521-.2466696-1.8536019.0396209-2.5341465.2521539-.305569-.2411214.0054114-.5460237.3782308-.8573233-.7785885.1039503-1.4821353.282942-2.1180927.5295232-.3397755-.3067872.2206339-.6135745.4917001-.9203617-1.2028842.2282125-1.7124937.548862-2.2189546.869931-.3674582-.3522176-.0210363-.651555.2269386-.958185-.9069498.335917-1.374113.7695643-1.8659386 1.1977311-.1667497-.2250386-.423636-.3899866-.1134694-.9329694-.6439442.3711803-1.1289581.8085816-1.4877085 1.2985926-.3984212-.2536919-.2373689-.6006293-.239546-.9203618-.6692225.5443875-1.093924 1.1237065-1.6137852 1.6894312-.1047204-.0762508-.1964163-.3348473-.2773689-.743854-1.5966102 1.548941-3.8525739 5.4503655-.579954 6.9972706 2.7837357-2.2975704 6.1099114-3.9670524 9.7961792-5.2195855z" fill="#75A928"/><path d="M30.3798009 36.2176459c0 2.8905121-2.5411154 5.2337352-5.67574 5.2337352-3.1346246 0-5.6757399-2.3432231-5.6757399-5.2337352s2.5411153-5.2337352 5.6757399-5.2337352 5.67574 2.3432231 5.67574 5.2337352zM21.4134036 21.2626068c2.3474896 1.5472434 2.7706695 5.046751.9451988 7.8163692-1.8254706 2.769618-5.2083232 3.7605486-7.5558128 2.2133052-2.3474895-1.5472434-2.7706696-5.0467511-.945199-7.8163692 1.8254707-2.7696181 5.2083234-3.7605486 7.555813-2.2133052zM27.7735017 20.9836672c-2.3474896 1.5472434-2.7706695 5.0467511-.9451989 7.8163692 1.8254707 2.769618 5.2083233 3.7605486 7.5558128 2.2133052 2.3474896-1.5472434 2.7706696-5.0467511.945199-7.8163692-1.8254706-2.769618-5.2083233-3.7605486-7.555813-2.2133052zM9.665987 23.7857601c2.5393456-.6803989.8571542 10.5046381-1.2087436 9.5868738-2.2724385-1.8279414-3.0043981-7.1809923 1.2087436-9.5868738zM39.0082483 23.6462901c-2.5393459-.6803989-.8571549 10.5046381 1.2087433 9.5868738 2.2724387-1.8279414 3.0043982-7.1809924-1.2087433-9.5868738zM30.3815607 15.3175314c4.3817894-.7398975 8.0276108 1.8634791 7.8808493 6.6149205-.1441373 1.8215565-9.4950292-6.3437287-7.8808493-6.6149205zM18.2747385 15.1780614c-4.3817894-.7398975-8.0276109 1.863479-7.8808494 6.6149205.1441374 1.8215565 9.4950293-6.3437288 7.8808494-6.6149205zM24.5689902 14.0694338c-2.6152433-.0680252-5.1252078 1.9410167-5.1312311 3.1063061-.0072765 1.4159177 2.0677458 2.8655969 5.149061 2.9023954 3.1466562.022539 5.1545056-1.1604247 5.1646857-2.6216241.0114607-1.6555063-2.8618747-3.4126528-5.1825156-3.3870774zM24.7286869 43.1043759c2.2801562-.0995196 5.3396674.7344463 5.3456625 1.8407238.0378452 1.0742818-2.7747343 3.5014331-5.4969554 3.4545084-2.8191973.1216116-5.5836178-2.3093159-5.5473856-3.151924-.0421939-1.2354205 3.4327754-2.1999972 5.6986785-2.1433082zM16.3067462 36.5483745c1.6233682 1.9557692 2.3633654 5.3918403 1.0086157 6.4047092-1.2816715.7732106-4.3941618.4547852-6.6064321-2.7232615-1.4919841-2.6667838-1.299692-5.3805182-.252154-6.1777713 1.5665568-.9542741 3.9869892.3346597 5.8499704 2.4963236zM32.8257252 35.9282964c-1.756403 2.0572977-2.7344679 5.8095892-1.4531276 7.0183263 1.2251242.938885 4.5138912.8076444 6.943212-2.5631618 1.7640161-2.2639267 1.1729519-6.0447873.1653257-7.0484735-1.4967978-1.1577496-3.6455307.3239115-5.6554101 2.593309z" fill="#BC1142"/></g></svg>