<svg viewBox="0 0 50 50" xmlns="http://www.w3.org/2000/svg"><g transform="translate(0 2)" fill-rule="nonzero" fill="none"><path fill="#3949AB" d="M26.4791667 28.5625L25 27.0833333 23.5416667 28.5625l.6041666.6041667-.6041666.625L25 31.25l1.4791667-1.4583333.6041666-.625z"/><path fill="#3949AB" d="M26.4791667 28.5625L25 27.0833333 23.5416667 28.5625l-.625.6041667L25 31.25l1.4791667-1.4583333-.625-.625z"/><g fill="#3F51B5"><path d="M25 29.1666667L8.3333333 45.8333333V37.5H0l18.75-18.75L25 25l-1.4583333 1.4791667-.625.6041666zM50 37.5h-8.3333333v8.3333333L25 29.1666667l1.4791667-1.4583334.6041666-.625-.6041666-.6041666L25 25l6.25-6.25z"/></g><path d="M42.6041667 22.5c-.4916667.7270833-1.125 1.3604167-1.8520834 1.8520833-.5395833.3520834-.7958333.9604167-.65625 1.5708334.7270834 3.65625-1.6416666 7.1958333-5.3208333 7.9229166-.4229167.09375-.84375.1166667-1.2895833.1395834-.4458334 0-.9145834-.0479167-1.3604167-.1395834h-.3041667c-.5145833 0-1.0083333.2333334-1.2895833.65625-1.2416667 1.85-3.3041667 2.975-5.53125 2.9979167h-.0229167c-2.25 0-4.3604166-1.1020833-5.6020833-2.9541667-.28125-.4208333-.7729167-.6791666-1.2895833-.6791666H17.875c-.4458333.0708333-.9145833.1166666-1.3604167.1166666-3.75-.0229166-6.75-3.0458333-6.7270833-6.75 0-.4458333.0479167-.8666666.1166667-1.2895833.1416666-.6104167-.1166667-1.21875-.65625-1.5708333-3.09375-2.0625-3.9375-6.2333334-1.8520834-9.3270834.4916667-.7270833 1.125-1.3604166 1.8520834-1.8520833.5395833-.3520833.7958333-.9604167.65625-1.5708333C9.1770833 7.9666667 11.5458333 4.4270833 15.225 3.7c.4229167-.0708333.84375-.1166667 1.2895833-.1166667.4458334 0 .9145834.0479167 1.3604167.1166667h.3041667c.4916666-.0229167.9375-.28125 1.1958333-.7020833C20.6645833 1.0541667 22.8208333 0 25 0c1.2895833 0 2.5791667.3520833 3.7270833 1.125.75.4916667 1.40625 1.125 1.8979167 1.875.28125.4208333.7729167.7020833 1.2895833.7020833H32.125c.4458333-.09375.9145833-.1395833 1.3604167-.1395833 3.75.0229167 6.75 3.0479167 6.7270833 6.75 0 .4458333-.0479167.8666667-.1166667 1.2895833-.1166666.6083334.1416667 1.21875.65625 1.5708334 3.09375 2.0604166 3.9375 6.2333333 1.8520834 9.3270833z" fill="#FFB300"/><circle fill="#FFD54F" cx="25" cy="18.75" r="12.5"/></g></svg>