<svg viewBox="0 0 50 50" xmlns="http://www.w3.org/2000/svg"><path d="M44.7208322 36.0057146c-6.0636457 8.2072485-19.0164578 5.43691-27.3209368 5.8353861 0 0-1.4701041.08309-2.9508333.3306879 0 0 .5598959-.242635 1.2739583-.4927196 5.8326041-2.0490264 8.5889582-2.4607619 12.1330206-4.310074 6.6589581-3.4651851 13.2861455-11.0132272 14.6345829-18.8541794-2.5345832 7.5412697-10.243333 14.0318515-17.2623954 16.6675128-4.8042707 1.8009523-13.4923955 3.5536507-13.4936455 3.5543915.0040625.0062433-.34625-.1847619-.3511458-.1888889-5.9085832-2.9203174-6.0790728-15.9205287 4.6520832-20.1111106 4.7049999-1.8386243 9.2054165-.8287831 14.2916663-2.0586243 5.4247916-1.3102645 11.7077081-5.4410581 14.261458-10.8415871 2.8629166 8.6264549 6.3020832 22.122645.1321875 30.4692056zm.1054167-33.1423272c-.721875 1.7422222-1.6028125 3.3121693-2.6184375 4.716402C37.7376032 2.9191546 31.4982284.0153452 24.6016661.0153452 11.0355206.0153452 0 11.2273026 0 25.006244c0 7.2233861 3.0350728 13.7379891 7.8739373 18.3043593l.5387396.4848678c-.8996563-.745291-1.038-2.0874709-.3088334-3.0022328.7336354-.9151746 2.0560729-1.0569629 2.9561562-.3158095.9025.7428042 1.04 2.0882963.3092708 3.004709-.7280208.9168359-2.0528645 1.055312-2.9541457.3153968l.3666146.3298624C13.0619788 47.7885292 18.5794787 50 24.601666 50c12.967083 0 23.6148952-10.2513225 24.5263535-23.190264.675-6.3352379-1.1669791-14.3795763-4.3017707-23.9463486" fill="#5FB832" fill-rule="nonzero"/></svg>