<svg viewBox="0 0 50 50" xmlns="http://www.w3.org/2000/svg"><g fill="#000" fill-rule="nonzero"><path d="M24.691358 4.5276075c10.3587156.7880013 18.5185185 9.4427169 18.5185185 20.0032567 0 10.9767226-8.8156191 19.8944471-19.7530864 20.0594024v.002326H0v-6.1728395h22.8395062v-.0033616a14.1592326 14.1592326 0 00.3086419.0033616c7.6706216 0 13.8888889-6.2182674 13.8888889-13.8888889 0-7.1490025-5.401311-13.0364613-12.345679-13.8041223v3.6189371l-6.1728395-6.1728395L24.691358 2v2.5276075zM7.580016 37.1851852c-2.809413-3.4521093-4.4935962-7.8565341-4.4935962-12.654321 0-10.0599974 7.4046268-18.3905515 17.0610437-19.8388257l-3.4807968 3.480801 2.9279013 2.9279014c-5.949048 1.569926-10.3353087 6.9877916-10.3353087 13.4301233 0 5.626514 3.3457006 10.4715977 8.1561719 12.654321H7.5800161zm36.2471445 10.4938271v-12.345679L50 41.5061728l-6.1728395 6.1728395z"/><path d="M39.2927015 38.4197531h5.7690269v6.1728395H30.8641975v-.2062866c3.2821815-1.2764046 6.1695954-3.3431682 8.428504-5.9665529z"/></g></svg>