<svg viewBox="0 0 50 50" xmlns="http://www.w3.org/2000/svg"><g transform="translate(2)" fill-rule="nonzero" fill="none"><path d="M38 24.8l-4.5-.5H27c-1.6.1-3.7-.7-4 .3a19.3 19.3 0 01-12 13.1 6 6 0 01-3-7.5c1-2.3 2.1-4.8 0-5.4-1.4-.4-2.3 1-2.8 2.6-1.1 3-3.2 6-3.8 9.6-.7 3.8 0 7.9 3.3 10.2 7.6 5.3 16-3.3 24.8-5.5 3.1-.8 6.6-.7 9.4-2.3a8 8 0 004-5.5 8.6 8.6 0 00-4.8-9.1z" fill="#C21325"/><path d="M24 23h-.3c-.8 0-1.5.4-1.7 1.3-.9 3.2-2.7 6.1-5.2 8.5l-.1.1a17.6 17.6 0 01-5.5 3.5H11a4.7 4.7 0 01-2-5.8l.3-.6v-.2l.1-.3.1-.1v-.2h.1V29l.1-.2v-.2h.1v-.2h.1v-.2l.1-.2v-.1l.2-.6v-.1-.6c.1-1.4-.5-2.5-2-2.9-1-.3-2 0-2.9 1a7 7 0 00-1.3 2.2v.3l-.1.1v.1l-.1.2-.1.3-.1.1-.1.3-.2.4-.4.8-.6 1.2v.2l-.2.3-.1.2-.1.2v.2l-.2.2v.1l-.1.2-.1.3-.1.1v.1l-.1.2v.1l-.1.1v.2l-.1.1-.1.2v.2l-.1.2-.1.2-.1.4-.1.1v.2l-.1.2v.3l-.1.1V36l-.2.3v.6c-.9 4.8.3 9 3.7 11.3 2.7 1.9 5.7 2.3 9 1.5 1.3-.2 2.7-.7 4.3-1.4l.3-.1.3-.2h.2l.2-.2.3-.1.3-.1.6-.3.5-.3 1-.4 1.1-.6.3-.2.4-.2.5-.2.3-.2.3-.1.3-.1.3-.2h.2l.3-.2h.2l.1-.1.3-.1.1-.1h.2l.1-.1.2-.1h.1l.2-.1h.1l.2-.2H27l.2-.1h.1l.1-.1h.2l.1-.1h.1l.2-.1h.1l.1-.1h.2l.1-.1H29l.1-.1H29.3l.1-.1H29.7v-.1h.4l.1-.1H30.5l.2-.1h.4l.2-.1h.3l.3-.1h.3l.3-.1 1-.2h.8l.3-.1h.2l.3-.1h.4v-.1h.4l.4-.2a12 12 0 003.2-1.2A9 9 0 0044 34a9.8 9.8 0 00-5.4-10.3l-.6-.3-.2.1-1-.1H36.2l-.3-.1h-.2a56.1 56.1 0 00-8.6-.2H27 26l-.3-.1h-.7l-.2-.1H24zm0 2.3h1.5l.2.1H27a49.6 49.6 0 018.4.2h.5l.4.1h.4l.8.2h.2a7.5 7.5 0 014 7.8c-.4 2-1.6 3.7-3.4 4.7h-.1v.1H38v.1h-.2l-.1.1-.2.1h-.1l-.1.1h-.2v.1H37l-.1.1H36.6v.1h-.2l-.2.1H36l-.1.1H35.6l-.3.1H35l-.2.1h-.4l-.2.1H34l-.3.1h-.5l-.5.2H32l-.3.1h-.4l-.2.1H30.8l-.3.1H30l-.1.1h-.2l-.3.1H29.2l-.2.1h-.2l-.1.1H28.4l-.2.1-.2.1H27.7v.1h-.2l-.1.1h-.2l-.1.1H27l-.2.1h-.1l-.2.1h-.1l-.2.1h-.1l-.2.1-.3.2H25.3l-.2.2H25l-.2.1h-.2l-.1.2h-.3l-.2.1-.2.1-.1.1-.3.1-.3.2-.3.1-.3.2-.4.2-.4.2-.5.2-1.8.9-.8.4-.4.2-.5.2-.3.2h-.1l-.4.2h-.2l-.2.2c-1.5.6-2.8 1-4 1.3-2.7.7-5 .3-7.2-1.2-2.6-1.8-3.5-5-2.8-9v-.1-.2-.2l.1-.2v-.3l.1-.1v-.2l.1-.2v-.1-.1l.1-.2.1-.2V35l.1-.2v-.1h.1v-.2l.1-.2v-.1l.1-.2.1-.1v-.2l.1-.1.1-.2.1-.2.1-.3.1-.2.1-.2.1-.2.1-.2.2-.3.7-1.5.2-.6.2-.3.1-.3.1-.2.1-.2.1-.2v-.2l.2-.3v-.1l.2-.3v-.1c.2-.6.5-1 .7-1.2.2-.3.4-.3.7-.3H8l.2.3v.8l-.1.1v.2l-.1.2v.1l-.1.2-.1.2v.2l-.1.1v.2l-.2.2V29l-.2.2-.2.5a7 7 0 003.5 9l.4.2.5-.1A20.5 20.5 0 0024 25.3z" fill="#FFF"/><path fill="#C21325" d="M30.1 10.4L36.3 23 43.7 1H16.5L24 23z"/><path d="M45.3 0H14.9l8.8 25.9 6.4-13 6.4 13L45.3 0zM42 2.3l-6 17.7-6-12.2-6 12.2-6-17.7h24z" fill="#FFF"/><circle fill="#C21325" cx="22.6" cy="24.6" r="4.7"/><path d="M22.6 18.8a5.8 5.8 0 100 11.6 5.8 5.8 0 000-11.6zm0 2.3a3.5 3.5 0 110 7 3.5 3.5 0 010-7z" fill="#FFF"/><circle fill="#C21325" cx="37.8" cy="24.6" r="4.7"/><path d="M37.8 18.8a5.8 5.8 0 100 11.6 5.8 5.8 0 000-11.6zm0 2.3a3.5 3.5 0 110 7 3.5 3.5 0 010-7z" fill="#FFF"/><circle fill="#C21325" cx="7.4" cy="24.7" r="4.7"/><path d="M7.4 18.9a5.8 5.8 0 100 11.5 5.8 5.8 0 000-11.5zm0 2.2a3.5 3.5 0 110 7 3.5 3.5 0 010-7z" fill="#FFF"/></g></svg>